<svg xmlns="http://www.w3.org/2000/svg" width="494" height="532.26" viewBox="0 0 494 532.26">
  <g id="Grupo_2049" data-name="Grupo 2049" transform="translate(-9647 -4729.74)">
    <g id="Grupo_2045" data-name="Grupo 2045" transform="translate(583 -20)">
      <circle id="Elipse_203" data-name="Elipse 203" cx="47" cy="47" r="47" transform="translate(9435 5188)" fill="rgba(122,56,255,0.51)"/>
    </g>
    <circle id="Elipse_209" data-name="Elipse 209" cx="175" cy="175" r="175" transform="translate(9741 4830)" fill="rgba(122,56,255,0.51)"/>
    <g id="Feeling_proud-pana" data-name="Feeling proud-pana" transform="translate(9644.529 4694)">
      <g id="freepik--Sparkles--inject-78">
        <path id="Trazado_2486" data-name="Trazado 2486" d="M349.24,253.23l5.14,1.93-4.46,1.27a4.63,4.63,0,0,0-3.15,3l-1.61,4.94-2-4.95a4.63,4.63,0,0,0-2.72-2.64l-4.52-1.64,4.89-2a4.68,4.68,0,0,0,2.57-2.63l1.77-4.59,1.26,4.26a4.65,4.65,0,0,0,2.83,3.05Z" fill="#ff71d5"/>
        <path id="Trazado_2487" data-name="Trazado 2487" d="M173.84,134.15l5.14,1.93-4.46,1.26a4.66,4.66,0,0,0-3.15,3l-1.61,4.93-2-4.94a4.62,4.62,0,0,0-2.73-2.64l-4.51-1.64,4.89-2a4.65,4.65,0,0,0,2.57-2.63l1.77-4.58,1.26,4.26A4.65,4.65,0,0,0,173.84,134.15Z" fill="#ff71d5"/>
        <path id="Trazado_2488" data-name="Trazado 2488" d="M159.72,257.14l2.49.93-2.16.62a2.26,2.26,0,0,0-1.53,1.46l-.78,2.39-1-2.39a2.25,2.25,0,0,0-1.32-1.28l-2.19-.8,2.37-1a2.32,2.32,0,0,0,1.25-1.27l.85-2.23.61,2.07a2.28,2.28,0,0,0,1.41,1.5Z" fill="#ff71d5"/>
        <path id="Trazado_2489" data-name="Trazado 2489" d="M335.44,228.35l2.63,1-2.29.65a2.4,2.4,0,0,0-1.61,1.55l-.83,2.53-1-2.53a2.42,2.42,0,0,0-1.39-1.36l-2.32-.84,2.51-1a2.43,2.43,0,0,0,1.32-1.35l.9-2.35.65,2.18a2.36,2.36,0,0,0,1.43,1.52Z" fill="#ff71d5"/>
        <path id="Trazado_2490" data-name="Trazado 2490" d="M162.63,164l2.63,1-2.28.64a2.39,2.39,0,0,0-1.62,1.56l-.83,2.52-1-2.53a2.46,2.46,0,0,0-1.4-1.36L155.8,165l2.51-1a2.4,2.4,0,0,0,1.32-1.35l.9-2.35.65,2.18a2.36,2.36,0,0,0,1.45,1.52Z" fill="#ff71d5"/>
      </g>
      <g id="freepik--Character--inject-78">
        <path id="Trazado_2491" data-name="Trazado 2491" d="M288.21,111.83s-19.06-15-42.1-10.24c-21.16,4.4-42.5,20.47-42.5,20.47l-2.74-28.83s4.71,5.61,7.46,4.43,2.76-22.43,2.76-22.43,10.23,13.38,16.13,12.2,14.17-27.94,14.17-27.94,12.2,23.22,19.28,24,13-14.95,13-14.95S278,89.79,283.1,90.77s7.47-8.85,7.47-8.85Z" fill="#ff71d5"/>
        <path id="Trazado_2492" data-name="Trazado 2492" d="M287.61,81.74a3,3,0,1,0,3-3A3,3,0,0,0,287.61,81.74Z" fill="#ff71d5"/>
        <circle id="Elipse_210" data-name="Elipse 210" cx="2.96" cy="2.96" r="2.96" transform="translate(270.77 63.7)" fill="#ff71d5"/>
        <circle id="Elipse_211" data-name="Elipse 211" cx="3.28" cy="3.28" r="3.28" transform="translate(237.96 54.29)" fill="#ff71d5"/>
        <circle id="Elipse_212" data-name="Elipse 212" cx="3.28" cy="3.28" r="3.28" transform="translate(208.15 70.79)" fill="#ff71d5"/>
        <path id="Trazado_2493" data-name="Trazado 2493" d="M197.3,91.77A2.77,2.77,0,1,0,200.07,89a2.77,2.77,0,0,0-2.77,2.77Z" fill="#ff71d5"/>
        <path id="Trazado_2494" data-name="Trazado 2494" d="M288.6,106.93s-.08,0-.21-.12l-.58-.39c-.52-.34-1.22-.92-2.22-1.52a50,50,0,0,0-8.78-4.53,54.17,54.17,0,0,0-14.2-3.47,61.257,61.257,0,0,0-8.65-.28,66.491,66.491,0,0,0-9.22,1.06A83.45,83.45,0,0,0,227.6,103a113.751,113.751,0,0,0-13.07,6.68c-3.6,2.14-6.44,4-8.38,5.31l-2.23,1.52-.58.38c-.14.09-.21.13-.22.12a1.218,1.218,0,0,1,.18-.16l.56-.43c.5-.36,1.22-.92,2.18-1.59,1.9-1.37,4.71-3.28,8.3-5.46a106.749,106.749,0,0,1,13.07-6.81,81.941,81.941,0,0,1,17.23-5.39,66.1,66.1,0,0,1,9.3-1.06,62.1,62.1,0,0,1,8.72.31A53,53,0,0,1,276.94,100a46.12,46.12,0,0,1,8.76,4.7c1,.63,1.67,1.24,2.17,1.6l.55.44A1.318,1.318,0,0,1,288.6,106.93Z" fill="#263238"/>
        <g id="Grupo_2038" data-name="Grupo 2038" opacity="0.3">
          <path id="Trazado_2495" data-name="Trazado 2495" d="M247.82,83.59a5.19,5.19,0,0,0-3.58-3.44,4,4,0,0,0-3.86,1.34l.05-.09a7,7,0,0,0,.13,9.38,4.31,4.31,0,0,0,3.82,1.49c1.67-.33,2.76-2,3.3-3.59a8.14,8.14,0,0,0,.14-5.09Z"/>
        </g>
        <path id="Trazado_2496" data-name="Trazado 2496" d="M241.24,90.22a2.967,2.967,0,0,1-.87-1.18,6.68,6.68,0,0,1,.58-6.82c.54-.74,1-1.06,1.06-1s-.31.47-.75,1.22a7.42,7.42,0,0,0-.55,6.47,12,12,0,0,1,.53,1.31Z" fill="#fff"/>
        <g id="Grupo_2039" data-name="Grupo 2039" opacity="0.3">
          <path id="Trazado_2497" data-name="Trazado 2497" d="M221.47,94.17a3.17,3.17,0,0,0-2.71-1.4,2.43,2.43,0,0,0-2,1.45v-.06a4.33,4.33,0,0,0,1.71,5.52,2.65,2.65,0,0,0,2.51.21,3,3,0,0,0,1.32-2.69,5,5,0,0,0-.83-3.03Z"/>
        </g>
        <path id="Trazado_2498" data-name="Trazado 2498" d="M218.81,99.2a1.865,1.865,0,0,1-.77-.5,4,4,0,0,1-1-2,3.9,3.9,0,0,1,.18-2.22c.21-.54.45-.8.51-.77a8.37,8.37,0,0,0-.18,2.88,8.56,8.56,0,0,0,1.26,2.61Z" fill="#fff"/>
        <g id="Grupo_2040" data-name="Grupo 2040" opacity="0.3">
          <path id="Trazado_2499" data-name="Trazado 2499" d="M274.22,88.85a3.2,3.2,0,0,0-2-2.3,2.42,2.42,0,0,0-2.43.61h0a4.34,4.34,0,0,0-.42,5.76A2.68,2.68,0,0,0,271.64,94a3.08,3.08,0,0,0,2.22-2,5,5,0,0,0,.36-3.15Z"/>
        </g>
        <path id="Trazado_2500" data-name="Trazado 2500" d="M269.74,92.64c-.06,0-.31-.23-.54-.75a4.131,4.131,0,0,1-.24-2.22,4,4,0,0,1,1-2c.39-.42.72-.57.76-.52a8.27,8.27,0,0,0-1.23,2.61A8.53,8.53,0,0,0,269.74,92.64Z" fill="#fff"/>
        <g id="Grupo_2041" data-name="Grupo 2041" opacity="0.3">
          <path id="Trazado_2501" data-name="Trazado 2501" d="M208.71,105.48a2.27,2.27,0,0,0-2.08-.58,1.73,1.73,0,0,0-1.21,1.31h0a3.08,3.08,0,0,0,2,3.58,1.91,1.91,0,0,0,1.77-.22,2.17,2.17,0,0,0,.52-2.06A3.45,3.45,0,0,0,208.71,105.48Z"/>
        </g>
        <path id="Trazado_2502" data-name="Trazado 2502" d="M207.54,109.47c0,.06-.29,0-.65-.2a2.75,2.75,0,0,1-1-1.22,2.69,2.69,0,0,1-.18-1.6c.08-.41.23-.63.29-.61a5.793,5.793,0,0,0,.37,2C206.82,108.84,207.61,109.34,207.54,109.47Z" fill="#fff"/>
        <g id="Grupo_2042" data-name="Grupo 2042" opacity="0.3">
          <path id="Trazado_2503" data-name="Trazado 2503" d="M287.44,98.47a2.25,2.25,0,0,0-.63-2.07,1.72,1.72,0,0,0-1.76-.31h0a3.08,3.08,0,0,0-1.94,3.61,1.89,1.89,0,0,0,1.14,1.38,2.19,2.19,0,0,0,2-.67,3.52,3.52,0,0,0,1.19-1.94Z"/>
        </g>
        <path id="Trazado_2504" data-name="Trazado 2504" d="M283.45,99.62c-.07,0-.18-.23-.18-.65A2.77,2.77,0,0,1,285,96.42c.39-.15.65-.14.67-.07a6.044,6.044,0,0,0-1.49,1.38C283.57,98.65,283.6,99.61,283.45,99.62Z" fill="#fff"/>
        <path id="Trazado_2505" data-name="Trazado 2505" d="M190.05,100.42a41.781,41.781,0,0,1-6.38-1.55,41.338,41.338,0,0,1-6.23-2.06,41.221,41.221,0,0,1,6.37,1.56,41.081,41.081,0,0,1,6.24,2.05Z" fill="#263238"/>
        <path id="Trazado_2506" data-name="Trazado 2506" d="M202.05,80a89.758,89.758,0,0,1-5.8-7.77,87.72,87.72,0,0,1-5.38-8.07,92.259,92.259,0,0,1,5.8,7.77A87.709,87.709,0,0,1,202.05,80Z" fill="#263238"/>
        <path id="Trazado_2507" data-name="Trazado 2507" d="M226.16,68.76c-.14,0-1.12-5.31-2.19-11.9s-1.82-12-1.68-12,1.12,5.3,2.19,11.89S226.3,68.73,226.16,68.76Z" fill="#263238"/>
        <path id="Trazado_2508" data-name="Trazado 2508" d="M265.11,35.74a5.74,5.74,0,0,1,0,1.19c0,.77-.11,1.87-.23,3.23-.23,2.73-.64,6.49-1.25,10.62s-1.29,7.85-1.85,10.52c-.27,1.34-.52,2.42-.7,3.17a4.561,4.561,0,0,1-.34,1.14,5.919,5.919,0,0,1,.14-1.18c.15-.87.33-1.93.54-3.19.47-2.7,1.09-6.42,1.7-10.54s1.07-7.86,1.4-10.58q.23-1.9.39-3.21a5,5,0,0,1,.2-1.17Z" fill="#263238"/>
        <path id="Trazado_2509" data-name="Trazado 2509" d="M294.64,59.59a76.793,76.793,0,0,1-5.41,7.18,77.527,77.527,0,0,1-5.83,6.85,78.088,78.088,0,0,1,5.42-7.18,78.309,78.309,0,0,1,5.82-6.85Z" fill="#263238"/>
        <path id="Trazado_2510" data-name="Trazado 2510" d="M312.25,91.06a53.068,53.068,0,0,1-7.51,1,55.711,55.711,0,0,1-7.57.48,55.9,55.9,0,0,1,7.52-1,56.632,56.632,0,0,1,7.56-.48Z" fill="#263238"/>
        <path id="Trazado_2511" data-name="Trazado 2511" d="M383.36,310.36s-8.84.67-8.27,4.21,4.85,5.52,10.09,4.73l4.67-5.78Z" fill="#eb996e"/>
        <path id="Trazado_2512" data-name="Trazado 2512" d="M372.08,352l10.3,42.7,32.09-48,23,7.2s-45.42,103.39-56.4,101.67-20-2.45-25.44-14-18.4-54.21-18.4-54.21l-3.92-18.88L370.85,352" fill="#ffbe9d"/>
        <path id="Trazado_2513" data-name="Trazado 2513" d="M367.67,292.55s40.71,6.16,42.36,7.34,30.06,30.3,30.3,38.58a40.27,40.27,0,0,1-2.84,15.39L415,348.65l-10.41-12.78s-8.52.23-10.65-1.19-4.5-5-4-6.86c0,0-6.39-.24-4.73-8.52,0,0-7.34-4.5-2.37-8.52s14.2-5.45,14.2-5.45-25.08-3.78-27.92-6.62a5.78,5.78,0,0,1-1.45-6.16Z" fill="#ffbe9d"/>
        <path id="Trazado_2514" data-name="Trazado 2514" d="M399.71,313.89c0,.16-3.33.68-7.22,2.15s-6.77,3.25-6.85,3.11a7.67,7.67,0,0,1,1.82-1.28,30.449,30.449,0,0,1,4.85-2.32,30,30,0,0,1,5.18-1.44A7.481,7.481,0,0,1,399.71,313.89Z" fill="#eb996e"/>
        <path id="Trazado_2515" data-name="Trazado 2515" d="M403.28,324.2c0,.15-2.95.58-6.51,1.52s-6.37,2-6.43,1.86a6.729,6.729,0,0,1,1.77-.88,37.72,37.72,0,0,1,9.2-2.4A6.481,6.481,0,0,1,403.28,324.2Z" fill="#eb996e"/>
        <path id="Trazado_2516" data-name="Trazado 2516" d="M423.19,352.25a25.46,25.46,0,0,1-4.57-2.14,24.352,24.352,0,0,1-4.33-2.6,24.65,24.65,0,0,1,4.57,2.14,24.352,24.352,0,0,1,4.33,2.6Z" fill="#eb996e"/>
        <path id="Trazado_2517" data-name="Trazado 2517" d="M381.41,415.05a96.628,96.628,0,0,1,.36-10.26,98.27,98.27,0,0,1,.88-10.23,96.671,96.671,0,0,1-.36,10.26C381.93,410.48,381.55,415.06,381.41,415.05Z" fill="#eb996e"/>
        <path id="Trazado_2518" data-name="Trazado 2518" d="M328,275.73c-3.58-5.16-8.25-9.61-10.9-15.3a49.5,49.5,0,0,1-3.29-11.82l-18.09-95L200.49,143.3a177.71,177.71,0,0,0-22.29,84c-.16,15.15.94,32.26-9.49,43.25-4.4,4.64-10.77,8-12.47,14.22-1.45,5.26,1.08,10.86.41,16.28-.78,6.36-5.71,11.26-9.23,16.61a42,42,0,0,0-6.74,26.21c.36,4.4,1.76,9.23,5.59,11.43,2.37,1.36,5.23,1.44,8,1.49,59.76,1.13,120.16,2.2,178.55-10.54,2.4-11.89,4.81-23.87,4.79-36S334.9,285.69,328,275.73Z" fill="#263238"/>
        <path id="Trazado_2519" data-name="Trazado 2519" d="M184.16,361.69s-.1-.13-.27-.39-.42-.68-.74-1.18a39.931,39.931,0,0,1-2.4-4.76,41.7,41.7,0,0,1-2.39-8.1,42.479,42.479,0,0,1-.55-11.17A40.051,40.051,0,0,1,181.28,323c2-4.45,4.95-8.82,6.81-13.94a26,26,0,0,0,1.06-4,22.249,22.249,0,0,0,.3-4.18,35.781,35.781,0,0,0-1.49-8.56c-.79-2.85-1.78-5.72-2.61-8.7a40,40,0,0,1-1.57-9.25c-.26-6.38,1-12.52,2.42-18.3s3.1-11.29,4.23-16.64a164.31,164.31,0,0,0,3.62-28.78,167.734,167.734,0,0,0-.47-19.57c-.2-2.3-.37-4.09-.52-5.3-.06-.59-.11-1.05-.14-1.38a1.784,1.784,0,0,1,0-.47,4,4,0,0,1,.08.46c.05.33.11.79.2,1.37.18,1.21.38,3,.61,5.3a157.5,157.5,0,0,1,.64,19.61,161.752,161.752,0,0,1-3.52,28.87c-1.12,5.36-2.75,10.89-4.2,16.66s-2.66,11.85-2.4,18.14,2.56,12.11,4.16,17.85A36.311,36.311,0,0,1,190,300.9a22.612,22.612,0,0,1-.32,4.28,25.549,25.549,0,0,1-1.09,4c-1.9,5.2-4.85,9.55-6.87,14a40,40,0,0,0-3.5,12.94,42,42,0,0,0,.48,11.08,43,43,0,0,0,2.28,8.08,45.25,45.25,0,0,0,2.31,4.79q.45.76.69,1.2C184.09,361.54,184.16,361.69,184.16,361.69Z" fill="#455a64"/>
        <path id="Trazado_2520" data-name="Trazado 2520" d="M260.21,109.89c-18.16-.58-35.77,3.53-48.72,16.27-11.88,11.7-17.17,22.55-18.14,39.7-.33,5.88,2.19,18.83,4.57,24.21s9,19,14.51,21,8.2-7.42,12-11.88c2.35-2.72,3.41-6.3,4.45-9.74,4.39-14.56,9.7-29.11,18.79-41.31s22.47-21.88,37.6-23.48l9.66-.22C282.64,112.52,272.19,110.28,260.21,109.89Z" fill="#455a64"/>
        <path id="Trazado_2521" data-name="Trazado 2521" d="M275.25,129.06l-49.36,18.46a9.62,9.62,0,0,0-7.48,10.65L235.6,268.41a34.56,34.56,0,0,0,10.31,19.72l5.8,5.54c13.23,12.63,35.47,7.82,41.54-9.44a12.8,12.8,0,0,0,.74-3.06,23.59,23.59,0,0,0,.1-2.57,80.811,80.811,0,0,0-1.62-16.84c-1-9.89-1.43-13.95-1.42-13.86s20.47-5.77,21.78-33.45c.65-13.77-2.49-35.88-5.64-53.88C304.35,144.36,291.32,125.54,275.25,129.06Z" fill="#ffbe9d"/>
        <path id="Trazado_2522" data-name="Trazado 2522" d="M299.21,180.39a3.51,3.51,0,0,1-3,3.89,3.36,3.36,0,0,1-3.95-2.75,3.52,3.52,0,0,1,3-3.89,3.35,3.35,0,0,1,3.95,2.75Z" fill="#263238"/>
        <path id="Trazado_2523" data-name="Trazado 2523" d="M304.6,172.64c-.39.5-3.25-1.16-7-.73s-6.3,2.61-6.75,2.19c-.23-.18.12-1,1.22-2.06a9.68,9.68,0,0,1,5.35-2.32,9.26,9.26,0,0,1,5.63,1.16C304.3,171.63,304.79,172.41,304.6,172.64Z" fill="#263238"/>
        <path id="Trazado_2524" data-name="Trazado 2524" d="M263.78,183.76a3.51,3.51,0,0,1-3,3.89,3.36,3.36,0,0,1-3.95-2.75,3.51,3.51,0,0,1,3-3.89,3.36,3.36,0,0,1,3.95,2.75Z" fill="#263238"/>
        <path id="Trazado_2525" data-name="Trazado 2525" d="M266.83,176.14c-.38.51-3.25-1.16-7-.73s-6.29,2.61-6.75,2.19c-.22-.18.12-1,1.23-2.06a9.61,9.61,0,0,1,5.34-2.32,9.3,9.3,0,0,1,5.64,1.16C266.53,175.14,267,175.92,266.83,176.14Z" fill="#263238"/>
        <path id="Trazado_2526" data-name="Trazado 2526" d="M283.54,203.76c0-.21,2.25-.87,6-1.77.94-.21,1.83-.5,1.92-1.17a4.89,4.89,0,0,0-1-2.77c-1.15-2.22-2.37-4.55-3.64-7-5.09-9.95-8.89-18.19-8.48-18.39s4.85,7.71,9.94,17.67l3.53,7c.48,1.05,1.24,2.22.91,3.71a2.41,2.41,0,0,1-1.42,1.57,6.281,6.281,0,0,1-1.6.41C285.94,203.7,283.58,204,283.54,203.76Z" fill="#263238"/>
        <path id="Trazado_2527" data-name="Trazado 2527" d="M291.05,247.9a69.62,69.62,0,0,1-37.51-5.68s11.25,17.82,38.2,12.26Z" fill="#eb996e"/>
        <path id="Trazado_2528" data-name="Trazado 2528" d="M283,213a6.77,6.77,0,0,0-6.34-1.84,6.17,6.17,0,0,0-4,2.76,4,4,0,0,0,.2,4.51c1.17,1.31,3.32,1.4,5.06.69a14.25,14.25,0,0,0,4.48-3.39,4.32,4.32,0,0,0,1-1.23,1.28,1.28,0,0,0-.16-1.4" fill="#eb996e"/>
        <path id="Trazado_2529" data-name="Trazado 2529" d="M272.78,207.58c.61-.1,1.06,4,4.87,6.48s8.1,1.58,8.19,2.15c.09.24-.88.89-2.7,1.15a10.25,10.25,0,0,1-6.82-1.56,8.9,8.9,0,0,1-3.82-5.46C272.15,208.65,272.5,207.59,272.78,207.58Z" fill="#263238"/>
        <path id="Trazado_2530" data-name="Trazado 2530" d="M266.57,158.34c-.44,1-4.17.24-8.63.45s-8.12,1.16-8.64.2c-.23-.46.46-1.38,2-2.26a15,15,0,0,1,13.16-.5C266,157,266.77,157.86,266.57,158.34Z" fill="#263238"/>
        <path id="Trazado_2531" data-name="Trazado 2531" d="M287.09,163.72c.7-.95,4-.49,7.84-1s7-1.51,7.86-.72c.39.39,0,1.31-1.32,2.3a12.82,12.82,0,0,1-6.18,2.24,12.69,12.69,0,0,1-6.47-.88C287.35,165,286.78,164.19,287.09,163.72Z" fill="#263238"/>
        <path id="Trazado_2532" data-name="Trazado 2532" d="M231.17,202.89c-.23-2-3.1-6.54-5.14-6.63-5.44-.24-15,1.26-13.6,14.84,1.93,18.56,20.16,12.79,20.14,12.25S232,209.89,231.17,202.89Z" fill="#ffbe9d"/>
        <path id="Trazado_2533" data-name="Trazado 2533" d="M226.17,216.91c-.09,0-.3.26-.82.57a3.26,3.26,0,0,1-2.41.3c-2-.52-4-3.46-4.45-6.79a10.66,10.66,0,0,1,.42-4.73,3.78,3.78,0,0,1,2.18-2.73,1.67,1.67,0,0,1,2,.68c.3.5.22.88.32.9s.37-.35.14-1.1a2.12,2.12,0,0,0-.85-1.09,2.47,2.47,0,0,0-1.84-.28c-1.42.24-2.57,1.69-3.08,3.22a11.13,11.13,0,0,0-.58,5.3c.51,3.72,2.79,7,5.55,7.52a3.5,3.5,0,0,0,2.91-.8C226.18,217.36,226.24,216.94,226.17,216.91Z" fill="#eb996e"/>
        <path id="Trazado_2534" data-name="Trazado 2534" d="M295,123.81c-6.44-5.82-14.85-9.11-23.39-10.69a57,57,0,0,0-22.35.15h0c-16.56,1-36.46,25.61-39.41,41.93-1.41,7.78-.31,15.79,1.11,23.57.72,4,1.55,8,3.5,11.49s5.2,6.53,9.15,7.25,8.51-1.44,9.69-5.29c.89-2.88-.16-6.09.67-9,1.9-6.64,11.86-7.65,14.73-13.94,2.07-4.53-.34-10.24,1.94-14.67s7.77-5.46,12.22-7.47a25.58,25.58,0,0,0,14.26-18.41h.37c18.09-.56,26.24,18.51,28.95,26.3A36.26,36.26,0,0,0,295,123.81Z" fill="#263238"/>
        <path id="Trazado_2535" data-name="Trazado 2535" d="M220.07,134.72a2.119,2.119,0,0,1,.58,0l1.65.2c.72.1,1.6.2,2.62.29s2.18.23,3.47.3c2.57.21,5.65.3,9.06.29s7.16-.23,11.08-.62,7.62-1,11-1.68,6.33-1.43,8.8-2.17c1.25-.33,2.36-.7,3.33-1s1.82-.58,2.5-.83l1.58-.53a2.27,2.27,0,0,1,.56-.16,2.17,2.17,0,0,1-.52.25l-1.55.63c-.67.28-1.5.59-2.47.92s-2.08.73-3.32,1.09c-2.47.78-5.47,1.54-8.82,2.28a104.221,104.221,0,0,1-11,1.73,107.929,107.929,0,0,1-11.13.58,86.673,86.673,0,0,1-9.09-.4c-1.29-.09-2.45-.25-3.47-.38s-1.9-.25-2.61-.38l-1.65-.3a3.339,3.339,0,0,1-.6-.11Z" fill="#455a64"/>
        <path id="Trazado_2536" data-name="Trazado 2536" d="M212.89,145.63a3.59,3.59,0,0,1,.69.13l2,.46,1.42.34c.52.12,1.09.2,1.7.31,1.23.19,2.61.51,4.17.63l2.43.26c.85.1,1.74.08,2.66.13,1.83.13,3.79,0,5.85,0A70.259,70.259,0,0,0,247,145.77,72.31,72.31,0,0,0,259.54,141l2.68-1.4c.87-.43,1.65-1,2.45-1.44a21.477,21.477,0,0,0,2.25-1.4l2-1.4c1.31-.85,2.37-1.79,3.36-2.55.48-.38.95-.73,1.35-1.08l1.08-1,1.52-1.33a4.251,4.251,0,0,1,.55-.44,2.91,2.91,0,0,1-.48.51L274.87,131l-1.06,1c-.39.36-.85.72-1.33,1.12-1,.78-2,1.74-3.33,2.62l-2,1.43c-.69.51-1.48.94-2.26,1.44s-1.57,1-2.45,1.47l-2.68,1.43a71,71,0,0,1-12.62,4.81,69,69,0,0,1-13.34,2.06,57.778,57.778,0,0,1-5.9,0,22.94,22.94,0,0,1-2.67-.16l-2.45-.29c-1.57-.14-2.95-.5-4.18-.72-.61-.12-1.18-.21-1.7-.35l-1.4-.39-1.95-.55a3.53,3.53,0,0,1-.66-.29Z" fill="#455a64"/>
        <path id="Trazado_2537" data-name="Trazado 2537" d="M229.3,228v.26a3.371,3.371,0,0,1-.07.75,4.29,4.29,0,0,1-1.44,2.31,6.18,6.18,0,0,1-3.78,1.47,5.61,5.61,0,0,1-4.48-2.06,6,6,0,0,1-1.42-4.74,6.59,6.59,0,0,1,1.86-3.6,6.52,6.52,0,0,1,2.28-1.51,2.67,2.67,0,0,1,1-.23,8.81,8.81,0,0,0-3,2,6.43,6.43,0,0,0-1.64,3.42A5.55,5.55,0,0,0,220,230.4a5.19,5.19,0,0,0,4.07,1.92,6,6,0,0,0,3.56-1.27,4.4,4.4,0,0,0,1.49-2.08A8.311,8.311,0,0,1,229.3,228Z" fill="#e0e0e0"/>
        <path id="Trazado_2538" data-name="Trazado 2538" d="M274.38,203.94c0,.16-1.9.67-4,1.92s-3.48,2.67-3.59,2.56a11.25,11.25,0,0,1,7.58-4.48Z" fill="#eb996e"/>
        <path id="Trazado_2539" data-name="Trazado 2539" d="M222.48,271.27l12.66-4.53L293,264.55l19.92,5.81s-25.32,32.37-47.29,30.14S222.48,271.27,222.48,271.27Z" fill="#ffbe9d"/>
        <path id="Trazado_2540" data-name="Trazado 2540" d="M346.49,284.06l-3.86,18.21-9.3,74.42s32.69-3.88,43.16-22.48v-3.1S355.14,286.56,346.49,284.06Z" fill="#ff71d5"/>
        <path id="Trazado_2541" data-name="Trazado 2541" d="M346.49,284.06l-35.26-15.89s-7.36,14.72-37.59,19-52.45-17-52.45-17-10.86,5.42-26.36,11.23l2.07,93.37,6.2,19.38s-5.42,27.13-7.36,35.27S199.23,441,199.23,441l-2.72,27H347.28L338,414.67Z" fill="#ff71d5"/>
        <path id="Trazado_2542" data-name="Trazado 2542" d="M194.83,281.38s-19.24,8.5-26.17,24.27c-5.9,13.43-17.49,47.39-17.49,47.39L200,376.69V310Z" fill="#ff71d5"/>
        <path id="Trazado_2543" data-name="Trazado 2543" d="M186.55,329.54c.14,0,3,11.3,6.32,25.31s5.94,25.39,5.8,25.43-3-11.3-6.31-25.31S186.41,329.57,186.55,329.54Z" fill="#263238"/>
        <path id="Trazado_2544" data-name="Trazado 2544" d="M345,314.76a.81.81,0,0,1,0,.25v.76q-.06,1.05-.15,2.88c-.16,2.54-.39,6.15-.66,10.59-.61,9-1.44,21.32-2.36,34.95s-1.87,26-2.52,34.94c-.34,4.44-.62,8-.82,10.58-.11,1.22-.19,2.18-.25,2.88a5.765,5.765,0,0,1-.08.74,1.108,1.108,0,0,1,0,.26,1,1,0,0,1,0-.26v-.75c0-.7.09-1.66.16-2.88.15-2.55.38-6.16.65-10.6.61-9,1.45-21.32,2.37-35s1.87-25.95,2.51-34.93c.35-4.44.63-8,.82-10.59.11-1.21.19-2.17.25-2.87a6.169,6.169,0,0,1,.08-.75.7.7,0,0,1,0-.2Z" fill="#263238"/>
        <path id="Trazado_2545" data-name="Trazado 2545" d="M319,271.48a1.621,1.621,0,0,1-.18.24l-.56.64c-.52.55-1.2,1.44-2.25,2.42a55,55,0,0,1-9.45,7.57c-1.06.74-2.26,1.35-3.46,2.07s-2.53,1.32-3.89,2a69.786,69.786,0,0,1-9,3.41,71.579,71.579,0,0,1-21.79,2.95,82.85,82.85,0,0,1-21.72-3.56,95.649,95.649,0,0,1-16.63-6.82,103.282,103.282,0,0,1-10.41-6.22c-1.19-.79-2.07-1.47-2.69-1.91l-.69-.51a1,1,0,0,1-.22-.19l.26.15.71.47c.64.41,1.53,1.06,2.74,1.82a112.832,112.832,0,0,0,10.47,6.06,97.818,97.818,0,0,0,16.6,6.69,83.359,83.359,0,0,0,21.59,3.5A70.28,70.28,0,0,0,299,286c1.35-.65,2.66-1.28,3.88-1.94s2.4-1.3,3.45-2a58.138,58.138,0,0,0,9.51-7.41c1.07-.95,1.77-1.82,2.31-2.34l.6-.61a1.41,1.41,0,0,1,.25-.22Z" fill="#263238"/>
        <path id="Trazado_2546" data-name="Trazado 2546" d="M195,367.91a11.419,11.419,0,0,1-1.71-.53c-1.09-.38-2.65-.95-4.57-1.68-3.85-1.46-9.13-3.59-14.88-6.12s-10.88-5-14.55-6.87c-1.84-.93-3.31-1.7-4.32-2.25a11.3,11.3,0,0,1-1.55-.9,11.513,11.513,0,0,1,1.64.72l4.39,2.1c3.71,1.77,8.86,4.19,14.6,6.72s11,4.71,14.8,6.26l4.51,1.83a12.12,12.12,0,0,1,1.64.72Z" fill="#263238"/>
        <path id="Trazado_2547" data-name="Trazado 2547" d="M376.64,351.11a9.694,9.694,0,0,1-1.14,1.1c-.76.68-1.89,1.63-3.31,2.77a97.712,97.712,0,0,1-11.81,7.95,96.586,96.586,0,0,1-12.86,6.1c-1.71.65-3.1,1.14-4.07,1.44a10.483,10.483,0,0,1-1.53.42,9.808,9.808,0,0,1,1.46-.61c.95-.36,2.32-.9,4-1.59a110,110,0,0,0,24.58-14c1.45-1.09,2.61-2,3.41-2.63A8.232,8.232,0,0,1,376.64,351.11Z" fill="#263238"/>
        <path id="Trazado_2548" data-name="Trazado 2548" d="M306.53,384.17c0,.05-.84-.51-2.48-1.17a20.09,20.09,0,0,0-7.31-1.29,31.49,31.49,0,0,0-10.8,2.18c-3.92,1.44-8.08,3.45-12.5,5.41l-22.65,10.11-6.89,3-1.89.79a3.22,3.22,0,0,1-.67.25,4.076,4.076,0,0,1,.63-.34l1.84-.88,6.83-3.16,22.58-10.25c4.43-2,8.59-4,12.56-5.39a31.32,31.32,0,0,1,11-2.1,19.43,19.43,0,0,1,7.38,1.47,15.292,15.292,0,0,1,1.81.95A4.507,4.507,0,0,1,306.53,384.17Z" fill="#263238"/>
        <g id="Grupo_2043" data-name="Grupo 2043" opacity="0.3">
          <path id="Trazado_2549" data-name="Trazado 2549" d="M242.61,402.89c9.13,5.75,21.28,5.68,31,.95s17.09-13.31,22.22-22.8C277.32,386.77,260.07,395.32,242.61,402.89Z"/>
        </g>
        <g id="Grupo_2044" data-name="Grupo 2044" opacity="0.3">
          <path id="Trazado_2550" data-name="Trazado 2550" d="M187,332c-1.91,13.72,2.2,29.85,10.18,41.17A338,338,0,0,0,186.86,332"/>
        </g>
        <path id="Trazado_2551" data-name="Trazado 2551" d="M192,352.73c-.07.13-7.84-3.69-17.37-8.53s-17.2-8.87-17.13-9,7.84,3.69,17.37,8.53S192.08,352.6,192,352.73Z" fill="#fff"/>
        <path id="Trazado_2552" data-name="Trazado 2552" d="M186.55,327.48c-.07.12-5-2.59-11-6.06s-10.77-6.38-10.7-6.5,5,2.58,11,6.05S186.63,327.35,186.55,327.48Z" fill="#fff"/>
        <path id="Trazado_2553" data-name="Trazado 2553" d="M359.07,303.81a2.009,2.009,0,0,0-.48.09l-1.41.21-5.43.75c-2.36.33-5.25.71-8.61,1.08s-7.19.86-11.43,1.24l-6.65.65c-2.32.22-4.73.39-7.23.6-5,.43-10.33.74-15.95,1.09-11.25.61-23.63,1-36.62,1.09s-25.39-.33-36.64-.87c-5.63-.32-11-.6-16-1-2.5-.19-4.91-.35-7.23-.56l-6.66-.6c-4.24-.36-8.07-.82-11.43-1.18s-6.26-.72-8.62-1l-5.44-.72-1.41-.2-.48-.09h.49l1.42.15,5.44.62c2.37.28,5.26.61,8.63.94s7.19.76,11.44,1.1l6.65.57c2.32.2,4.73.34,7.23.53,5,.38,10.33.64,15.95.95,11.25.51,23.62.85,36.61.83s25.36-.47,36.6-1c5.62-.34,11-.63,15.95-1,2.49-.2,4.91-.36,7.22-.57l6.65-.61c4.25-.36,8.07-.82,11.43-1.17s6.26-.7,8.62-1l5.45-.66,1.42-.15Z" fill="#fff"/>
        <path id="Trazado_2554" data-name="Trazado 2554" d="M341.7,343.54c0,.14-33.69.26-75.25.26s-75.25-.12-75.25-.26,33.69-.27,75.25-.27S341.7,343.39,341.7,343.54Z" fill="#fff"/>
        <path id="Trazado_2555" data-name="Trazado 2555" d="M285.23,382.29c0,.14-18.83.26-42.06.26s-42-.12-42-.26,18.82-.26,42-.26S285.23,382.14,285.23,382.29Z" fill="#fff"/>
        <path id="Trazado_2556" data-name="Trazado 2556" d="M340.07,382.59c0,.14-7.77.26-17.36.26s-17.36-.12-17.36-.26,7.77-.26,17.36-.26S340.07,382.44,340.07,382.59Z" fill="#fff"/>
        <path id="Trazado_2557" data-name="Trazado 2557" d="M337.79,415c0,.14-30.93.26-69.08.26s-69.1-.12-69.1-.26,30.93-.26,69.1-.26S337.79,414.89,337.79,415Z" fill="#fff"/>
        <path id="Trazado_2558" data-name="Trazado 2558" d="M343.8,453.48c0,.14-32.14.26-71.79.26s-71.8-.12-71.8-.26,32.14-.26,71.8-.26S343.8,453.34,343.8,453.48Z" fill="#fff"/>
        <path id="Trazado_2559" data-name="Trazado 2559" d="M364.84,322.3a4,4,0,0,1-.76.71c-.5.44-1.25,1.05-2.18,1.79-1.86,1.48-4.49,3.47-7.47,5.56s-5.74,3.88-7.77,5.12c-1,.63-1.85,1.12-2.43,1.45a4.27,4.27,0,0,1-.93.46,4.1,4.1,0,0,1,.82-.64l2.34-1.58c2-1.32,4.7-3.16,7.67-5.24s5.63-4,7.55-5.42l2.28-1.66a3.64,3.64,0,0,1,.88-.55Z" fill="#fff"/>
        <path id="Trazado_2560" data-name="Trazado 2560" d="M374.59,342.11a7.563,7.563,0,0,1-1.19.94c-.78.58-1.93,1.39-3.36,2.38-2.86,2-6.88,4.61-11.4,7.38s-8.71,5.13-11.77,6.78c-1.53.82-2.78,1.47-3.65,1.91a9.079,9.079,0,0,1-1.38.63,7.429,7.429,0,0,1,1.28-.81l3.57-2.05c3-1.73,7.15-4.14,11.68-6.91s8.55-5.35,11.47-7.24l3.45-2.24a9,9,0,0,1,1.3-.77Z" fill="#fff"/>
        <path id="Trazado_2561" data-name="Trazado 2561" d="M159.14,356.9l-12.23,51.57L122.1,357.31h-26s10.7,54.76,30.27,85.76c15.07,23.88,28.81,24.61,37.72,21.24s17.67-15.87,25.81-45.74c4.73-17.37,7.7-30.48,8.74-38.29.19-1.4-1.77-5.53-1.77-5.53Z" fill="#ffbe9d"/>
        <path id="Trazado_2562" data-name="Trazado 2562" d="M158.54,322.46s10.12-.76,10.12,4.46-14.21,5.86-14.21,5.86l-2-7.31Z" fill="#eb996e"/>
        <path id="Trazado_2563" data-name="Trazado 2563" d="M96.13,357.31s0-14.73,4.65-20.93c3.76-5,24.11-20.72,31.82-26.59a9.51,9.51,0,0,1,6.65-1.91l41.67,3.78s.77,5.42-3.1,6.2-20.06.69-20.06.69,1.66,6.51.87,9.28-4.36,4.48-4.36,4.48,2.18,3.84-4.41,8.49c0,0,.54,7.79-6.83,8a49.056,49.056,0,0,1-7-.39s-12,8.53-14,8.92S96.13,357.31,96.13,357.31Z" fill="#ffbe9d"/>
        <path id="Trazado_2564" data-name="Trazado 2564" d="M111,359.93a31.448,31.448,0,0,1,5.47-1.48,31.2,31.2,0,0,1,5.58-1,30.6,30.6,0,0,1-5.47,1.49,30.6,30.6,0,0,1-5.58.99Z" fill="#eb996e"/>
        <path id="Trazado_2565" data-name="Trazado 2565" d="M139.72,334.56A23.69,23.69,0,0,1,145,337.3a24,24,0,0,1,4.77,3.59c-.09.12-2.27-1.4-5.05-3.14A54.566,54.566,0,0,1,139.72,334.56Z" fill="#eb996e"/>
        <path id="Trazado_2566" data-name="Trazado 2566" d="M154.45,332c-.1.12-2.11-1.71-4.91-3.49s-5.28-2.87-5.22-3a17.46,17.46,0,0,1,5.51,2.57,17.231,17.231,0,0,1,4.62,3.92Z" fill="#eb996e"/>
        <path id="Trazado_2567" data-name="Trazado 2567" d="M147.07,316.53a28.418,28.418,0,0,1,5.38.72,28.2,28.2,0,0,1,5.29,1.22,27.134,27.134,0,0,1-5.38-.71,28.915,28.915,0,0,1-5.29-1.23Z" fill="#eb996e"/>
        <path id="Trazado_2568" data-name="Trazado 2568" d="M157.74,425.07a101,101,0,0,1-5.9-8.35,99.34,99.34,0,0,1-5.46-8.63,101.14,101.14,0,0,1,5.89,8.34,100.242,100.242,0,0,1,5.47,8.64Z" fill="#eb996e"/>
      </g>
      <g id="freepik--speech-bubble--inject-78">
        <path id="Trazado_2569" data-name="Trazado 2569" d="M144,190.78a46.5,46.5,0,0,1-93,0c0-25.68,20.81-47.17,46.49-47.17S144,165.1,144,190.78Z" fill="#fff"/>
        <path id="Trazado_2570" data-name="Trazado 2570" d="M89.21,186h3l6.49-9v-4a1.42,1.42,0,0,1,2.3-1c1,1,1.95,2.82,1.69,6.54-.54,7.78,0,5.8,0,5.8s9.76,0,10.58.88c.59.62.85,10.31,1,15.57a5.69,5.69,0,0,1-4,5.74,4.21,4.21,0,0,1-1,.14c-2.44,0-14.88-2-14.88-2H89.21Z" fill="#455a64"/>
        <path id="Trazado_2571" data-name="Trazado 2571" d="M80.69,184.35v20.66l6.92-.31V184.76Z" fill="#455a64"/>
        <path id="Trazado_2572" data-name="Trazado 2572" d="M155.72,202.69a7.168,7.168,0,0,0-1.07.9,6.17,6.17,0,0,0-1.66,3.3,5.82,5.82,0,0,0,.12,2.54,5.07,5.07,0,0,0,1.56,2.43A5.56,5.56,0,0,0,164,207.3a5.09,5.09,0,0,0-.95-2.73,5.77,5.77,0,0,0-1.93-1.66,6,6,0,0,0-3.63-.72c-.89.11-1.34.33-1.36.29s.1-.08.32-.17a1.689,1.689,0,0,1,.42-.15,3,3,0,0,1,.6-.14,6.26,6.26,0,0,1,5.87,2.34,5.45,5.45,0,0,1,1.06,2.91,6.37,6.37,0,0,1-.71,3.35,5.86,5.86,0,0,1-2.6,2.61,5.94,5.94,0,0,1-3.65.44,6.31,6.31,0,0,1-3.07-1.51,5.37,5.37,0,0,1-1.64-2.63,5.92,5.92,0,0,1-.08-2.7,6.07,6.07,0,0,1,1.85-3.36,3.709,3.709,0,0,1,.47-.39,2.4,2.4,0,0,1,.38-.23,1.33,1.33,0,0,1,.37-.16Z" fill="#263238"/>
        <path id="Trazado_2573" data-name="Trazado 2573" d="M142,176s-.1-.23-.29-.7l-.82-2.06-.6-1.53c-.24-.55-.56-1.12-.88-1.76l-1.05-2a6.83,6.83,0,0,0-.64-1.1c-.23-.37-.48-.75-.73-1.14a44.3,44.3,0,0,0-8.77-10.18,46.39,46.39,0,0,0-15.37-8.88l-2.38-.8c-.81-.22-1.65-.4-2.49-.6l-1.28-.29a8,8,0,0,0-1.29-.25l-2.66-.35-1.35-.17h-1.37L97.19,144c-.93,0-1.88.11-2.83.16l-1.44.09H92.2l-.72.12a43,43,0,0,0-5.8,1.19c-1,.28-2,.5-2.92.83l-2.88,1.11a15.444,15.444,0,0,0-1.44.58L77,148.8c-.93.48-1.89.93-2.81,1.45a49.42,49.42,0,0,0-5.33,3.66l-1.29,1c-.22.17-.44.34-.65.52l-.59.57L64,158.34c-.77.81-1.47,1.69-2.21,2.54-.36.44-.76.84-1.09,1.31l-1,1.4a52.409,52.409,0,0,0-3.62,5.91c-.48,1.06-.95,2.13-1.44,3.21l-.36.8c-.1.28-.19.56-.28.84L53.4,176l-.57,1.69-.42,1.75L52,181.23l-.2.88a6.969,6.969,0,0,1-.13.9l-.48,3.61c0,1.21-.08,2.44-.13,3.66a46.15,46.15,0,0,0,9.14,27.9l2.27,2.88L65,223.69l.63.65.69.58,1.37,1.18L69,227.26l1.47,1,1.45,1,.73.51.77.43,3.1,1.8a51.048,51.048,0,0,0,6.41,2.62l1.62.55c.54.19,1.1.28,1.65.42,1.1.24,2.19.54,3.29.74l3.31.44.82.11h.83l1.64.05a47.778,47.778,0,0,0,6.46-.2c1.06-.12,2.1-.33,3.13-.49l1.55-.26c.52-.09,1-.26,1.51-.39l3-.8c1-.31,1.9-.71,2.84-1.06a42.558,42.558,0,0,0,5.38-2.48l.65-.33c.22-.12.41-.25.62-.38l1.21-.78c.8-.52,1.63-1,2.38-1.55l2.19-1.72,1.08-.85,1-.94,1.93-1.85a8.211,8.211,0,0,0,.9-1l.85-1c.56-.66,1.14-1.29,1.66-2l1.45-2.05A46.32,46.32,0,0,0,143,200.66c.15-.64.31-1.26.44-1.88s.17-1.25.25-1.86.16-1.2.24-1.78c0-.29.09-.58.11-.86v-.86c0-1.12.08-2.2.12-3.23s-.1-2-.14-2.93l-.08-1.34a8.66,8.66,0,0,0-.14-1.27c-.13-.81-.25-1.57-.37-2.27s-.2-1.36-.33-1.95-.29-1.11-.42-1.58c-.24-.94-.43-1.65-.56-2.15a2.729,2.729,0,0,1-.12-.7s.08.25.22.73.34,1.21.61,2.14l.44,1.58c.13.59.22,1.24.35,2l.39,2.27a8.662,8.662,0,0,1,.14,1.27c0,.44.07.89.1,1.35,0,.93.16,1.91.16,2.94s-.07,2.11-.1,3.25v.85a8.583,8.583,0,0,1-.1.87l-.24,1.8c-.08.6-.16,1.23-.24,1.86s-.28,1.25-.43,1.9a46.65,46.65,0,0,1-7.12,16.37l-1.45,2.07c-.53.66-1.1,1.3-1.66,2l-.86,1a9.25,9.25,0,0,1-.9,1L129.29,225c-.33.31-.66.64-1,.94l-1.08.86L125,228.52c-.76.57-1.59,1-2.39,1.57l-1.22.79-.62.38-.65.33a42.5,42.5,0,0,1-5.42,2.51c-1,.35-1.89.77-2.87,1.07l-3,.82c-.5.13-1,.3-1.52.4l-1.56.26c-1,.16-2.09.38-3.16.5a50.239,50.239,0,0,1-6.51.21l-1.66-.05h-.83l-.83-.11-3.34-.44c-1.11-.2-2.21-.5-3.32-.75-.55-.14-1.12-.23-1.66-.41L82.8,235a53.563,53.563,0,0,1-6.47-2.64l-3.09-1.76-.78-.44-.73-.51-1.47-1-1.48-1-1.38-1.18L66,225.24l-.69-.59-.64-.66-2.54-2.65c-.77-1-1.53-1.93-2.3-2.91a46.52,46.52,0,0,1-9.22-28.15c0-1.24.09-2.47.13-3.7s.33-2.43.49-3.64a5.7,5.7,0,0,1,.13-.91l.2-.88.42-1.78.42-1.76.6-1.71.58-1.7.29-.84.37-.82c.48-1.08,1-2.16,1.45-3.23a53.289,53.289,0,0,1,3.65-6l1-1.41c.32-.47.73-.88,1.09-1.32.75-.86,1.46-1.75,2.24-2.57l2.43-2.33.6-.58c.21-.18.43-.34.65-.52l1.3-1A49.75,49.75,0,0,1,74,149.92c.93-.54,1.91-1,2.84-1.47l1.42-.71c.47-.23,1-.39,1.46-.58l2.9-1.12c1-.33,2-.55,2.94-.83A43.749,43.749,0,0,1,91.44,144l.72-.12h.73l1.44-.1c1,0,1.92-.15,2.86-.15l2.81.1h1.38c.46.05.91.12,1.36.18l2.68.36a8.28,8.28,0,0,1,1.3.25l1.28.3c.84.21,1.69.38,2.51.61l2.39.81a46.63,46.63,0,0,1,15.43,9,44.34,44.34,0,0,1,8.75,10.28l.73,1.15a8.16,8.16,0,0,1,.63,1.1l1,2.07c.32.64.63,1.23.87,1.78s.41,1.08.58,1.53l.78,2.09C141.87,175.72,142,176,142,176Z" fill="#263238"/>
      </g>
    </g>
    <g id="Grupo_2046" data-name="Grupo 2046" transform="translate(606.405 -419.595)">
      <circle id="Elipse_203-2" data-name="Elipse 203" cx="50" cy="50" r="50" transform="translate(9434.595 5187.595)" fill="rgba(255,56,209,0.51)"/>
    </g>
    <g id="Grupo_2047" data-name="Grupo 2047" transform="translate(212.405 -105.595)">
      <circle id="Elipse_203-3" data-name="Elipse 203" cx="26" cy="26" r="26" transform="translate(9434.595 5187.595)" fill="rgba(255,56,222,0.51)"/>
    </g>
    <g id="Grupo_2048" data-name="Grupo 2048" transform="translate(272.74 -440.26)">
      <circle id="Elipse_203-4" data-name="Elipse 203" cx="23" cy="23" r="23" transform="translate(9435.26 5188.26)" fill="rgba(122,56,255,0.51)"/>
    </g>
    <path id="Trazado_2574" data-name="Trazado 2574" d="M9991.506,5161.766c-78.908,41.2-150.641,1.435-150.641,1.435l1.538-10.122,147.712-.485Z" fill="#ff71d5" stroke="#ff71d5" stroke-width="1"/>
  </g>
</svg>
