<svg id="Grupo_2037" data-name="Grupo 2037" xmlns="http://www.w3.org/2000/svg" width="555.518" height="441.824" viewBox="0 0 555.518 441.824">
  <g id="App_development-pana" data-name="App development-pana" transform="translate(0 0)">
    <g id="freepik--background-simple--inject-82">
      <path id="Trazado_2386" data-name="Trazado 2386" d="M675.674,76l.92,1.54a40.57,40.57,0,0,1,.2,42,38,38,0,0,1-3.37,4.7,42.58,42.58,0,0,1-37.51,14.51c-8.2-1.07-16.46-4.53-24.46-2.56-10.41,2.56-16.29,13.14-21,22.71s-10.58,20.13-21,22.65c-6.53,1.57-13.52-.52-19.31-4-15.34-9.18-23.64-27.63-23.26-45.32s8.45-34.49,19.62-48.16c15.66-19.16,38.3-33.27,63.11-35.84S661.064,55.74,675.674,76Z" transform="translate(-494.535 -47.836)" fill="#ebebeb"/>
      <ellipse id="Elipse_205" data-name="Elipse 205" cx="17.49" cy="17.49" rx="17.49" ry="17.49" transform="translate(19.189 230.738) rotate(-99.17)" fill="#ebebeb"/>
      <path id="Trazado_2387" data-name="Trazado 2387" d="M42.5,77.37c6.23-16.73,19.6-24.55,36.13-27.72,19.55-3.47,40.34-2,58.22,6.67s32.41,24.9,36.78,44.28-2.8,41.44-19,52.86-41,9.91-54.24-4.87c-6.92-7.71-10.82-18.42-19.71-23.74-7.35-4.39-16.64-4.12-24.42-7.7C42.13,110.66,37.08,91.91,42.5,77.37Z" transform="translate(380.629 182.828)" fill="#ebebeb"/>
      <path id="Trazado_2484" data-name="Trazado 2484" d="M172.76,131.535c-6.23,16.73-19.6,24.55-36.13,27.72-19.55,3.47-40.34,2-58.22-6.67s-32.41-24.9-36.78-44.28,2.8-41.44,19-52.86,41-9.91,54.24,4.87c6.92,7.71,10.82,18.42,19.71,23.74,7.35,4.39,16.64,4.12,24.42,7.7C173.13,98.245,178.18,117,172.76,131.535Z" transform="translate(-40.371 280.828)" fill="#ebebeb"/>
    </g>
    <g id="freepik--Gear--inject-82" transform="translate(204.449 251.364)">
      <path id="Trazado_2389" data-name="Trazado 2389" d="M499.21,313.07a24.772,24.772,0,0,0-4.86-4.36l.71-6-9.43-3.34-3.23,5.12a24.189,24.189,0,0,0-6.51.34l-3.75-4.75-9,4.31,1.33,5.9a24.72,24.72,0,0,0-4.36,4.85l-6-.71-3.33,9.44,5.08,3.22a24.608,24.608,0,0,0,.34,6.51l-4.74,3.75,4.31,9,5.88-1.35a24.508,24.508,0,0,0,4.86,4.37l-.71,6,9.43,3.34,3.23-5.11a24.619,24.619,0,0,0,6.51-.35l3.75,4.75,9-4.31-1.33-5.9a24.439,24.439,0,0,0,4.36-4.85l6,.71,3.33-9.43-5.11-3.23a24.681,24.681,0,0,0-.34-6.52l4.74-3.74-4.31-9-5.89,1.33ZM489.92,324a10.73,10.73,0,1,1-14.31-5,10.73,10.73,0,0,1,14.31,5Z" transform="translate(-450.42 -299.2)" fill="#e0e0e0"/>
      <path id="Trazado_2390" data-name="Trazado 2390" d="M499.21,313.07a24.772,24.772,0,0,0-4.86-4.36l.71-6-9.43-3.34-3.23,5.12a24.189,24.189,0,0,0-6.51.34l-3.75-4.75-9,4.31,1.33,5.9a24.72,24.72,0,0,0-4.36,4.85l-6-.71-3.33,9.44,5.08,3.22a24.608,24.608,0,0,0,.34,6.51l-4.74,3.75,4.31,9,5.88-1.35a24.508,24.508,0,0,0,4.86,4.37l-.71,6,9.43,3.34,3.23-5.11a24.619,24.619,0,0,0,6.51-.35l3.75,4.75,9-4.31-1.33-5.9a24.439,24.439,0,0,0,4.36-4.85l6,.71,3.33-9.43-5.11-3.23a24.681,24.681,0,0,0-.34-6.52l4.74-3.74-4.31-9-5.89,1.33ZM489.92,324a10.73,10.73,0,1,1-14.31-5,10.73,10.73,0,0,1,14.31,5Z" transform="translate(-450.42 -299.2)" fill="none"/>
      <path id="Trazado_2391" data-name="Trazado 2391" d="M490.415,324a8.24,8.24,0,0,0-1.35-2.28,10.64,10.64,0,0,0-6.11-3.72,10.79,10.79,0,0,0-5,.1,10.947,10.947,0,0,0-2.41,20.25,10.329,10.329,0,0,0,3.11,1.1,10.17,10.17,0,0,0,3.15.14,10.865,10.865,0,0,0,9.55-13.08,8.191,8.191,0,0,0-.93-2.49,20.611,20.611,0,0,1,.73,2.53,10.7,10.7,0,0,1-1,6.91,10.53,10.53,0,0,1-8.36,5.62,9.88,9.88,0,0,1-3-.15,9.761,9.761,0,0,1-2.95-1.06,10.43,10.43,0,0,1-5.34-11.18,9.919,9.919,0,0,1,1-3,9.49,9.49,0,0,1,1.77-2.44,10.55,10.55,0,0,1,4.78-2.8,10.39,10.39,0,0,1,4.84-.16,10.68,10.68,0,0,1,6,3.54,22.6,22.6,0,0,1,1.52,2.17Z" transform="translate(-450.915 -299.2)" fill="#263238"/>
      <path id="Trazado_2392" data-name="Trazado 2392" d="M499.3,313.07l.37-.06,1.12-.24,4.42-.95-.09-.05c1.09,2.32,2.53,5.36,4.26,9.05v-.16l-4.76,3.73-.07.06v.09a24.489,24.489,0,0,1,.4,6.46v.11l.09.05,5.1,3.24-.07-.22-3.36,9.43.22-.13-6-.72h-.12l-.08.11a24.128,24.128,0,0,1-4.33,4.8l-.1.09v.13l1.32,5.9.13-.26-9,4.3.29.07-3.74-4.75-.09-.12h-.15a24,24,0,0,1-6.45.33h-.15l-.08.13c-1,1.6-2.12,3.35-3.23,5.11l.3-.1-9.44-3.34.17.27c.23-1.89.47-3.94.71-6v-.16l-.13-.09a24.15,24.15,0,0,1-4.79-4.31h0l-.1-.12h-.15l-5.9,1.33.29.15q-2.17-4.57-4.31-9l-.07.31,4.74-3.75.12-.09v-.16a24.512,24.512,0,0,1-.34-6.44v-.16l-.13-.08L451,323.64l.1.29q1.71-4.83,3.33-9.44l-.25.16,6,.7h.14l.08-.12a24.609,24.609,0,0,1,4.32-4.81l.1-.09v-.13c-.46-2-.9-4-1.34-5.89l-.12.24,9-4.33-.25-.05,3.76,4.74.07.08h.11a24.35,24.35,0,0,1,6.47-.35h.1l.06-.09,3.21-5.12-.18.06,9.44,3.3-.07-.12c-.27,2.4-.49,4.37-.68,6v.05h0a25.483,25.483,0,0,1,3.78,3.12l.84.88c.18.2.28.29.28.29l-.25-.32c-.18-.2-.44-.51-.81-.91a23.941,23.941,0,0,0-3.75-3.2v.08c.2-1.64.44-3.61.74-6v-.09h-.09l-9.42-3.37h-.12l-.06.1c-1,1.58-2.07,3.25-3.24,5.11l.15-.08a24.6,24.6,0,0,0-6.56.33l.18.06-3.73-4.75-.1-.13-.15.07-9,4.3-.16.07v.17l1.32,5.9.08-.22a24.622,24.622,0,0,0-4.38,4.87l.22-.1-6-.71h-.19l-.06.18-3.35,9.44-.06.18.16.11,5.12,3.23-.12-.23a24.711,24.711,0,0,0,.34,6.58l.09-.25-4.74,3.74-.16.13.08.19q2.13,4.46,4.31,9l.09.19.2-.05,5.9-1.33-.25-.09h0a25.218,25.218,0,0,0,4.9,4.4l-.11-.24c-.25,2.06-.49,4.11-.71,6v.21l.19.07,9.44,3.35.19.07.11-.17,3.22-5.12-.23.12a25.369,25.369,0,0,0,6.58-.35l-.24-.09,3.75,4.74.12.15.17-.08,9-4.32.17-.08v-.18c-.47-2.05-.93-4.07-1.34-5.9l-.08.22a24.42,24.42,0,0,0,4.4-4.9l-.21.1,6,.69h.17l.05-.15q1.74-5,3.32-9.44l.05-.14-.13-.08-5.12-3.22.08.16a25.108,25.108,0,0,0-.36-6.56l-.06.15,4.74-3.76.08-.07-.05-.09-4.35-9v-.06h-.07l-4.36,1-1.13.27Z" transform="translate(-450.51 -299.2)" fill="#263238"/>
    </g>
    <g id="freepik--Screen--inject-82" transform="translate(242.484 30.043)">
      <path id="Trazado_2393" data-name="Trazado 2393" d="M312.07,78.65l26.75-.13a6.65,6.65,0,0,1,6.52,6.74V90.1a6.64,6.64,0,0,0,6.52,6.74l52.13-.24a6.64,6.64,0,0,0,6.44-6.8V85a6.63,6.63,0,0,1,6.46-6.79h9.41L449.74,78a21,21,0,0,1,21.14,20.9l1.42,336.6a21,21,0,0,1-20.94,21.08l-137.66.63a21,21,0,0,1-21.14-20.9L291.13,99.72a21,21,0,0,1,20.94-21.07Z" transform="translate(-291.025 -77.879)" fill="#fafafa"/>
      <path id="Trazado_2394" data-name="Trazado 2394" d="M311.871,78.65h-.71a16.208,16.208,0,0,0-2.13.18,19.78,19.78,0,0,0-7.87,2.74,20,20,0,0,0-4.78,3.89,21,21,0,0,0-4,6.28,21.71,21.71,0,0,0-1.55,8.52q0,4.66,0,9.91c.1,28,.25,68.47.42,118.5s.43,109.6.69,175.75q.06,12.39.1,25.1v6.37a21.1,21.1,0,0,0,8.15,17,20.77,20.77,0,0,0,5.73,3.19,23.044,23.044,0,0,0,3.17.93,22.693,22.693,0,0,0,3.29.37c4.39.09,8.77,0,13.19,0l26.75-.13,54.9-.24,28.07-.13,14.18-.07a22.27,22.27,0,0,0,13.76-3.81,21.47,21.47,0,0,0,8.3-11.48,23.119,23.119,0,0,0,.86-7.1v-7.08q-.06-14.14-.12-28.09-.12-27.89-.24-54.91c-.16-36-.31-70.72-.45-103.8s-.29-64.51-.43-93.93q-.09-22.07-.19-42.57V98.95c-.05-.85-.06-1.7-.16-2.54a19,19,0,0,0-.57-2.41,20.85,20.85,0,0,0-4.56-8.8,21.84,21.84,0,0,0-7.87-5.7c-.77-.26-1.51-.58-2.28-.78a19.408,19.408,0,0,0-2.35-.53,17.16,17.16,0,0,0-2.37-.25c-.79,0-1.58-.07-2.36-.06l-18.31.1h-13.12a6.57,6.57,0,0,0-4.09,1.26,6.9,6.9,0,0,0-2.47,3.43,12.431,12.431,0,0,0-.36,4.14v2a12,12,0,0,1-.09,2,6.59,6.59,0,0,1-1.64,3.49,6.36,6.36,0,0,1-3.27,1.93,8.65,8.65,0,0,1-1.91.15h-9.53l-27.7.15-12.21.07h-2.86a6.3,6.3,0,0,1-2.57-.92,6.65,6.65,0,0,1-2.94-4.25,12.1,12.1,0,0,1-.14-2.43c0-.85,0-1.69,0-2.51a12.51,12.51,0,0,0-.13-2.45,7.161,7.161,0,0,0-.82-2.24,6.62,6.62,0,0,0-3.39-2.91,10.88,10.88,0,0,0-4.17-.4l-13.62.08-8.38.07h22.01a10.88,10.88,0,0,1,4.11.41,6.4,6.4,0,0,1,3.29,2.84,7,7,0,0,1,.8,2.18,12.879,12.879,0,0,1,.12,2.42V89a12.79,12.79,0,0,0,.16,2.6,6.88,6.88,0,0,0,3.02,4.4,6.44,6.44,0,0,0,2.67,1,27.861,27.861,0,0,0,2.89,0H366l27.69-.11h9.54a9.411,9.411,0,0,0,2-.16,6.67,6.67,0,0,0,3.43-2,7,7,0,0,0,1.73-3.65,11.8,11.8,0,0,0,.08-2.05v-2a11.851,11.851,0,0,1,.34-4,6.59,6.59,0,0,1,2.36-3.27,6.23,6.23,0,0,1,3.89-1.19h13.13l18.3-.08c.79,0,1.57,0,2.34.06a16.44,16.44,0,0,1,2.33.25,20.12,20.12,0,0,1,2.3.52c.76.2,1.49.52,2.24.77a21.51,21.51,0,0,1,7.73,5.6,20.52,20.52,0,0,1,4.47,8.65c.87,3.21.56,6.63.64,10q.08,20.47.16,42.56c.12,29.42.24,60.85.38,93.93s.27,67.81.42,103.81q.12,27,.23,54.9.06,13.95.12,28.09v7.08a22.92,22.92,0,0,1-.84,7,21,21,0,0,1-8.1,11.21,21.74,21.74,0,0,1-13.36,3.7l-14.18.07-28.08.13-54.89.25-26.75.13c-4.41,0-8.82.09-13.17,0a23.005,23.005,0,0,1-3.21-.36,23.471,23.471,0,0,1-3.1-.91,20.16,20.16,0,0,1-5.59-3.11,20.45,20.45,0,0,1-7.09-10.37c-1.27-4.07-.78-8.4-.91-12.62q0-12.71-.11-25.11c-.3-66.14-.57-125.71-.8-175.75s-.45-90.51-.58-118.5c0-3.49,0-6.8-.06-9.9a21.4,21.4,0,0,1,1.51-8.46,21.957,21.957,0,0,1,16.49-13.21,17,17,0,0,1,2.13-.2Z" transform="translate(-290.826 -77.879)" fill="#263238"/>
      <path id="Trazado_2395" data-name="Trazado 2395" d="M329.672,437.91l-.8-.07-1-.06-1.34-.22a17,17,0,0,1-8.06-3.83,17.15,17.15,0,0,1-6.14-12.38c-.07-2.77-.18-5.82.9-8.79a17.11,17.11,0,0,1,2.17-4.31,18.088,18.088,0,0,1,3.47-3.7,17,17,0,0,1,4.63-2.62,19.6,19.6,0,0,1,2.64-.79,20,20,0,0,1,2.8-.32c3.82-.06,7.83,0,12,0h86.95a17.29,17.29,0,0,1,16.85,13.51c.15.61.21,1.25.32,1.87a16.96,16.96,0,0,1,.11,1.89c0,1.28,0,2.55-.08,3.79a17.28,17.28,0,0,1-13.43,15.34,31.272,31.272,0,0,1-7,.43l-49.44.06-33.33.08-9.06.05h0l9.06.05,33.33.08,49.44.06a31.46,31.46,0,0,0,7.08-.43,17.81,17.81,0,0,0,13.83-15.66c.09-1.29.08-2.56.08-3.83,0-.65-.05-1.3-.11-1.94a14.126,14.126,0,0,0-.32-1.93,17.81,17.81,0,0,0-17.36-13.92h-86.95c-4.14,0-8.12,0-12,.05a19.394,19.394,0,0,0-2.87.34,19.094,19.094,0,0,0-2.7.81,17.69,17.69,0,0,0-4.72,2.69,18.289,18.289,0,0,0-3.53,3.79,17.77,17.77,0,0,0-2.2,4.4,23.661,23.661,0,0,0-.87,8.91,17.48,17.48,0,0,0,6.3,12.54,19.313,19.313,0,0,0,4.48,2.72,19,19,0,0,0,3.69,1.06l1.36.19h1Z" transform="translate(-285.167 -77.879)" fill="#263238"/>
      <path id="Trazado_2396" data-name="Trazado 2396" d="M342.09,369.53v-8.46c0-5.5,0-13.54.06-23.76,0-20.42.07-49.53.12-84.32l-.23.23H447.85l-.26-.26V369.5l.22-.22-76.71.11-21.48.06h-.13l21.43.06,76.85.11H448V252.6H341.9v.4c.05,34.85.09,64,.12,84.46,0,10.2,0,18.23.06,23.71v7.84C342.08,369.38,342.09,369.53,342.09,369.53Z" transform="translate(-317.495 -77.879)" fill="#263238"/>
      <path id="Trazado_2397" data-name="Trazado 2397" d="M354.62,133.6c0,.15,13.15.26,29.37.26s29.38-.11,29.38-.26-13.15-.26-29.38-.26S354.62,133.46,354.62,133.6Z" transform="translate(-295.585 -77.879)" fill="#455a64"/>
      <path id="Trazado_2398" data-name="Trazado 2398" d="M448.39,127.73a1.74,1.74,0,1,0,1.73-1.73,1.74,1.74,0,0,0-1.73,1.73Z" transform="translate(-427.855 -77.879)" fill="#263238"/>
      <path id="Trazado_2399" data-name="Trazado 2399" d="M448.39,133.09a1.74,1.74,0,1,0,1.73-1.73,1.74,1.74,0,0,0-1.73,1.73Z" transform="translate(-427.855 -77.879)" fill="#263238"/>
      <path id="Trazado_2400" data-name="Trazado 2400" d="M448.39,138.45a1.74,1.74,0,1,0,1.73-1.73,1.74,1.74,0,0,0-1.73,1.73Z" transform="translate(-427.855 -77.879)" fill="#263238"/>
      <path id="Trazado_2401" data-name="Trazado 2401" d="M312.13,237.68v-4.91c0-3.19,0-7.85.06-13.77,0-11.83.07-28.71.11-48.95l-.22.22H379.7l-.26-.26v67.63l.22-.23-49,.12-13.76.06h-.1l13.72.06,49.1.11h.23V169.64H311.88v.23c.05,20.3.09,37.23.12,49.1,0,5.89,0,10.53.06,13.71v4.52A2.2,2.2,0,0,0,312.13,237.68Z" transform="translate(-219.325 -77.879)" fill="#263238"/>
      <path id="Trazado_2402" data-name="Trazado 2402" d="M312.18,170.36a1.2,1.2,0,0,0,.15.2l.47.54,1.85,2c1.62,1.77,4,4.31,6.92,7.42,5.88,6.22,14.11,14.72,23.39,23.91s17.86,17.34,24.14,23.16c3.14,2.91,5.7,5.25,7.48,6.85l2.06,1.83.54.47a.939.939,0,0,0,.2.14.87.87,0,0,0-.16-.18l-.51-.51-2-1.9-7.37-7c-6.21-5.88-14.74-14.07-24-23.26s-17.55-17.64-23.49-23.8l-7-7.3-1.92-2-.51-.51Z" transform="translate(-219.155 -77.879)" fill="#263238"/>
      <path id="Trazado_2403" data-name="Trazado 2403" d="M311.97,237.68c.1.1,15.32-15,34-33.63s33.73-33.9,33.63-34-15.32,14.95-34,33.63S311.87,237.58,311.97,237.68Z" transform="translate(-219.165 -77.879)" fill="#263238"/>
      <path id="Trazado_2404" data-name="Trazado 2404" d="M389.66,184.86v-3.53c0-2.29,0-5.59.08-9.75l-.15.15,56.82.11h0l-.26-.26h0v13.26l.26-.26-40.47.12-12,.07h-4.08a1.847,1.847,0,0,0-.3,0,1.1,1.1,0,0,0,.26,0h4l11.92.07,40.65.12h.25V171.6h0l-.26-.26h0l-56.82.11h-.15v.15c0,4.2.06,7.52.08,9.84v3.23A.177.177,0,0,0,389.66,184.86Z" transform="translate(-363.645 -77.879)" fill="#263238"/>
      <path id="Trazado_2405" data-name="Trazado 2405" d="M391.36,200.37c0,.14,14.23.26,31.77.26s31.79-.12,31.79-.26-14.23-.26-31.79-.26S391.36,200.23,391.36,200.37Z" transform="translate(-373.875 -77.879)" fill="#263238"/>
      <path id="Trazado_2406" data-name="Trazado 2406" d="M391.36,207.36c0,.14,14.23.26,31.77.26s31.79-.12,31.79-.26-14.23-.26-31.79-.26S391.36,207.21,391.36,207.36Z" transform="translate(-373.875 -77.879)" fill="#263238"/>
      <path id="Trazado_2407" data-name="Trazado 2407" d="M391.36,214.34c0,.14,14.23.26,31.77.26s31.79-.12,31.79-.26-14.23-.26-31.79-.26S391.36,214.2,391.36,214.34Z" transform="translate(-373.875 -77.879)" fill="#263238"/>
      <path id="Trazado_2408" data-name="Trazado 2408" d="M391.36,221.32c0,.15,14.23.26,31.77.26s31.79-.11,31.79-.26-14.23-.26-31.79-.26S391.36,221.18,391.36,221.32Z" transform="translate(-373.875 -77.879)" fill="#263238"/>
      <path id="Trazado_2409" data-name="Trazado 2409" d="M391.36,228.31c0,.14,14.23.26,31.77.26s31.79-.12,31.79-.26-14.23-.26-31.79-.26S391.36,228.17,391.36,228.31Z" transform="translate(-373.875 -77.879)" fill="#263238"/>
      <path id="Trazado_2410" data-name="Trazado 2410" d="M391.36,235.29c0,.15,14.23.26,31.77.26s31.79-.11,31.79-.26-14.23-.26-31.79-.26S391.36,235.15,391.36,235.29Z" transform="translate(-373.875 -77.879)" fill="#263238"/>
    </g>
    <g id="freepik--Icons--inject-82" transform="translate(139.369 11.584)">
      <path id="Trazado_2411" data-name="Trazado 2411" d="M511.14,155a2.68,2.68,0,1,0,2.68-2.68A2.68,2.68,0,0,0,511.14,155Z" transform="translate(-452.12 -59.42)" fill="#263238"/>
      <path id="Trazado_2412" data-name="Trazado 2412" d="M472.16,155.51h9a14.84,14.84,0,0,0,14.82-14.83c0-5.36.36-8.82,5.15-8.82h12.69v-1H501.14c-6.15,0-6.15,5.18-6.15,9.75a13.86,13.86,0,0,1-13.83,13.9h-9Z" transform="translate(-410.46 -59.42)" fill="#263238"/>
      <rect id="Rectángulo_908" data-name="Rectángulo 908" width="55.87" height="55.87" rx="11.78" transform="translate(326.27 56.16)" fill="#ff71d5"/>
      <path id="Trazado_2413" data-name="Trazado 2413" d="M231.41,155.12H225.5a.63.63,0,0,1-.63-.62v-6.23a.63.63,0,0,0-.63-.63h-4.21a.63.63,0,0,0-.63.63v6.36a.63.63,0,0,1-.63.63H212.9a.63.63,0,0,1-.63-.63V143.26a.64.64,0,0,1,.19-.46l9.28-8.92a.61.61,0,0,1,.86,0l9.27,8.7a.6.6,0,0,1,.2.46v11.47a.63.63,0,0,1-.66.61Z" transform="translate(131.18 -59.42)" fill="#fff"/>
      <rect id="Rectángulo_909" data-name="Rectángulo 909" width="49.82" height="49.82" rx="11.78" transform="translate(0 67.97)" fill="#ff71d5"/>
      <rect id="Rectángulo_910" data-name="Rectángulo 910" width="17.45" height="2" transform="translate(15.61 87.81)" fill="#fff"/>
      <rect id="Rectángulo_911" data-name="Rectángulo 911" width="17.45" height="2" transform="translate(15.61 92.23)" fill="#fff"/>
      <rect id="Rectángulo_912" data-name="Rectángulo 912" width="17.45" height="2" transform="translate(15.61 96.66)" fill="#fff"/>
      <path id="Trazado_2414" data-name="Trazado 2414" d="M220.38,107.19a2.68,2.68,0,1,0,2.68-2.68A2.68,2.68,0,0,0,220.38,107.19Z" transform="translate(129.4 -59.42)" fill="#263238"/>
      <path id="Trazado_2415" data-name="Trazado 2415" d="M378.99,79.35a2.68,2.68,0,1,0,2.68-2.68A2.68,2.68,0,0,0,378.99,79.35Z" transform="translate(-187.82 -59.42)" fill="#263238"/>
      <path id="Trazado_2416" data-name="Trazado 2416" d="M381.26,106.1h1V74.15a14.75,14.75,0,0,0-14.73-14.73H237.29a14.75,14.75,0,0,0-14.73,14.73v5.2h1v-5.2a13.75,13.75,0,0,1,13.73-13.73H367.53a13.75,13.75,0,0,1,13.73,13.73Z" transform="translate(-29.3 -59.42)" fill="#263238"/>
      <path id="Trazado_2417" data-name="Trazado 2417" d="M302.36,203.71a2.68,2.68,0,1,0,.788-1.929A2.68,2.68,0,0,0,302.36,203.71Z" transform="translate(-34.56 -59.42)" fill="#263238"/>
      <path id="Trazado_2418" data-name="Trazado 2418" d="M271.23,204.36h26.08a8,8,0,0,0,8-8V151a8,8,0,0,0-8-8H284.17v1h13.14a7,7,0,0,1,7,7v45.44a7,7,0,0,1-7,7H271.23Z" transform="translate(-1.02 -59.42)" fill="#263238"/>
    </g>
    <g id="freepik--speech-bubble-2--inject-82" transform="translate(7.448 71.283)">
      <path id="Trazado_2419" data-name="Trazado 2419" d="M705.765,186.53l-4.06-10.87a37,37,0,1,0-8.87,9.87h0Z" transform="translate(-632.954 -119.118)" fill="#fff"/>
      <path id="Trazado_2420" data-name="Trazado 2420" d="M705.888,186.53l-.86-.08-2.49-.22-9.58-.8.08.19h0a.11.11,0,0,0,0-.16.12.12,0,0,0-.14,0,37,37,0,0,1-16.73,7.19,34.89,34.89,0,0,1-5.69.45,40.067,40.067,0,0,1-6.07-.53,36.72,36.72,0,0,1-7.38-70.44,37.48,37.48,0,0,1,16.74-2.36,36.25,36.25,0,0,1,15.14,4.89,37,37,0,0,1,16.86,21.88l.39,1.53a9.769,9.769,0,0,1,.32,1.52c.16,1,.31,2,.47,3a53.012,53.012,0,0,1,.14,5.73,36.881,36.881,0,0,1-5.34,17.32.1.1,0,0,0,0,.09l3.07,8,.8,2.08c.18.47.29.72.29.72s-.07-.23-.24-.69-.42-1.17-.75-2.07l-3-8.14v.09a36.87,36.87,0,0,0,5.49-17.41,51.524,51.524,0,0,0-.12-5.79l-.45-3a10.281,10.281,0,0,0-.32-1.52c-.13-.51-.26-1-.4-1.54a37.17,37.17,0,0,0-17-22.19,36.65,36.65,0,0,0-15.34-5,37.88,37.88,0,0,0-17,2.38,37,37,0,0,0-14.6,10.35,16.865,16.865,0,0,0-1.41,1.75l-1.34,1.8-1.16,1.91a14.779,14.779,0,0,0-1.07,1.95c-.33.66-.65,1.33-1,2a21.232,21.232,0,0,0-.8,2.05c-.24.69-.53,1.36-.73,2.06l-.54,2.11a36.66,36.66,0,0,0-.15,16.79A37.14,37.14,0,0,0,664.338,193a42.128,42.128,0,0,0,6.14.51,37.628,37.628,0,0,0,5.73-.48,37,37,0,0,0,16.82-7.36l-.16-.16h0a.11.11,0,0,0,0,.16h.06l9.68.67,2.46.16Z" transform="translate(-633.078 -119.118)" fill="#263238"/>
      <path id="Trazado_2421" data-name="Trazado 2421" d="M666.72,166.94l19.11-7.21-.36-.93-18.36,6.93-13.1-19.67-.83.56Z" transform="translate(-631.569 -119.118)" fill="#263238"/>
      <circle id="Elipse_206" data-name="Elipse 206" cx="3.94" cy="3.94" r="3.94" transform="translate(50.141 35.822)" fill="#455a64"/>
      <circle id="Elipse_207" data-name="Elipse 207" cx="3.94" cy="3.94" r="3.94" transform="translate(31.401 43.282)" fill="#455a64"/>
      <circle id="Elipse_208" data-name="Elipse 208" cx="3.94" cy="3.94" r="3.94" transform="translate(18.091 23.282)" fill="#455a64"/>
    </g>
    <g id="freepik--character-2--inject-82" transform="translate(26.799 133.107)">
      <path id="Trazado_2422" data-name="Trazado 2422" d="M433.883,443.16c4-14.44,18.41-65.4,22.46-79.67a5.14,5.14,0,0,1,4.95-3.75h105.88a5.15,5.15,0,0,1,5,6.56l-25.44,89.28a5.15,5.15,0,0,1-4.95,3.74H384.963c-6.15,0-7.14-8.86-1.13-10.18l.36-.07c9.51-2,34.9-2.13,44.73-2.12a5.14,5.14,0,0,0,4.96-3.79Z" transform="translate(-264.083 -180.943)" fill="#263238"/>
      <path id="Trazado_2423" data-name="Trazado 2423" d="M513.63,366.52l-23.28,80.05-101.9.63,22.67-80.68Z" transform="translate(-213.99 -180.943)" fill="#455a64"/>
      <path id="Trazado_2424" data-name="Trazado 2424" d="M406.55,395.14c0,.14,5.68.26,12.67.26s12.67-.12,12.67-.26-5.67-.26-12.67-.26S406.55,395,406.55,395.14Z" transform="translate(-150.35 -180.943)" fill="#fff"/>
      <path id="Trazado_2425" data-name="Trazado 2425" d="M409.87,406.76a64.842,64.842,0,0,0,8.29.26,64.843,64.843,0,0,0,8.29-.26,132.3,132.3,0,0,0-16.58,0Z" transform="translate(-148.23 -180.943)" fill="#fff"/>
      <path id="Trazado_2426" data-name="Trazado 2426" d="M430.69,406.76c0,.15,6.73.26,15,.26s15-.11,15-.26-6.73-.26-15-.26S430.69,406.62,430.69,406.76Z" transform="translate(-203.29 -180.943)" fill="#fff"/>
      <path id="Trazado_2427" data-name="Trazado 2427" d="M402.3,387.28a22.169,22.169,0,0,0,4.22-2.19l.31-.19-.27-.23-.12-.11a23.643,23.643,0,0,0-3.86-3,23.092,23.092,0,0,0,3.55,3.44l.11.1v-.42a22.509,22.509,0,0,0-3.94,2.6Z" transform="translate(-121.04 -180.943)" fill="#fff"/>
      <path id="Trazado_2428" data-name="Trazado 2428" d="M417.55,381.53a22.65,22.65,0,0,0-4.27,2.23l-.28.16.22.24.05.06a24.273,24.273,0,0,0,3.5,3.43,23,23,0,0,0-3.11-3.78l-.06-.06-.06.4A23,23,0,0,0,417.55,381.53Z" transform="translate(-142.46 -180.943)" fill="#fff"/>
      <path id="Trazado_2429" data-name="Trazado 2429" d="M408.35,379.89a28.37,28.37,0,0,0,1.58,5.24,27.821,27.821,0,0,0,2.07,5.06,30.371,30.371,0,0,0-1.58-5.24A29.621,29.621,0,0,0,408.35,379.89Z" transform="translate(-132.26 -180.943)" fill="#fff"/>
      <path id="Trazado_2430" data-name="Trazado 2430" d="M439.12,394.05c0,.15,11.62.26,25.94.26s25.94-.11,25.94-.26-11.61-.26-25.94-.26S439.12,393.91,439.12,394.05Z" transform="translate(-242.03 -180.943)" fill="#263238"/>
      <path id="Trazado_2431" data-name="Trazado 2431" d="M407.43,400.45c0,.15,18.13.26,40.49.26s40.5-.11,40.5-.26-18.13-.26-40.5-.26S407.43,400.31,407.43,400.45Z" transform="translate(-207.76 -180.943)" fill="#263238"/>
      <path id="Trazado_2432" data-name="Trazado 2432" d="M414.66,416.72c0,.14,5.67.26,12.67.26s12.67-.12,12.67-.26-5.67-.26-12.67-.26S414.66,416.57,414.66,416.72Z" transform="translate(-166.57 -180.943)" fill="#fff"/>
      <path id="Trazado_2433" data-name="Trazado 2433" d="M417.96,428.34a127.406,127.406,0,0,0,16.58,0,132.292,132.292,0,0,0-16.58,0Z" transform="translate(-164.41 -180.943)" fill="#fff"/>
      <path id="Trazado_2434" data-name="Trazado 2434" d="M438.78,428.34c0,.15,6.73.27,15,.27s15-.12,15-.27-6.73-.26-15-.26S438.78,428.2,438.78,428.34Z" transform="translate(-219.47 -180.943)" fill="#fff"/>
      <path id="Trazado_2435" data-name="Trazado 2435" d="M415.52,422c0,.15,18.13.26,40.49.26s40.5-.11,40.5-.26-18.13-.26-40.5-.26S415.52,421.89,415.52,422Z" transform="translate(-223.94 -180.943)" fill="#263238"/>
      <path id="Trazado_2436" data-name="Trazado 2436" d="M382.41,459.32c.14,0,6.52-22,14.24-49.12s13.88-49.2,13.74-49.27-6.51,21.95-14.24,49.13S382.27,459.28,382.41,459.32Z" transform="translate(-104.71 -180.943)" fill="#455a64"/>
      <path id="Trazado_2437" data-name="Trazado 2437" d="M487.921,386.12s-8.68-2.79-14.58,0-35.66,25.74-35.66,25.74l5,17.67,6.79-5.53s11.16,1.55,15.5-2.79,9.31-8.37,9.31-8.37,4.47,7.14,6.88,6.72c1.78-.3,2.82-6,2.82-6s5.24,1.33,3.94-3.84l-3.1-10.27A4.8,4.8,0,0,0,480.7,396l-9.22-.92,5-4a42.549,42.549,0,0,0,9.94-.57C488.021,390.18,489.1,387,487.921,386.12Z" transform="translate(-238.011 -180.943)" fill="#ffbe9d"/>
      <path id="Trazado_2438" data-name="Trazado 2438" d="M443.31,405.05c.05.08,1-.52,2.74-1.19a7.829,7.829,0,0,1,3.09-.55,6.41,6.41,0,0,1,3.52,1.36,12.35,12.35,0,0,1,3.82,5.85,23.629,23.629,0,0,0,1,2.82,13.159,13.159,0,0,0-.67-2.94,16.617,16.617,0,0,0-1.25-3,9.579,9.579,0,0,0-2.61-3.11,6.63,6.63,0,0,0-3.81-1.42,7.59,7.59,0,0,0-3.25.69,13.518,13.518,0,0,0-1.95,1,2.44,2.44,0,0,0-.63.49Z" transform="translate(-212.7 -180.943)" fill="#eb996e"/>
      <path id="Trazado_2439" data-name="Trazado 2439" d="M454.352,396.14a11.8,11.8,0,0,1,2.71-.91,12.208,12.208,0,0,1,2.86.25c0-.05-.23-.29-.75-.5a4.55,4.55,0,0,0-4.21.5C454.5,395.81,454.252,396.1,454.352,396.14Z" transform="translate(-226.162 -180.943)" fill="#eb996e"/>
      <path id="Trazado_2440" data-name="Trazado 2440" d="M519.056,298.65l3.15.08a2.4,2.4,0,0,1,2,3.62,1.68,1.68,0,0,1-.82.69c-1.74.65-13.17,2.4-13.17,2.4L505,312.73l-4-2.4s5-13.6,4.68-13.27S519.056,298.65,519.056,298.65Z" transform="translate(-337.446 -180.943)" fill="#eb996e"/>
      <path id="Trazado_2441" data-name="Trazado 2441" d="M504.439,334.76l23.16-37.31a3.64,3.64,0,0,1,3-1.73l12.66-.49a2.6,2.6,0,0,1,2.44,3.81,2.35,2.35,0,0,1-1.56,1.08c-3.09.71-11.28,1.09-11.28,1.09l-5,10.25,12.58-4.81a2.13,2.13,0,0,1,2.87,1.66,3.27,3.27,0,0,1-.95,3.15c-2.14,1.66-9.14,7.17-9.14,7.17s-1,9.46-4.58,14.2-9.24,10.72-9.24,10.72Z" transform="translate(-362.349 -180.943)" fill="#ffbe9d"/>
      <path id="Trazado_2442" data-name="Trazado 2442" d="M521.858,321.65c.12.1,2.26-2.56,5.31-5.42s5.81-4.86,5.72-5a8.532,8.532,0,0,0-1.91,1.17,40.459,40.459,0,0,0-7.84,7.4,7.808,7.808,0,0,0-1.28,1.85Z" transform="translate(-366.658 -180.943)" fill="#eb996e"/>
      <path id="Trazado_2443" data-name="Trazado 2443" d="M527.527,248.78a3.17,3.17,0,0,1-.7-5.37c-1.51-1-.78-3.53.62-4.72s3.27-1.81,4.42-3.25a3.76,3.76,0,0,1-4.12-3.72,3.07,3.07,0,0,1-1.33-5.81c-1.69-.33-1.24-3.14.29-3.94s3.41-.52,5-1.08a20.3,20.3,0,0,1,11.4-5.12l-6.42-6a4,4,0,0,1-1.25-1.64c-.46-1.45.8-2.87,2.06-3.73a16.43,16.43,0,0,1,9.1-2.85c1,0,2.33.29,2.55,1.3,2.29-.79,4.79-.41,7.18,0,1.33.22,2.8.51,3.65,1.56a11.3,11.3,0,0,0-2.15-3.4,4.82,4.82,0,0,1-1.24-3.72c.28-1.32,2-2.3,3.05-1.43-1.18-.72-.8-2.7.35-3.46a6.28,6.28,0,0,1,4-.55c1,.08,2.16.37,2.32,1.32.67-2.09,4.36-2,4.92.14a3.33,3.33,0,0,1,4.73.89,4.3,4.3,0,0,1,5.79,2.9c-1-2.21-2-4.43-3-6.64-.58-1.26-.46-3.48.89-3.19-2-.2-2.79-3-1.65-4.6s3.43-2,5.35-1.56c.47.88,1,1.76,1.43,2.64a3.9,3.9,0,0,1,5.45,5c.88-.76,2.36-.13,2.88.9a5.92,5.92,0,0,1,.2,3.42c2.07-1.39,5.37.85,4.83,3.29a10.94,10.94,0,0,1,5.75-.55,3.83,3.83,0,0,1,5.55-4.87,3.78,3.78,0,0,1,5.18-2.52c.85-2.21,4-3.56,5.66-1.87s.37,4.65-1,6.67l-4.5,6.56,12.87-5.2a2.17,2.17,0,0,1,1.26-.23c.58.14.93.72,1.43,1,.7.45,1.61.36,2.37.69,2.07.89,1.68,4.16,0,5.7s-4,2.1-5.82,3.43l5.29,1.61a5.56,5.56,0,0,1,7.53-3c1-1.91,3.66-1.87,5.77-1.55,1.9.28,4,.67,5.18,2.16,1.53,1.91.88,4.9-.79,6.7s-4.05,2.69-6.36,3.53c.19,1.66,2.24,2.38,3.9,2.32s3.44-.52,4.93.23c2,1,2.62,3.85,4.65,4.85a9,9,0,0,1,1.86.85,3.84,3.84,0,0,1,1,2.66c.13,1.19.27,2.39.41,3.59a4.441,4.441,0,0,1,0,1.78c-.59,1.87-3.3,2-5,1.06s-3.11-2.53-5-3c2.4,1.54,4.93,3.23,6.08,5.84s.16,6.36-2.62,7-5.21-2-6.95-4.26-4.32-4.84-7.06-3.93" transform="translate(-496.977 -180.943)" fill="#263238"/>
      <path id="Trazado_2444" data-name="Trazado 2444" d="M537.834,247.53c-1.88-1.75-5.58-.11-5.55,2.45a7.29,7.29,0,0,0-4.08,12.21c1.45,1.52,4.62,1.92,5.18-.11a5.68,5.68,0,0,0,3.62,3.91,5.48,5.48,0,0,0,1.36,8c-3.5,1.88-3.52,7.84,0,9.75a4.48,4.48,0,1,0,7.73,4.52c.52,1.75,1.1,3.59,2.49,4.77s3.85,1.27,4.78-.29a6.15,6.15,0,0,0,8.31,4.62,4,4,0,0,0,7.63,2.22l10.11,1.88a36.76,36.76,0,0,0,6.76.84,18.4,18.4,0,0,0,8.39-2,6.32,6.32,0,0,1,2.6-1,6.47,6.47,0,0,1,3,1.09,16.62,16.62,0,0,0,16.22-.62,8.5,8.5,0,0,1,2.37-1.23,7.511,7.511,0,0,1,3.05.18,30.269,30.269,0,0,0,7.54.39c2.16-.16,4.51-.68,5.84-2.38s.78-4.85-1.35-5.23a4.64,4.64,0,0,1,1.88-3.61,2.8,2.8,0,0,1,3.76.58c.77,1.18-.14,3.13-1.54,3,2,2,5.95.51,6.55-2.25s-1.7-5.6-4.47-6.16a12.67,12.67,0,0,0,1.28-6.06,4.57,4.57,0,0,0,6,1.89,7.9,7.9,0,0,0,4.3,4.58,4.71,4.71,0,0,0,5.66-1.78c1-1.89-.17-4.75-2.32-4.92,2-2.08.43-6.17-2.41-6.46a6.32,6.32,0,0,0-2.48-7.33,3.32,3.32,0,0,0,5-.88c.89,2.28,4.11,2.4,6.42,1.59,1.81-.63,3.63-1.68,3.63-4.2a5.06,5.06,0,0,0-1.22-3.23c-1.81-2.12-4.58-2.78-7.21-3.37a32.51,32.51,0,0,1-1.12-10.66c2.93.67,6.36-.93,7.3-3.79l-13.75-10.78s-33.59-9-34.82-9.12-76.62,28.86-76.62,28.86c-1.84,1.54-5,.41-6-1.78s-.2-4.85,1.32-6.72a19.761,19.761,0,0,1,5.74-4.28c-2.26-.41-4.68-.88-6.19-2.73a3.66,3.66,0,0,1-.55-4c1-1.88,3.3-1.5,4.88-2.46a8,8,0,0,0,2.16-2.4" transform="translate(-503.204 -180.943)" fill="#263238"/>
      <path id="Trazado_2445" data-name="Trazado 2445" d="M561.755,234.44a7.19,7.19,0,0,1,7.15-6.61l39-5.73c12.3,0,18.86,15.76,18.38,28.05-.53,13.66-1.71,30.3-4.35,40.26-5.31,20-21.17,21-21.17,21s-.72,6.7-1.57,14.09l-42.44-8.81Z" transform="translate(-494.975 -180.943)" fill="#ffbe9d"/>
      <path id="Trazado_2446" data-name="Trazado 2446" d="M569.451,266.6a2.62,2.62,0,0,1-2.82,2.4,2.5,2.5,0,0,1-2.45-2.62,2.63,2.63,0,0,1,2.79-2.38,2.51,2.51,0,0,1,2.48,2.6Z" transform="translate(-445.541 -180.943)" fill="#263238"/>
      <path id="Trazado_2447" data-name="Trazado 2447" d="M593.579,264.89a2.61,2.61,0,0,1-2.78,2.37,2.51,2.51,0,0,1-2.45-2.63,2.62,2.62,0,0,1,2.78-2.37,2.49,2.49,0,0,1,2.45,2.63Z" transform="translate(-493.839 -180.943)" fill="#263238"/>
      <path id="Trazado_2448" data-name="Trazado 2448" d="M571.924,258.42c-.36.31-2.19-1.36-5-1.64s-5,.92-5.28.54c-.14-.17.26-.75,1.22-1.31a7.17,7.17,0,0,1,4.27-.85,6.85,6.85,0,0,1,3.93,1.73C571.865,257.64,572.094,258.28,571.924,258.42Z" transform="translate(-445.504 -180.943)" fill="#263238"/>
      <path id="Trazado_2449" data-name="Trazado 2449" d="M598.173,256.75c-.36.31-2.19-1.35-5-1.63s-5,.91-5.28.54c-.14-.17.25-.75,1.22-1.31a7.24,7.24,0,0,1,4.27-.86,7,7,0,0,1,3.93,1.73C598.093,256,598.353,256.62,598.173,256.75Z" transform="translate(-498.003 -180.943)" fill="#263238"/>
      <path id="Trazado_2450" data-name="Trazado 2450" d="M573.913,278c0-.16,1.78-.29,4.65-.36.72,0,1.41-.07,1.59-.55a3.66,3.66,0,0,0-.27-2.18q-.74-2.7-1.56-5.67c-2.15-8.08-3.63-14.69-3.31-14.78s2.34,6.4,4.49,14.47c.51,2,1,3.89,1.47,5.71a4.19,4.19,0,0,1,.09,2.85,1.82,1.82,0,0,1-1.29.93,4.748,4.748,0,0,1-1.23,0C575.673,278.33,573.9,278.16,573.913,278Z" transform="translate(-467.093 -180.943)" fill="#263238"/>
      <path id="Trazado_2451" data-name="Trazado 2451" d="M608.61,311.44a52.11,52.11,0,0,1-26.52-10.06s5.41,14.89,26,15.07Z" transform="translate(-502.61 -180.943)" fill="#eb996e"/>
      <path id="Trazado_2452" data-name="Trazado 2452" d="M592.115,285.22c-1.59-1.7-5.85-4.37-7.24-4.68s-1.28,1.38-2.22,2.61a4.54,4.54,0,0,0-.38,4.67c.9,1.69,2.75,3.12,4.4,2.9s3.18-1.9,4.54-2.88a3.29,3.29,0,0,0,1-1,1.46,1.46,0,0,0,0-1.47" transform="translate(-486.125 -180.943)" fill="#eb996e"/>
      <path id="Trazado_2453" data-name="Trazado 2453" d="M600.85,247.72c-.35.73-3.12.08-6.46.14s-6.09.69-6.46,0c-.16-.35.38-1,1.53-1.65a11.28,11.28,0,0,1,9.84-.08C600.46,246.7,601.01,247.37,600.85,247.72Z" transform="translate(-500.69 -180.943)" fill="#263238"/>
      <path id="Trazado_2454" data-name="Trazado 2454" d="M571.287,250.18c-.56.59-2.42-.27-4.75-.54s-4.34,0-4.72-.72c-.17-.35.21-.95,1.13-1.47a6.66,6.66,0,0,1,4-.65,6.55,6.55,0,0,1,3.66,1.67C571.337,249.21,571.537,249.89,571.287,250.18Z" transform="translate(-445.077 -180.943)" fill="#263238"/>
      <path id="Trazado_2455" data-name="Trazado 2455" d="M563.866,255.28a3.42,3.42,0,0,0,.55,4,2.35,2.35,0,0,0,3.43-.56c.76,1.3,2.93.31,2.82-1.28,1,.73,2.64-.59,2.44-2,1.22.64,2.21-1.34,3-2.65a22.909,22.909,0,0,1,1.54-2,14.31,14.31,0,0,0,3-7.44c1.87-1.71,2.62-4.58,3.25-7.24.4-1.67.79-3.33,1.19-5,.36-.36.72-.71,1.07-1.07a2.77,2.77,0,0,0,1.53,2.83,6,6,0,0,0,3.08.3l3.09-.25,1.82.76c-.73,1.51-.37,3.36,0,5a5.008,5.008,0,0,0,1.44,3,1.44,1.44,0,0,0,2.16-1.31,1.59,1.59,0,0,0,2.5-.11,5.22,5.22,0,0,0,1-3,13.37,13.37,0,0,0-1.59-7.61l4.74,5.45a2.48,2.48,0,0,0,1.2.93,1.41,1.41,0,0,0,1.31,1.71,3.63,3.63,0,0,0,2.09-1.1c1.44-1.2,3-3.34,2.08-5a1.15,1.15,0,0,0,.7-1.61l5.45,5.22c-.56-.42-1.32.43-1.28,1.22a3.23,3.23,0,0,0,1,1.91,4.66,4.66,0,0,0-1,2.75c-1-1.09-2.78.52-2.61,2.1a3.39,3.39,0,0,0,2.88,2.82,2.36,2.36,0,0,0,2.85-1.44c1.28.43,2.75-1.23,2.45-2.76.87.74,1.89-.87,2.09-2.15a18.55,18.55,0,0,0-.25-7.05c-.08.33.26.65.52.49a.51.51,0,0,0,0-.8q1.23,4.29,2.44,8.58a19.14,19.14,0,0,1,1.07,7c-.09,1-.13,2.33.68,2.51a1.21,1.21,0,0,0,.67-.09,12.34,12.34,0,0,0,6.09-5.65,9.371,9.371,0,0,0,1.14-2.79c.43-2.08-.22-4.2-.13-6.32a20.338,20.338,0,0,0,.13-2.8,8.35,8.35,0,0,0-1.75-3.87c-2.79-4.09-5.76-8.32-9.89-10.3-2.53-1.22-5.35-1.5-7.88-2.69a47.092,47.092,0,0,1-4.5-2.71c-6.16-3.78-13.3-5-20.34-5.16a33.3,33.3,0,0,0-11.75,1.41c-4.2,1.44-8,4.15-11.67,7.06-5.45,4.35-10.67,9.3-14.53,15.59-3,4.83-5.1,10.61-4.89,16.46s3.18,11.64,7.86,13.36l2.14-2" transform="translate(-499.836 -180.943)" fill="#263238"/>
      <path id="Trazado_2456" data-name="Trazado 2456" d="M631.057,259.79c-.26-.16-10.93-4.87-12.06,6.49s10.5,10.16,10.56,9.84S631.057,259.79,631.057,259.79Z" transform="translate(-561.887 -180.943)" fill="#ffbe9d"/>
      <path id="Trazado_2457" data-name="Trazado 2457" d="M628.122,271.47c0-.05-.22.11-.57.23a2,2,0,0,1-1.48-.11c-1.16-.56-2-2.57-1.83-4.62a6.57,6.57,0,0,1,.84-2.78,2.28,2.28,0,0,1,1.64-1.37,1,1,0,0,1,1.12.66c.12.33,0,.55.08.57s.26-.16.22-.64a1.3,1.3,0,0,0-.38-.76,1.51,1.51,0,0,0-1.06-.4,2.8,2.8,0,0,0-2.25,1.56,6.69,6.69,0,0,0-1,3.1c-.16,2.29.8,4.55,2.4,5.19a2.1,2.1,0,0,0,1.84-.12C628.072,271.74,628.152,271.49,628.122,271.47Z" transform="translate(-563.492 -180.943)" fill="#eb996e"/>
      <path id="Trazado_2458" data-name="Trazado 2458" d="M590.273,228a3,3,0,0,0,.92-1.38,2,2,0,0,0-.33-1.77,2.14,2.14,0,0,0-2.11-.79l-.49.11.26-.44a2.25,2.25,0,0,0-.33-2.58,2.2,2.2,0,0,0-2.83-.21l-.33-.39a.91.91,0,0,0,.18-.27,1.3,1.3,0,0,0-.06-1.09,1.47,1.47,0,0,0-.86-.68,2.33,2.33,0,0,0-1.14-.07,3.15,3.15,0,0,1-1.31.14c-.53-.16-.73-.59-1-.8a4.439,4.439,0,0,0-.82-.64,5.19,5.19,0,0,0-1.78-.62,5,5,0,0,0-2.72.35c-.6.27-.89.51-.92.47a2.319,2.319,0,0,1,.84-.65,4.86,4.86,0,0,1,2.84-.53,5.24,5.24,0,0,1,2,.61,4.259,4.259,0,0,1,.92.69c.31.27.52.61.79.66a3.07,3.07,0,0,0,1.1-.17,2.87,2.87,0,0,1,1.39.08,1.93,1.93,0,0,1,1.15.92,1.79,1.79,0,0,1,.08,1.55,1.29,1.29,0,0,1-.3.42l-.33-.39a2.62,2.62,0,0,1,3.85,3.42l-.24-.32a2.51,2.51,0,0,1,2.49,1,2.27,2.27,0,0,1,.28,2,2.2,2.2,0,0,1-.75,1.09A.94.94,0,0,1,590.273,228Z" transform="translate(-478.093 -180.943)" fill="#455a64"/>
      <path id="Trazado_2459" data-name="Trazado 2459" d="M580.021,232.68a3.551,3.551,0,0,0,1.12-1.32,2.57,2.57,0,0,0,.09-1.93,2.64,2.64,0,0,0-1.84-1.67l-.36-.09.28-.25a3.18,3.18,0,0,0,1.17-2.68,1.71,1.71,0,0,0-.89-1.26,1.37,1.37,0,0,0-1.53,0l-1.61,1.38,1.25-1.72a2.64,2.64,0,0,0,.39-2.2,2.45,2.45,0,0,0-1.59-1.69,2.6,2.6,0,0,0-1.72,0l-.63.22.31-.59c.45-.83-.33-1.94-1.2-2.15a4.36,4.36,0,0,0-2.77.37l-.51.21.21-.51a1.89,1.89,0,0,0-.42-1.88,3.43,3.43,0,0,0-1.65-1,8.74,8.74,0,0,0-3.27-.28,14.911,14.911,0,0,0-2.85.68,2.311,2.311,0,0,1,.69-.37,8.618,8.618,0,0,1,2.12-.59,8.84,8.84,0,0,1,3.41.18,3.89,3.89,0,0,1,1.88,1.06,2.32,2.32,0,0,1,.51,2.4l-.31-.31a4.82,4.82,0,0,1,3.08-.42,2.36,2.36,0,0,1,1.39,1,1.83,1.83,0,0,1,.14,1.83l-.32-.36a3.07,3.07,0,0,1,2.07,0,3,3,0,0,1,1.91,2,3.12,3.12,0,0,1-.48,2.63l-.36-.34a1.83,1.83,0,0,1,2.08-.07,2.14,2.14,0,0,1,1.11,1.61,3.58,3.58,0,0,1-1.36,3l-.08-.34a3,3,0,0,1,2,2,2.78,2.78,0,0,1-.19,2.13,2.741,2.741,0,0,1-.9,1,1.079,1.079,0,0,1-.37.32Z" transform="translate(-455.521 -180.943)" fill="#455a64"/>
      <path id="Trazado_2460" data-name="Trazado 2460" d="M558.94,238a2,2,0,0,0-.51-1.47,2.43,2.43,0,0,0-1.63-.79,7.35,7.35,0,0,0-2.48.3l-.3.08.07-.3a2.21,2.21,0,0,0-1.55-2.34,6.52,6.52,0,0,0-3.68.19l-1.65.42,1.47-.86a1.83,1.83,0,0,0,.15-2.62,4.09,4.09,0,0,0-3.09-1.09h-1.17l.9-.48a2,2,0,0,0,.12-3.09,3,3,0,0,0-3.3,0l-1.14.72.82-1.06a4.43,4.43,0,0,0,.48-4.47,4.12,4.12,0,0,0-2.8-2.25,4.61,4.61,0,0,0-2.44,0c-.55.16-.82.33-.84.3a.859.859,0,0,1,.19-.15,3.629,3.629,0,0,1,.6-.3,4.55,4.55,0,0,1,2.55-.18,4.39,4.39,0,0,1,3.1,2.36,4.81,4.81,0,0,1-.46,4.93l-.32-.35a3.42,3.42,0,0,1,3.87,0,2.46,2.46,0,0,1,.9,2,2.18,2.18,0,0,1-1.1,2l-.11-.48h.16a4.53,4.53,0,0,1,3.47,1.29,2.6,2.6,0,0,1,.58,1.76,1.87,1.87,0,0,1-.87,1.59l-.18-.44a6.67,6.67,0,0,1,4-.12,2.58,2.58,0,0,1,1.75,2.83l-.22-.23a7.551,7.551,0,0,1,2.61-.24,2.66,2.66,0,0,1,1.75,1,1.82,1.82,0,0,1,.44,1.17.85.85,0,0,1-.14.37Z" transform="translate(-407.36 -180.943)" fill="#455a64"/>
      <path id="Trazado_2461" data-name="Trazado 2461" d="M571.13,210.44a1.579,1.579,0,0,1-.7.17,8.923,8.923,0,0,1-2-.12,5.91,5.91,0,0,0-2.9.12,1.83,1.83,0,0,0-1.14,1.13,1.33,1.33,0,0,0,.36,1.56l-.38.21c0-.67-.8-1.17-1.48-1.69a8.61,8.61,0,0,0-2.29-1.29,3.07,3.07,0,0,0-2.47.11,2.07,2.07,0,0,0-1.26,1.77v.64l-.43-.47a5.65,5.65,0,0,0-3.19-1.74,6.42,6.42,0,0,0-2.9.1A8.241,8.241,0,0,0,548,212.1a2.43,2.43,0,0,1,.5-.51,5.541,5.541,0,0,1,1.77-.94,6.52,6.52,0,0,1,3.06-.21,6,6,0,0,1,3.47,1.81l-.42.17a2.53,2.53,0,0,1,1.51-2.23,3.62,3.62,0,0,1,2.87-.15,8.9,8.9,0,0,1,2.42,1.37,11.473,11.473,0,0,1,1,.84,1.88,1.88,0,0,1,.64,1.24V214l-.39-.28a1.78,1.78,0,0,1-.51-2.11,2.23,2.23,0,0,1,1.41-1.36,5.92,5.92,0,0,1,3.1,0,11.328,11.328,0,0,0,1.94.25,5.5,5.5,0,0,1,.76-.06Z" transform="translate(-431.04 -180.943)" fill="#455a64"/>
      <path id="Trazado_2462" data-name="Trazado 2462" d="M584.472,197.85a5.209,5.209,0,0,0-1.37,0,3.4,3.4,0,0,0-1.37.67,2.9,2.9,0,0,0-1,1.63l-.05.28-.26-.12a1.69,1.69,0,0,0-2,.84,5.239,5.239,0,0,0-.41,2.82l.05,1-.54-.89-.08-.14a2.17,2.17,0,0,0-1.68-.92,2.45,2.45,0,0,0-1.75.54,3.87,3.87,0,0,0-1.36,2.91,7.247,7.247,0,0,0,.33,2.28,4.31,4.31,0,0,1,.23.83,3.541,3.541,0,0,1-.42-.77,6.25,6.25,0,0,1-.5-2.34,4.18,4.18,0,0,1,1.42-3.28,2.87,2.87,0,0,1,4.17.47l.1.18-.48.13a5.46,5.46,0,0,1,.5-3.09,2.14,2.14,0,0,1,2.59-1l-.31.16a3.15,3.15,0,0,1,1.22-1.83,3.32,3.32,0,0,1,1.54-.64,2.829,2.829,0,0,1,1.06.05A1.781,1.781,0,0,1,584.472,197.85Z" transform="translate(-468.672 -180.943)" fill="#455a64"/>
      <path id="Trazado_2463" data-name="Trazado 2463" d="M601.818,211a1.44,1.44,0,0,1-.66-.23,4.21,4.21,0,0,1-1.42-1.26,4.51,4.51,0,0,1-.89-2.7,2.37,2.37,0,0,0-.19-1.43c-.25-.39-.85-.68-1.17-1.32a2.57,2.57,0,0,1,1-3.38l-.07.37a8.3,8.3,0,0,1-1.85-3.28,3.48,3.48,0,0,1-.21-1.44c.06,0,.16.52.48,1.35a9.158,9.158,0,0,0,1.93,3.05l.22.22-.29.15a2.13,2.13,0,0,0-.79,2.72c.21.47.75.73,1.13,1.28a2.68,2.68,0,0,1,.24,1.73,4.419,4.419,0,0,0,.72,2.47A6.64,6.64,0,0,0,601.818,211Z" transform="translate(-510.077 -180.943)" fill="#455a64"/>
      <path id="Trazado_2464" data-name="Trazado 2464" d="M623.733,214.73h-.44a5.772,5.772,0,0,1-1.2-.23,7,7,0,0,1-3.55-2.56h.33a4.44,4.44,0,0,1-3.18,1.26,4.58,4.58,0,0,1-1.89-.44,2.84,2.84,0,0,1-1.49-1.45,5.771,5.771,0,0,1-.12-.76,1,1,0,0,0-.27-.51,3.09,3.09,0,0,0-1.12-.65,4.1,4.1,0,0,1-1.26-.69,1.45,1.45,0,0,1-.59-1.34l.3.26a4.53,4.53,0,0,1-3.14-.27,4.86,4.86,0,0,1-1.91-1.51,4,4,0,0,1-.7-1.41,1.441,1.441,0,0,1-.07-.55,6.61,6.61,0,0,0,1,1.79,4.91,4.91,0,0,0,1.85,1.33,4.2,4.2,0,0,0,2.84.17l.36-.1-.06.37a1,1,0,0,0,.44.89,4,4,0,0,0,1.13.59,3.46,3.46,0,0,1,1.32.77,1.55,1.55,0,0,1,.4.76,4.7,4.7,0,0,0,.11.7,2.33,2.33,0,0,0,1.22,1.15,4,4,0,0,0,1.67.4,4.05,4.05,0,0,0,2.87-1.07l.18-.18.15.21a7,7,0,0,0,3.27,2.57C623.163,214.63,623.743,214.67,623.733,214.73Z" transform="translate(-539.073 -180.943)" fill="#455a64"/>
      <path id="Trazado_2465" data-name="Trazado 2465" d="M613.343,226.07v-.18a2.6,2.6,0,0,1,0-.54,5.32,5.32,0,0,1,.47-2,12.32,12.32,0,0,1,1.69-2.73,11.6,11.6,0,0,1,1.31-1.5,3.361,3.361,0,0,1,1-.59,1.39,1.39,0,0,1,1.26.14l-.35.18a3.43,3.43,0,0,1,5.88-2.36l-.43.16a2.34,2.34,0,0,1,1.16-1.82,2.23,2.23,0,0,1,2.21,0,2.36,2.36,0,0,1,.93.87l-.48.12a1.44,1.44,0,0,1,.67-1.14,2,2,0,0,1,1.21-.36,4.71,4.71,0,0,1,2.13.8l-.33.07a3.65,3.65,0,0,1,2.39-1.31,5.13,5.13,0,0,1,2.51.27,13,13,0,0,1,3.66,2.35l-.3.2a.93.93,0,0,1,.2-.88,1.55,1.55,0,0,1,.69-.41,2.65,2.65,0,0,1,1.39-.06,7.649,7.649,0,0,1,2,.84,6.75,6.75,0,0,1,1.08.81c.23.21.33.33.32.35a13.053,13.053,0,0,0-1.5-1,7.811,7.811,0,0,0-1.94-.73,2.31,2.31,0,0,0-1.21.09c-.41.13-.79.46-.64.86l.22.6-.52-.4a12.72,12.72,0,0,0-3.57-2.21,4.74,4.74,0,0,0-2.29-.23,3.2,3.2,0,0,0-2.06,1.14l-.13.17-.19-.11a4.281,4.281,0,0,0-1.9-.72c-.61,0-1.34.42-1.35,1v.91l-.46-.79a1.79,1.79,0,0,0-.72-.67,1.74,1.74,0,0,0-1.71,0,1.89,1.89,0,0,0-.92,1.42v.55l-.39-.4a3,3,0,0,0-5.08,2v.43l-.34-.25c-.51-.39-1.22,0-1.71.4a11.264,11.264,0,0,0-1.29,1.41,12.528,12.528,0,0,0-1.74,2.61,6.821,6.821,0,0,0-.83,2.64Z" transform="translate(-570.853 -180.943)" fill="#455a64"/>
      <path id="Trazado_2466" data-name="Trazado 2466" d="M617.936,241.4a2,2,0,0,1-.22-.36,9.716,9.716,0,0,1-.49-1.09,3.71,3.71,0,0,1-.2-1.92,2.761,2.761,0,0,1,.51-1.14,2,2,0,0,1,1.22-.73l-.13.26a2.41,2.41,0,0,1,3-3.39l-.27.33a1.93,1.93,0,0,1,.32-2.27,2.87,2.87,0,0,1,2.3-.78,9,9,0,0,0,1.15.12,1,1,0,0,0,.77-.53,4.209,4.209,0,0,1,.79-1,2.18,2.18,0,0,1,1.28-.53,12.61,12.61,0,0,1,2.74.23,3,3,0,0,0,2.28-.4c.28-.23.5-.58.81-.9a2.631,2.631,0,0,1,1.12-.69,2.75,2.75,0,0,1,2.39.39l-.34.29a2.05,2.05,0,0,1,.54-2.33,2.89,2.89,0,0,1,2-.74,9.1,9.1,0,0,1,3.31.78,11,11,0,0,1,1.92,1c.42.28.62.46.6.48a23.864,23.864,0,0,0-2.62-1.25,9.1,9.1,0,0,0-3.2-.66,2.52,2.52,0,0,0-1.74.66,1.64,1.64,0,0,0-.46,1.77l.46.86-.79-.58a2.28,2.28,0,0,0-2-.29,2.11,2.11,0,0,0-.91.56,9.714,9.714,0,0,1-.84.95,2.7,2.7,0,0,1-1.29.55,5.69,5.69,0,0,1-1.37,0,13.21,13.21,0,0,0-2.62-.23,1.76,1.76,0,0,0-1,.41,3.751,3.751,0,0,0-.69.94,1.53,1.53,0,0,1-1.17.75,9.158,9.158,0,0,1-1.21-.13,2.4,2.4,0,0,0-1.91.61,1.47,1.47,0,0,0-.29,1.7l.35.57-.63-.23a2,2,0,0,0-2.28.66,2.09,2.09,0,0,0-.19,2.13l.12.23h-.26a2,2,0,0,0-1.5,1.57,3.64,3.64,0,0,0,.11,1.8C617.726,240.86,617.986,241.38,617.936,241.4Z" transform="translate(-574.226 -180.943)" fill="#455a64"/>
      <path id="Trazado_2467" data-name="Trazado 2467" d="M638.094,272.7a.924.924,0,0,1-.48-.21,3.68,3.68,0,0,1-1.07-1.05,3.75,3.75,0,0,1-.63-2.27,3.94,3.94,0,0,1,1.37-2.75v.27a7.091,7.091,0,0,1-1.06-2.69,2.94,2.94,0,0,1,.3-1.63,2.13,2.13,0,0,1,1.35-1.14l-.1.45a3,3,0,0,1-1-2.81,3.39,3.39,0,0,1,.71-1.62,2.82,2.82,0,0,1,1.45-.91c.51-.17.76-.37.83-.87a3.861,3.861,0,0,1,.51-1.46,5.28,5.28,0,0,1,2.13-1.84c.75-.42,1.43-.82,2.08-1.17a8.769,8.769,0,0,1,3.29-1.13,4.549,4.549,0,0,1,1,0c.21,0,.32.07.32.09s-.46,0-1.25.08a9.4,9.4,0,0,0-3.14,1.25l-2,1.22a4.85,4.85,0,0,0-1.94,1.71,3.74,3.74,0,0,0-.44,1.32,1.49,1.49,0,0,1-.37.81,2,2,0,0,1-.78.43,2.67,2.67,0,0,0-1,4.47l.41.32-.51.13a2,2,0,0,0-1.29,2.22,6.89,6.89,0,0,0,1,2.54l.09.16-.14.11a3.59,3.59,0,0,0-1.29,2.44,3.49,3.49,0,0,0,.49,2.1A5.119,5.119,0,0,0,638.094,272.7Z" transform="translate(-596.914 -180.943)" fill="#455a64"/>
      <path id="Trazado_2468" data-name="Trazado 2468" d="M620.43,261.11a1.88,1.88,0,0,1-.69-.22,6.631,6.631,0,0,1-1.7-1.13,6.889,6.889,0,0,1-1.78-2.62,2.75,2.75,0,0,1-.13-2,1.36,1.36,0,0,1,.88-.79,1.07,1.07,0,0,1,1.22.35l-.41.19a3.49,3.49,0,0,1-.13-2,1.64,1.64,0,0,1,.72-.89,1.32,1.32,0,0,1,1.19,0c.34.11.68.27.87.21s.26-.27.28-.65a3.18,3.18,0,0,1,1.11-2.08,3.37,3.37,0,0,1,3.59-.61l-.36.26a2.91,2.91,0,0,1,.84-2.77,1.74,1.74,0,0,1,1.44-.28,1.32,1.32,0,0,1,1.05,1h-.45a6.93,6.93,0,0,1,1.29-3.64,7.331,7.331,0,0,1,2.16-2.05,6.589,6.589,0,0,1,1.75-.75,2.15,2.15,0,0,1,.67-.1,10.911,10.911,0,0,0-2.28,1.07,7.43,7.43,0,0,0-2,2,6.81,6.81,0,0,0-1.14,3.46l-.08,1.87-.36-1.83c-.13-.63-1.19-.84-1.76-.39a2.45,2.45,0,0,0-.63,2.31l.07.47-.43-.21a2.93,2.93,0,0,0-3,.55,2.66,2.66,0,0,0-.94,1.74,1.827,1.827,0,0,1-.11.6.79.79,0,0,1-.55.5,2.23,2.23,0,0,1-1.16-.24.84.84,0,0,0-.79,0,1.15,1.15,0,0,0-.5.62,3.07,3.07,0,0,0,.12,1.74l.34,1.3-.8-1.1c-.3-.44-1.18-.17-1.34.34a2.39,2.39,0,0,0,.1,1.72,6.86,6.86,0,0,0,1.61,2.55A9.83,9.83,0,0,0,620.43,261.11Z" transform="translate(-561.75 -180.943)" fill="#455a64"/>
      <path id="Trazado_2469" data-name="Trazado 2469" d="M603.976,232.29a3.85,3.85,0,0,1-1.46-.77,4.319,4.319,0,0,1-1.24-1.35,2.82,2.82,0,0,1-.26-2.28,1.78,1.78,0,0,1,.27-.51l.07.36a2.45,2.45,0,0,1-1.08-1.83,2.25,2.25,0,0,1,.51-1.63c.65-.76,1.32-.77,1.31-.72a2.826,2.826,0,0,0-1,.93,2,2,0,0,0-.33,1.37,2.1,2.1,0,0,0,.9,1.45l.21.14-.14.22a1.442,1.442,0,0,0-.2.39,2.47,2.47,0,0,0,.19,1.89,4.561,4.561,0,0,0,1,1.28C603.5,231.87,604.016,232.22,603.976,232.29Z" transform="translate(-516.156 -180.943)" fill="#455a64"/>
      <path id="Trazado_2470" data-name="Trazado 2470" d="M599.279,228.07a3.11,3.11,0,0,0,.56-1.84,2.13,2.13,0,0,0-1-1.74,2.3,2.3,0,0,0-2.49.12l-.35.26v-.44a4.468,4.468,0,0,0-.42-1.58,1.94,1.94,0,0,0-1.18-1c-.81-.2-1.81.46-1.66,1.16h-.5a3.86,3.86,0,0,0-3.23-3.8,5.89,5.89,0,0,0-2.19.16,1.88,1.88,0,0,1,.54-.29,3.91,3.91,0,0,1,1.7-.18,4.08,4.08,0,0,1,2.36,1.09,4.31,4.31,0,0,1,1.32,3l-.49.05a1.48,1.48,0,0,1,.67-1.44,2.09,2.09,0,0,1,1.59-.32,2.42,2.42,0,0,1,1.52,1.33,4.5,4.5,0,0,1,.45,1.77l-.39-.17a2.75,2.75,0,0,1,3-.08,2.53,2.53,0,0,1,.65,3.55C599.459,228,599.289,228.08,599.279,228.07Z" transform="translate(-498.929 -180.943)" fill="#455a64"/>
      <path id="Trazado_2471" data-name="Trazado 2471" d="M587.787,290.78a2.12,2.12,0,0,1-.92,0,6.53,6.53,0,0,1-2.34-.91,6.4,6.4,0,0,1-1.35-1.11,4.35,4.35,0,0,1-1-1.77,6.15,6.15,0,0,1,1-4.45,7.581,7.581,0,0,1,2-2.17l.1-.06h.1a24.619,24.619,0,0,1,5.34,3.21c.61.48,1.07.88,1.38,1.18a2,2,0,0,1,.44.49s-.73-.57-2-1.45a28.28,28.28,0,0,0-5.33-3h.19a7.238,7.238,0,0,0-1.91,2.05,5.86,5.86,0,0,0-1,4.13,5.09,5.09,0,0,0,2.15,2.71,7.121,7.121,0,0,0,2.21,1A8.034,8.034,0,0,1,587.787,290.78Z" transform="translate(-486.547 -180.943)" fill="#263238"/>
      <path id="Trazado_2472" data-name="Trazado 2472" d="M640.86,342.56s-23.88,53.6-27.22,56.2c-.68.53-4.58,5.16-10.37,5.3-22.85.56-75.11,4.89-75.11,4.89l-7.3-30.27,62.76-4.5,31.6-42.95Z" transform="translate(-473.63 -180.943)" fill="#ff71d5"/>
      <path id="Trazado_2473" data-name="Trazado 2473" d="M477.49,382.41s34.52,54.47,37.8,58.61c7.24,9.12,16.9,13.91,30.49,10.2s49.79-23.42,49.79-23.42l-10.83-24.63-42.34,9-32.74-65.62a30.4,30.4,0,0,0-16.91-15.74c-5.12-1.87-11.34-4.28-18.14-1.66Z" transform="translate(-382.09 -180.943)" fill="#ff71d5"/>
      <path id="Trazado_2474" data-name="Trazado 2474" d="M671.434,326.41l-40.19-7c-7.15-1.25-27.91,10.35-32.51,21.1l-30.18,116.68h98.49l4.54-33s13.72-15.31,16.27-18.48S671.434,326.41,671.434,326.41Z" transform="translate(-568.554 -180.943)" fill="#ff71d5"/>
      <path id="Trazado_2475" data-name="Trazado 2475" d="M630.34,329.17l1.55-10.05a3.3,3.3,0,0,0-2.75-3.77l-41.46-6.56a3.3,3.3,0,0,0-3.79,2.79l-1.71,11.77Z" transform="translate(-526.02 -180.943)" fill="#ff71d5"/>
      <path id="Trazado_2476" data-name="Trazado 2476" d="M527.78,328.53a3.33,3.33,0,0,0,.62.27l1.81.72,6.88,2.61h0a31.71,31.71,0,0,1,6.5,4.65,33.351,33.351,0,0,1,6,7.76c1.79,3.08,3.47,6.52,5.28,10.09s3.65,7.35,5.58,11.22l16.32,32.86c2.12,4.19,3.84,7.58,5.06,9.9.61,1.17,1.09,2.07,1.43,2.67l.38.69c.09.15.14.23.15.22a1.232,1.232,0,0,0-.1-.25l-.34-.71-1.34-2.71-4.91-10c-4.15-8.46-9.87-20.08-16.19-32.93l-5.59-11.21c-1.82-3.58-3.51-7-5.33-10.11a33.749,33.749,0,0,0-6.15-7.81,31.6,31.6,0,0,0-6.63-4.63h0l-6.92-2.48-1.84-.63a5.21,5.21,0,0,0-.67-.19Z" transform="translate(-423.48 -180.943)" fill="#263238"/>
      <path id="Trazado_2477" data-name="Trazado 2477" d="M571.51,374.6a3.563,3.563,0,0,0,.25.44l.81,1.18c.76,1.09,1.78,2.55,3,4.33,2.55,3.66,6,8.74,9.73,14.42s7,10.88,9.4,14.65c1.16,1.82,2.11,3.33,2.82,4.45.32.48.58.87.79,1.2a2,2,0,0,0,.3.4,1.719,1.719,0,0,0-.21-.46l-.7-1.25c-.62-1.08-1.54-2.63-2.69-4.54-2.3-3.81-5.55-9.05-9.28-14.73s-7.23-10.75-9.86-14.35c-1.3-1.81-2.38-3.25-3.15-4.24l-.88-1.12A2.128,2.128,0,0,0,571.51,374.6Z" transform="translate(-482.03 -180.943)" fill="#263238"/>
      <path id="Trazado_2478" data-name="Trazado 2478" d="M583.81,320.49a2.652,2.652,0,0,0,.42.29l1.24.74c.54.32,1.21.7,2,1.1s1.69.88,2.73,1.32,2.15,1,3.4,1.43,2.57.94,4,1.42a73.081,73.081,0,0,0,9.42,2.28,74.906,74.906,0,0,0,9.65.92h4.23a36.75,36.75,0,0,0,3.68-.25c1.12-.11,2.13-.24,3-.36s1.64-.25,2.26-.38l1.42-.29a1.43,1.43,0,0,0,.48-.14,2.691,2.691,0,0,0-.5,0l-1.44.19c-.61.1-1.37.21-2.26.29s-1.89.23-3,.29-2.34.16-3.66.18-2.72,0-4.2,0a79.708,79.708,0,0,1-9.58-.95,77.612,77.612,0,0,1-9.36-2.23c-1.41-.46-2.76-.87-4-1.36s-2.37-.92-3.4-1.36-1.94-.88-2.75-1.26-1.5-.71-2.05-1l-1.29-.65A2.754,2.754,0,0,0,583.81,320.49Z" transform="translate(-527.46 -180.943)" fill="#263238"/>
      <path id="Trazado_2479" data-name="Trazado 2479" d="M543.47,403.83a10.085,10.085,0,0,0,1.4-.81l3.72-2.34,12.28-7.74c4.8-3,9.12-5.81,12.21-7.88,1.54-1,2.79-1.88,3.64-2.48a9.531,9.531,0,0,0,1.28-1,10.089,10.089,0,0,0-1.4.81l-3.72,2.34-12.29,7.75c-4.79,3-9.11,5.8-12.2,7.87-1.54,1-2.79,1.88-3.64,2.48a9.53,9.53,0,0,0-1.28,1Z" transform="translate(-433.38 -180.943)" fill="#fff"/>
      <path id="Trazado_2480" data-name="Trazado 2480" d="M548.9,393a11.677,11.677,0,0,0,1.47-.77c.94-.52,2.27-1.31,3.91-2.3,3.28-2,7.73-4.83,12.65-8s9.43-5.89,12.75-7.78c1.66-.95,3-1.71,3.94-2.23a10.2,10.2,0,0,0,1.43-.85,10.282,10.282,0,0,0-1.52.67c-1,.46-2.35,1.18-4,2.09-3.37,1.81-7.92,4.52-12.85,7.66l-12.56,8.1-3.82,2.43A9.873,9.873,0,0,0,548.9,393Z" transform="translate(-445.86 -180.943)" fill="#fff"/>
      <path id="Trazado_2481" data-name="Trazado 2481" d="M576.67,407.13l.25.06.74.12,2.85.41c2.48.35,6.07.79,10.51,1.29,8.89,1,21.19,2.11,34.8,3s26,1.56,34.87,2l10.57.54,2.88.13h.75l-.75-.07-2.87-.23-10.56-.71-34.9-2.15c-13.6-.92-25.9-2-34.79-2.87-4.44-.45-8-.84-10.52-1.13l-2.86-.31-.75-.07a1.291,1.291,0,0,0-.22-.01Z" transform="translate(-563.72 -180.943)" fill="#fff"/>
      <path id="Trazado_2482" data-name="Trazado 2482" d="M583.19,389.42a5.568,5.568,0,0,0,.88.1l2.55.19,9.37.64c7.92.54,18.85,1.36,30.91,2.4s23,2.1,30.86,2.89l9.35.92,2.55.23a7.352,7.352,0,0,0,.89,0,5.289,5.289,0,0,0-.88-.15l-2.54-.33-9.33-1.09c-7.89-.88-18.79-2-30.86-3s-23-1.8-30.92-2.25c-4-.23-7.17-.39-9.39-.47l-2.55-.09A5,5,0,0,0,583.19,389.42Z" transform="translate(-565.65 -180.943)" fill="#fff"/>
      <g id="Grupo_2035" data-name="Grupo 2035" transform="translate(94.85 200.857)" opacity="0.3">
        <path id="Trazado_2483" data-name="Trazado 2483" d="M593.24,411.8a40.59,40.59,0,0,1-19.19-30Z" transform="translate(-574.05 -381.8)"/>
      </g>
    </g>
  </g>
</svg>
