<svg xmlns="http://www.w3.org/2000/svg" width="583.557" height="443.101" viewBox="0 0 583.557 443.101">
  <g id="Grupo_2036" data-name="Grupo 2036" transform="translate(-10778 -5370)">
    <g id="JavaScript_frameworks-pana" data-name="JavaScript frameworks-pana" transform="translate(10696.42 5330.954)">
      <g id="freepik--background-simple--inject-5">
        <path id="Trazado_2242" data-name="Trazado 2242" d="M335.06,392.73C399.73,395.4,474.71,380.5,531,348.48s96.89-95.57,103-160c4.36-46.07-5.79-94.92-41.59-124.25S491.3,30,452.89,55.83c-41.47,27.86-59.15,85.58-105.44,104.38-38.47,15.62-82.44-1.7-123.52,4.3-45,6.58-84.19,45.28-88.42,90.57-2.5,26.69,3.7,55.3,24.05,77.41,21.3,23.15,34.17,30.45,63.5,45.08C249.48,390.74,292.38,391,335.06,392.73Z" fill="#e0e0e0"/>
      </g>
      <g id="freepik--JavaScript--inject-5">
        <path id="Trazado_2243" data-name="Trazado 2243" d="M216.18,224.08H95.65V74.18l92.2.27,28.33,30.77Z" fill="#ebebeb"/>
        <path id="Trazado_2244" data-name="Trazado 2244" d="M131.7,159.7c-.15.15-2.15-1.66-5.26-4.7s-7.34-7.32-11.94-12.12l-.51-.54.51-.54v-.05c4.58-4.83,8.79-9.15,11.9-12.22s5.1-4.9,5.25-4.75-1.55,2.24-4.45,5.51-7,7.7-11.57,12.54h-.05V141.8c4.6,4.8,8.69,9.2,11.6,12.44S131.86,159.55,131.7,159.7Z" fill="#263238"/>
        <path id="Trazado_2245" data-name="Trazado 2245" d="M180.07,124.78c.16-.15,2.16,1.66,5.27,4.7s7.34,7.32,11.93,12.12l.52.54-.51.54h-.05c-4.59,4.84-8.8,9.15-11.9,12.22s-5.1,4.9-5.26,4.75,1.56-2.24,4.46-5.51,7-7.7,11.56-12.53v1.02c-4.59-4.8-8.69-9.2-11.6-12.43S179.92,124.93,180.07,124.78Z" fill="#263238"/>
        <path id="Trazado_2246" data-name="Trazado 2246" d="M141.22,165.21c-.36-.22,5.89-11.12,14-24.34s14.93-23.75,15.3-23.52-5.88,11.12-14,24.34S141.59,165.44,141.22,165.21Z" fill="#263238"/>
        <path id="Trazado_2247" data-name="Trazado 2247" d="M187.84,74.46l-.11,25.11a6.46,6.46,0,0,0,6.65,6.48l21.8-.81Z" fill="#e0e0e0"/>
        <rect id="Rectángulo_903" data-name="Rectángulo 903" width="53.45" height="32.49" transform="translate(81.58 175.72)" fill="#ff71d5"/>
        <path id="Trazado_2248" data-name="Trazado 2248" d="M96.77,198.61,98.16,197a4.19,4.19,0,0,0,3.5,2c1.89,0,2.87-1.15,2.87-3.41v-9.42H98.47v-2.08h8.44v11.38c0,3.74-1.82,5.59-5.25,5.59a5.87,5.87,0,0,1-4.89-2.45Z" fill="#fff"/>
        <path id="Trazado_2249" data-name="Trazado 2249" d="M110.26,198.92l.89-1.87a8.6,8.6,0,0,0,5.53,1.94c2.91,0,4.15-1.13,4.15-2.59,0-4.1-10.16-1.51-10.16-7.74,0-2.59,2-4.8,6.42-4.8a9.88,9.88,0,0,1,5.4,1.49l-.8,1.92a8.6,8.6,0,0,0-4.6-1.37c-2.85,0-4.07,1.2-4.07,2.66,0,4.1,10.16,1.54,10.16,7.7,0,2.56-2.06,4.77-6.5,4.77A10,10,0,0,1,110.26,198.92Z" fill="#fff"/>
      </g>
      <g id="freepik--Angular--inject-5">
        <path id="Trazado_2250" data-name="Trazado 2250" d="M318.9,83.05a7.92,7.92,0,0,0-4.37,7.17l.38,59.47a7.921,7.921,0,0,0,3.842,6.791L368.13,185.91h0l47.27-30.65a7.93,7.93,0,0,0,3.59-6.73l-.39-62.09a7.93,7.93,0,0,0-4.72-7.24L367.34,59.08Z" fill="#ff71d5"/>
        <g id="Grupo_2033" data-name="Grupo 2033" opacity="0.2">
          <path id="Trazado_2251" data-name="Trazado 2251" d="M367.34,59.08l.8,126.83,47.21-30.59a7.93,7.93,0,0,0,3.66-6.7l-.37-62.34A7.73,7.73,0,0,0,414,79.21Z"/>
        </g>
        <path id="Trazado_2252" data-name="Trazado 2252" d="M381.16,130.3l-28.8.18-5.87,13.92h-8l24.2-55.67h7.66l25,55.36-8.13.06Zm-2.75-6.3L366.55,96.84,355,124.12Z" fill="#fff"/>
      </g>
      <g id="freepik--Screen--inject-5">
        <rect id="Rectángulo_904" data-name="Rectángulo 904" width="271.84" height="158.4" transform="translate(344.86 156.27)" fill="#263238"/>
        <path id="Trazado_2253" data-name="Trazado 2253" d="M366.12,306.7c-.14,0-.26-32.39-.26-72.34S366,162,366.12,162s.26,32.38.26,72.34S366.27,306.7,366.12,306.7Z" fill="#e0e0e0"/>
        <path id="Trazado_2254" data-name="Trazado 2254" d="M360.53,168.12a39.07,39.07,0,0,1-9,0,39.071,39.071,0,0,1,9,0Z" fill="#e0e0e0"/>
        <path id="Trazado_2255" data-name="Trazado 2255" d="M360.53,177.65a39.068,39.068,0,0,1-9,0,39.07,39.07,0,0,1,9,0Z" fill="#e0e0e0"/>
        <path id="Trazado_2256" data-name="Trazado 2256" d="M360.53,187.19a39.068,39.068,0,0,1-9,0,39.07,39.07,0,0,1,9,0Z" fill="#e0e0e0"/>
        <path id="Trazado_2257" data-name="Trazado 2257" d="M360.53,196.72a39.07,39.07,0,0,1-9,0,39.069,39.069,0,0,1,9,0Z" fill="#e0e0e0"/>
        <path id="Trazado_2258" data-name="Trazado 2258" d="M360.53,206.25a39.07,39.07,0,0,1-9,0,39.071,39.071,0,0,1,9,0Z" fill="#e0e0e0"/>
        <path id="Trazado_2259" data-name="Trazado 2259" d="M360.53,215.79a39.069,39.069,0,0,1-9,0,39.069,39.069,0,0,1,9,0Z" fill="#e0e0e0"/>
        <path id="Trazado_2260" data-name="Trazado 2260" d="M360.53,225.32a39.07,39.07,0,0,1-9,0,39.07,39.07,0,0,1,9,0Z" fill="#e0e0e0"/>
        <path id="Trazado_2261" data-name="Trazado 2261" d="M360.53,234.85a39.07,39.07,0,0,1-9,0,39.069,39.069,0,0,1,9,0Z" fill="#e0e0e0"/>
        <path id="Trazado_2262" data-name="Trazado 2262" d="M360.53,244.39a39.071,39.071,0,0,1-9,0,39.07,39.07,0,0,1,9,0Z" fill="#e0e0e0"/>
        <path id="Trazado_2263" data-name="Trazado 2263" d="M360.53,253.92a39.069,39.069,0,0,1-9,0,39.069,39.069,0,0,1,9,0Z" fill="#e0e0e0"/>
        <path id="Trazado_2264" data-name="Trazado 2264" d="M360.53,263.45a39.071,39.071,0,0,1-9,0,39.071,39.071,0,0,1,9,0Z" fill="#e0e0e0"/>
        <path id="Trazado_2265" data-name="Trazado 2265" d="M360.53,273a39.071,39.071,0,0,1-9,0,39.068,39.068,0,0,1,9,0Z" fill="#e0e0e0"/>
        <path id="Trazado_2266" data-name="Trazado 2266" d="M360.53,282.52a39.069,39.069,0,0,1-9,0,39.069,39.069,0,0,1,9,0Z" fill="#e0e0e0"/>
        <path id="Trazado_2267" data-name="Trazado 2267" d="M360.53,292.05a39.071,39.071,0,0,1-9,0A39.071,39.071,0,0,1,360.53,292.05Z" fill="#e0e0e0"/>
        <path id="Trazado_2268" data-name="Trazado 2268" d="M360.53,301.59a39.069,39.069,0,0,1-9,0,39.069,39.069,0,0,1,9,0Z" fill="#e0e0e0"/>
        <path id="Trazado_2269" data-name="Trazado 2269" d="M396.62,167.56c0,.14-5.23.26-11.68.26s-11.69-.12-11.69-.26,5.23-.26,11.69-.26S396.62,167.41,396.62,167.56Z" fill="#ff71d5"/>
        <path id="Trazado_2270" data-name="Trazado 2270" d="M396.62,301.59c0,.14-5.23.26-11.68.26s-11.69-.12-11.69-.26,5.23-.26,11.69-.26S396.62,301.44,396.62,301.59Z" fill="#ff71d5"/>
        <path id="Trazado_2271" data-name="Trazado 2271" d="M429.16,187.19c0,.14-9.79.26-21.86.26s-21.86-.12-21.86-.26,9.79-.26,21.86-.26S429.16,187,429.16,187.19Z" fill="#ff71d5"/>
        <path id="Trazado_2272" data-name="Trazado 2272" d="M479.7,187.19c0,.14-9.78.26-21.85.26s-21.86-.12-21.86-.26,9.78-.26,21.86-.26S479.7,187,479.7,187.19Z" fill="#e0e0e0"/>
        <path id="Trazado_2273" data-name="Trazado 2273" d="M460.39,196.72c0,.14-14.43.26-32.21.26s-32.22-.12-32.22-.26,14.42-.26,32.22-.26S460.39,196.58,460.39,196.72Z" fill="#e0e0e0"/>
        <path id="Trazado_2274" data-name="Trazado 2274" d="M460.39,206.25c0,.15-14.43.26-32.21.26S396,206.4,396,206.25s14.42-.26,32.22-.26S460.39,206.11,460.39,206.25Z" fill="#e0e0e0"/>
        <path id="Trazado_2275" data-name="Trazado 2275" d="M504.73,234.85c0,.15-14.42.26-32.21.26s-32.21-.11-32.21-.26,14.42-.26,32.21-.26S504.73,234.71,504.73,234.85Z" fill="#e0e0e0"/>
        <path id="Trazado_2276" data-name="Trazado 2276" d="M485.6,215.79c0,.14-14.43.26-32.21.26s-32.22-.12-32.22-.26,14.42-.26,32.22-.26S485.6,215.64,485.6,215.79Z" fill="#e0e0e0"/>
        <path id="Trazado_2277" data-name="Trazado 2277" d="M564.32,215.79c0,.14-14.42.26-32.21.26s-32.21-.12-32.21-.26,14.42-.26,32.21-.26S564.32,215.64,564.32,215.79Z" fill="#e0e0e0"/>
        <path id="Trazado_2278" data-name="Trazado 2278" d="M536.94,196.72c0,.14-14.42.26-32.21.26s-32.21-.12-32.21-.26,14.42-.26,32.21-.26S536.94,196.58,536.94,196.72Z" fill="#fafafa"/>
        <path id="Trazado_2279" data-name="Trazado 2279" d="M581.45,234.85c0,.15-14.43.26-32.21.26S517,235,517,234.85s14.42-.26,32.22-.26S581.45,234.71,581.45,234.85Z" fill="#fafafa"/>
        <path id="Trazado_2280" data-name="Trazado 2280" d="M572.56,206.25c0,.15-22.4.26-50,.26s-50-.11-50-.26,22.39-.26,50-.26S572.56,206.11,572.56,206.25Z" fill="#455a64"/>
        <path id="Trazado_2281" data-name="Trazado 2281" d="M396.62,177.65c0,.15-5.23.26-11.68.26s-11.69-.11-11.69-.26,5.23-.26,11.69-.26S396.62,177.51,396.62,177.65Z" fill="#fafafa"/>
        <path id="Trazado_2282" data-name="Trazado 2282" d="M396.62,292.05c0,.15-5.23.26-11.68.26s-11.69-.11-11.69-.26,5.23-.26,11.69-.26S396.62,291.91,396.62,292.05Z" fill="#fafafa"/>
        <path id="Trazado_2283" data-name="Trazado 2283" d="M408.19,215.79c0,.14-5.23.26-11.68.26s-11.68-.12-11.68-.26,5.23-.26,11.68-.26S408.19,215.64,408.19,215.79Z" fill="#fafafa"/>
        <path id="Trazado_2284" data-name="Trazado 2284" d="M595.45,215.79c0,.14-5.23.26-11.68.26s-11.68-.12-11.68-.26,5.23-.26,11.68-.26S595.45,215.64,595.45,215.79Z" fill="#ff71d5"/>
        <path id="Trazado_2285" data-name="Trazado 2285" d="M429.16,253.86c0,.15-9.79.26-21.86.26s-21.86-.11-21.86-.26,9.79-.26,21.86-.26S429.16,253.72,429.16,253.86Z" fill="#ff71d5"/>
        <path id="Trazado_2286" data-name="Trazado 2286" d="M479.7,253.86c0,.15-9.78.26-21.85.26S436,254,436,253.86s9.78-.26,21.86-.26S479.7,253.72,479.7,253.86Z" fill="#e0e0e0"/>
        <path id="Trazado_2287" data-name="Trazado 2287" d="M460.39,263.4c0,.14-14.43.26-32.21.26S396,263.54,396,263.4s14.42-.26,32.22-.26S460.39,263.25,460.39,263.4Z" fill="#e0e0e0"/>
        <path id="Trazado_2288" data-name="Trazado 2288" d="M460.39,272.93c0,.14-14.43.26-32.21.26s-32.22-.12-32.22-.26,14.42-.26,32.22-.26S460.39,272.79,460.39,272.93Z" fill="#e0e0e0"/>
        <path id="Trazado_2289" data-name="Trazado 2289" d="M485.6,282.46c0,.15-14.43.26-32.21.26s-32.22-.11-32.22-.26,14.42-.26,32.22-.26S485.6,282.32,485.6,282.46Z" fill="#e0e0e0"/>
        <path id="Trazado_2290" data-name="Trazado 2290" d="M564.32,282.46c0,.15-14.42.26-32.21.26s-32.21-.11-32.21-.26,14.42-.26,32.21-.26S564.32,282.32,564.32,282.46Z" fill="#e0e0e0"/>
        <path id="Trazado_2291" data-name="Trazado 2291" d="M536.94,263.4c0,.14-14.42.26-32.21.26s-32.21-.12-32.21-.26,14.42-.26,32.21-.26S536.94,263.25,536.94,263.4Z" fill="#fafafa"/>
        <path id="Trazado_2292" data-name="Trazado 2292" d="M572.56,272.93c0,.14-22.4.26-50,.26s-50-.12-50-.26,22.39-.26,50-.26S572.56,272.79,572.56,272.93Z" fill="#455a64"/>
        <path id="Trazado_2293" data-name="Trazado 2293" d="M408.19,282.46c0,.15-5.23.26-11.68.26s-11.68-.11-11.68-.26,5.23-.26,11.68-.26S408.19,282.32,408.19,282.46Z" fill="#fafafa"/>
        <path id="Trazado_2294" data-name="Trazado 2294" d="M595.45,282.46c0,.15-5.23.26-11.68.26s-11.68-.11-11.68-.26,5.23-.26,11.68-.26S595.45,282.32,595.45,282.46Z" fill="#ff71d5"/>
      </g>
      <g id="freepik--React--inject-5" transform="translate(-502.964 30)">
        <path id="Trazado_2295" data-name="Trazado 2295" d="M652.65,312.48c-.19.11-1.88-2.7-5.29-7.52-1.7-2.41-3.85-5.31-6.52-8.53a95,95,0,0,0-9.79-10.21,54.261,54.261,0,0,0-6.46-5,24.431,24.431,0,0,0-7.83-3.52,9.55,9.55,0,0,0-4.22-.06,6.29,6.29,0,0,0-3.44,2.21,10.171,10.171,0,0,0-1.89,4.08,22.079,22.079,0,0,0-.6,4.87,48.1,48.1,0,0,0,1.14,10.39,84.4,84.4,0,0,0,3,10.62A133,133,0,0,0,634,350.06a86.308,86.308,0,0,0,7.68,7.93,48.2,48.2,0,0,0,8.43,6.19,23,23,0,0,0,4.52,1.92,10.369,10.369,0,0,0,4.48.4,6.25,6.25,0,0,0,3.63-1.89,9.42,9.42,0,0,0,2.06-3.67,24.319,24.319,0,0,0,.86-8.54,52.821,52.821,0,0,0-1.07-8.09,93.8,93.8,0,0,0-4-13.58c-1.45-3.92-2.89-7.23-4.12-9.91-2.47-5.37-4.06-8.23-3.87-8.34a9.3,9.3,0,0,1,1.4,1.94c.82,1.33,2,3.32,3.38,5.95a104.715,104.715,0,0,1,4.57,9.83,89.734,89.734,0,0,1,4.39,13.73,54.485,54.485,0,0,1,1.28,8.35,26.339,26.339,0,0,1-.81,9.31,11.7,11.7,0,0,1-2.5,4.55,8.43,8.43,0,0,1-4.87,2.61,12.52,12.52,0,0,1-5.49-.39,24.581,24.581,0,0,1-5-2.08,49.428,49.428,0,0,1-8.94-6.43,86.252,86.252,0,0,1-8-8.13,131.909,131.909,0,0,1-23.7-41,85.287,85.287,0,0,1-3-11,49.771,49.771,0,0,1-1.11-11,24.451,24.451,0,0,1,.72-5.39,12.64,12.64,0,0,1,2.4-5,8.54,8.54,0,0,1,4.7-2.91,11.649,11.649,0,0,1,5.2.11,26.381,26.381,0,0,1,8.46,3.95,56.1,56.1,0,0,1,6.6,5.28A90.553,90.553,0,0,1,642,295.52c2.6,3.35,4.64,6.36,6.23,8.87s2.73,4.53,3.46,5.91a9.087,9.087,0,0,1,.96,2.18Z" fill="#ff71d5"/>
        <path id="Trazado_2296" data-name="Trazado 2296" d="M621.77,312.42c.18.11-1.44,2.84-4,8-1.26,2.56-2.74,5.73-4.23,9.49a86.106,86.106,0,0,0-4.07,13.06,49.154,49.154,0,0,0-1.12,7.8,23,23,0,0,0,.8,8.24,9.489,9.489,0,0,0,2,3.57,6.56,6.56,0,0,0,3.48,1.94,10,10,0,0,0,4.35-.12,20.228,20.228,0,0,0,4.46-1.6,43.78,43.78,0,0,0,8.43-5.55,79.377,79.377,0,0,0,7.74-7.34,122.52,122.52,0,0,0,23.63-38.18,78.369,78.369,0,0,0,3.11-10.21,43.805,43.805,0,0,0,1.21-10,20.515,20.515,0,0,0-.56-4.7,10.06,10.06,0,0,0-1.83-3.95,6.57,6.57,0,0,0-3.3-2.25,9.48,9.48,0,0,0-4.08-.18,23.091,23.091,0,0,0-7.73,2.95,50.744,50.744,0,0,0-6.48,4.49,87.144,87.144,0,0,0-9.87,9.47c-2.7,3-4.88,5.75-6.61,8-3.46,4.54-5.18,7.21-5.36,7.1a7.6,7.6,0,0,1,1-2.09c.75-1.31,1.9-3.23,3.53-5.6a105,105,0,0,1,6.33-8.38,82.53,82.53,0,0,1,9.8-9.94,49.514,49.514,0,0,1,6.63-4.8,25,25,0,0,1,8.42-3.36,11.77,11.77,0,0,1,5,.18,8.82,8.82,0,0,1,4.46,2.95,12.471,12.471,0,0,1,2.33,4.8,23.242,23.242,0,0,1,.68,5.24A45.659,45.659,0,0,1,668.81,302a80,80,0,0,1-3.15,10.56,122.349,122.349,0,0,1-24.15,39,80.2,80.2,0,0,1-8,7.54,45.842,45.842,0,0,1-9,5.78,22.861,22.861,0,0,1-5,1.73,12.28,12.28,0,0,1-5.33.06,8.82,8.82,0,0,1-4.63-2.67,11.729,11.729,0,0,1-2.41-4.42,25,25,0,0,1-.75-9,49.547,49.547,0,0,1,1.34-8.08,82.48,82.48,0,0,1,4.52-13.21,104.145,104.145,0,0,1,4.67-9.4c1.4-2.52,2.6-4.4,3.44-5.66S621.69,312.37,621.77,312.42Z" fill="#ff71d5"/>
        <path id="Trazado_2297" data-name="Trazado 2297" d="M635.24,300.91c0,.22-3.18.27-8.87.82-2.84.28-6.31.7-10.29,1.4a87.749,87.749,0,0,0-13.25,3.42,50.07,50.07,0,0,0-7.22,3.15,22.89,22.89,0,0,0-6.59,5,9.529,9.529,0,0,0-2,3.56,6.649,6.649,0,0,0,.18,4,10.22,10.22,0,0,0,2.39,3.64,20.875,20.875,0,0,0,3.71,2.94,43.831,43.831,0,0,0,9.15,4.25,78.157,78.157,0,0,0,10.33,2.72,122.14,122.14,0,0,0,44.89,0A78,78,0,0,0,668,333.1a43.676,43.676,0,0,0,9.16-4.25,20.88,20.88,0,0,0,3.71-2.94,10.219,10.219,0,0,0,2.39-3.64,6.65,6.65,0,0,0,.18-4,9.531,9.531,0,0,0-2-3.56,22.89,22.89,0,0,0-6.59-5,48,48,0,0,0-7.22-3.15,87.75,87.75,0,0,0-13.25-3.42c-4-.7-7.45-1.12-10.29-1.4-5.69-.55-8.87-.6-8.86-.82a7.76,7.76,0,0,1,2.3-.24c1.51-.05,3.75-.08,6.63.05a102.618,102.618,0,0,1,10.45,1,82.6,82.6,0,0,1,13.61,3.1,50.713,50.713,0,0,1,7.57,3.12,24.859,24.859,0,0,1,7.29,5.39,11.7,11.7,0,0,1,2.49,4.37,8.86,8.86,0,0,1-.16,5.34,12.36,12.36,0,0,1-2.86,4.51,22.218,22.218,0,0,1-4.1,3.33,45.692,45.692,0,0,1-9.64,4.59,79.172,79.172,0,0,1-10.64,2.87,121.841,121.841,0,0,1-45.89,0,79.178,79.178,0,0,1-10.64-2.87,45.688,45.688,0,0,1-9.64-4.59,22.55,22.55,0,0,1-4.1-3.33,12.28,12.28,0,0,1-2.86-4.51,8.86,8.86,0,0,1-.16-5.34,11.77,11.77,0,0,1,2.49-4.37,24.911,24.911,0,0,1,7.29-5.39,49.191,49.191,0,0,1,7.57-3.11,81.488,81.488,0,0,1,13.61-3.11c4.06-.58,7.58-.85,10.45-1s5.12-.1,6.63-.05a7.869,7.869,0,0,1,2.32.23Z" fill="#ff71d5"/>
        <circle id="Elipse_204" data-name="Elipse 204" cx="8.37" cy="8.37" r="8.37" transform="translate(628.088 329.195) rotate(-80.76)" fill="#ff71d5"/>
      </g>
      <g id="freepik--Device--inject-5">
        <path id="Trazado_2298" data-name="Trazado 2298" d="M202.13,235.47H499.58a6.74,6.74,0,0,1,6.74,6.74v185a14.57,14.57,0,0,1-14.57,14.57H208.95a14.57,14.57,0,0,1-14.57-14.57v-184a7.75,7.75,0,0,1,7.75-7.74Z" fill="#455a64"/>
        <path id="Trazado_2299" data-name="Trazado 2299" d="M181.34,426.5h338v4.33a13.72,13.72,0,0,1-13.72,13.72H195.06a13.72,13.72,0,0,1-13.72-13.72Z" fill="#455a64"/>
        <rect id="Rectángulo_905" data-name="Rectángulo 905" width="294.32" height="174.2" transform="translate(202.75 243.67)" fill="#e0e0e0"/>
        <path id="Trazado_2300" data-name="Trazado 2300" d="M319.6,426.5l4.19,6.67H382.8l3.9-6.67Z" fill="#263238"/>
        <rect id="Rectángulo_906" data-name="Rectángulo 906" width="311.94" height="0.99" transform="translate(194.43 426.43)" fill="#263238"/>
        <rect id="Rectángulo_907" data-name="Rectángulo 907" width="277.56" height="164.11" transform="translate(211.49 253.76)" fill="#263238"/>
        <path id="Trazado_2301" data-name="Trazado 2301" d="M232.78,413.05c-.14,0-.26-34.95-.26-78.06s.12-78.06.26-78.06S233,291.87,233,335,232.92,413.05,232.78,413.05Z" fill="#e0e0e0"/>
        <path id="Trazado_2302" data-name="Trazado 2302" d="M227.18,271.08a19.36,19.36,0,0,1-4.51.26,19.36,19.36,0,0,1-4.51-.26,39.249,39.249,0,0,1,9,0Z" fill="#e0e0e0"/>
        <path id="Trazado_2303" data-name="Trazado 2303" d="M227.53,262.22a19.36,19.36,0,0,1-4.51.26,19.36,19.36,0,0,1-4.51-.26,39.249,39.249,0,0,1,9,0Z" fill="#e0e0e0"/>
        <path id="Trazado_2304" data-name="Trazado 2304" d="M227.18,280.63a39.251,39.251,0,0,1-9,0,39.251,39.251,0,0,1,9,0Z" fill="#e0e0e0"/>
        <path id="Trazado_2305" data-name="Trazado 2305" d="M227.18,290.18a39.249,39.249,0,0,1-9,0,19.36,19.36,0,0,1,4.51-.26,19.361,19.361,0,0,1,4.49.26Z" fill="#e0e0e0"/>
        <path id="Trazado_2306" data-name="Trazado 2306" d="M227.18,299.73a39.249,39.249,0,0,1-9,0,19.36,19.36,0,0,1,4.51-.26,19.361,19.361,0,0,1,4.49.26Z" fill="#e0e0e0"/>
        <path id="Trazado_2307" data-name="Trazado 2307" d="M227.18,309.28a39.249,39.249,0,0,1-9,0,19.358,19.358,0,0,1,4.51-.26,19.36,19.36,0,0,1,4.49.26Z" fill="#e0e0e0"/>
        <path id="Trazado_2308" data-name="Trazado 2308" d="M227.18,318.82a19,19,0,0,1-4.51.27,19,19,0,0,1-4.51-.27,39.251,39.251,0,0,1,9,0Z" fill="#e0e0e0"/>
        <path id="Trazado_2309" data-name="Trazado 2309" d="M227.18,328.37a19.359,19.359,0,0,1-4.51.26,19.36,19.36,0,0,1-4.51-.26,39.253,39.253,0,0,1,9,0Z" fill="#e0e0e0"/>
        <path id="Trazado_2310" data-name="Trazado 2310" d="M227.18,337.92a19.36,19.36,0,0,1-4.51.26,19.36,19.36,0,0,1-4.51-.26,39.251,39.251,0,0,1,9,0Z" fill="#e0e0e0"/>
        <path id="Trazado_2311" data-name="Trazado 2311" d="M227.18,347.47a19.36,19.36,0,0,1-4.51.26,19.362,19.362,0,0,1-4.51-.26,39.251,39.251,0,0,1,9,0Z" fill="#e0e0e0"/>
        <path id="Trazado_2312" data-name="Trazado 2312" d="M227.18,357a39.249,39.249,0,0,1-9,0,39.251,39.251,0,0,1,9,0Z" fill="#e0e0e0"/>
        <path id="Trazado_2313" data-name="Trazado 2313" d="M227.18,366.57a39.251,39.251,0,0,1-9,0,19.36,19.36,0,0,1,4.51-.26,19.36,19.36,0,0,1,4.49.26Z" fill="#e0e0e0"/>
        <path id="Trazado_2314" data-name="Trazado 2314" d="M227.18,376.12a39.251,39.251,0,0,1-9,0,19.36,19.36,0,0,1,4.51-.26,19.36,19.36,0,0,1,4.49.26Z" fill="#e0e0e0"/>
        <path id="Trazado_2315" data-name="Trazado 2315" d="M227.18,385.67a39.249,39.249,0,0,1-9,0,19.36,19.36,0,0,1,4.51-.26,19.36,19.36,0,0,1,4.49.26Z" fill="#e0e0e0"/>
        <path id="Trazado_2316" data-name="Trazado 2316" d="M227.18,395.22a39.249,39.249,0,0,1-9,0,19,19,0,0,1,4.51-.27,19,19,0,0,1,4.49.27Z" fill="#e0e0e0"/>
        <path id="Trazado_2317" data-name="Trazado 2317" d="M227.18,404.76a19.362,19.362,0,0,1-4.51.26,19.362,19.362,0,0,1-4.51-.26,39.251,39.251,0,0,1,9,0Z" fill="#e0e0e0"/>
        <path id="Trazado_2318" data-name="Trazado 2318" d="M263.33,270.52c0,.14-5.24.26-11.7.26s-11.71-.12-11.71-.26,5.24-.26,11.71-.26S263.33,270.37,263.33,270.52Z" fill="#ff71d5"/>
        <path id="Trazado_2319" data-name="Trazado 2319" d="M263.33,404.76c0,.15-5.24.26-11.7.26s-11.71-.11-11.71-.26,5.24-.26,11.71-.26S263.33,404.62,263.33,404.76Z" fill="#ff71d5"/>
        <path id="Trazado_2320" data-name="Trazado 2320" d="M295.92,290.18c0,.14-9.81.26-21.9.26s-21.89-.12-21.89-.26,9.8-.26,21.89-.26S295.92,290,295.92,290.18Z" fill="#ff71d5"/>
        <path id="Trazado_2321" data-name="Trazado 2321" d="M346.55,290.18c0,.14-9.81.26-21.9.26s-21.89-.12-21.89-.26,9.8-.26,21.89-.26S346.55,290,346.55,290.18Z" fill="#e0e0e0"/>
        <path id="Trazado_2322" data-name="Trazado 2322" d="M327.2,299.73c0,.14-14.45.26-32.27.26s-32.26-.12-32.26-.26,14.44-.26,32.26-.26S327.2,299.58,327.2,299.73Z" fill="#e0e0e0"/>
        <path id="Trazado_2323" data-name="Trazado 2323" d="M327.2,309.28c0,.14-14.45.26-32.27.26s-32.26-.12-32.26-.26,14.44-.26,32.26-.26S327.2,309.13,327.2,309.28Z" fill="#e0e0e0"/>
        <path id="Trazado_2324" data-name="Trazado 2324" d="M371.61,337.92c0,.15-14.44.26-32.26.26s-32.27-.11-32.27-.26,14.45-.26,32.27-.26S371.61,337.78,371.61,337.92Z" fill="#e0e0e0"/>
        <path id="Trazado_2325" data-name="Trazado 2325" d="M352.45,318.82c0,.15-14.45.27-32.27.27s-32.26-.12-32.26-.27,14.44-.26,32.26-.26S352.45,318.68,352.45,318.82Z" fill="#e0e0e0"/>
        <path id="Trazado_2326" data-name="Trazado 2326" d="M431.3,318.82c0,.15-14.45.27-32.26.27s-32.27-.12-32.27-.27,14.45-.26,32.27-.26S431.3,318.68,431.3,318.82Z" fill="#e0e0e0"/>
        <path id="Trazado_2327" data-name="Trazado 2327" d="M403.88,299.73c0,.14-14.45.26-32.27.26s-32.26-.12-32.26-.26,14.44-.26,32.26-.26S403.88,299.58,403.88,299.73Z" fill="#fafafa"/>
        <path id="Trazado_2328" data-name="Trazado 2328" d="M448.45,337.92c0,.15-14.45.26-32.26.26s-32.27-.11-32.27-.26,14.45-.26,32.27-.26S448.45,337.78,448.45,337.92Z" fill="#fafafa"/>
        <path id="Trazado_2329" data-name="Trazado 2329" d="M439.55,309.28c0,.14-22.43.26-50.1.26s-50.1-.12-50.1-.26,22.43-.26,50.1-.26S439.55,309.13,439.55,309.28Z" fill="#455a64"/>
        <path id="Trazado_2330" data-name="Trazado 2330" d="M263.33,280.63c0,.14-5.24.26-11.7.26s-11.71-.12-11.71-.26,5.24-.26,11.71-.26S263.33,280.49,263.33,280.63Z" fill="#fafafa"/>
        <path id="Trazado_2331" data-name="Trazado 2331" d="M263.33,395.22c0,.14-5.24.26-11.7.26s-11.71-.12-11.71-.26,5.24-.27,11.71-.27S263.33,395.07,263.33,395.22Z" fill="#fafafa"/>
        <path id="Trazado_2332" data-name="Trazado 2332" d="M274.92,318.82c0,.15-5.24.27-11.7.27s-11.7-.12-11.7-.27,5.23-.26,11.7-.26S274.92,318.68,274.92,318.82Z" fill="#fafafa"/>
        <path id="Trazado_2333" data-name="Trazado 2333" d="M462.48,318.82c0,.15-5.24.27-11.7.27s-11.7-.12-11.7-.27,5.23-.26,11.7-.26S462.48,318.68,462.48,318.82Z" fill="#ff71d5"/>
        <path id="Trazado_2334" data-name="Trazado 2334" d="M295.92,357c0,.15-9.81.26-21.9.26s-21.89-.11-21.89-.26,9.8-.26,21.89-.26S295.92,356.82,295.92,357Z" fill="#ff71d5"/>
        <path id="Trazado_2335" data-name="Trazado 2335" d="M346.55,357c0,.15-9.81.26-21.9.26s-21.89-.11-21.89-.26,9.8-.26,21.89-.26S346.55,356.82,346.55,357Z" fill="#e0e0e0"/>
        <path id="Trazado_2336" data-name="Trazado 2336" d="M327.2,366.51c0,.15-14.45.26-32.27.26s-32.26-.11-32.26-.26,14.44-.26,32.26-.26S327.2,366.37,327.2,366.51Z" fill="#e0e0e0"/>
        <path id="Trazado_2337" data-name="Trazado 2337" d="M327.2,376.06c0,.15-14.45.26-32.27.26s-32.26-.11-32.26-.26,14.44-.26,32.26-.26S327.2,375.92,327.2,376.06Z" fill="#e0e0e0"/>
        <path id="Trazado_2338" data-name="Trazado 2338" d="M352.45,385.61c0,.14-14.45.26-32.27.26s-32.26-.12-32.26-.26,14.44-.26,32.26-.26S352.45,385.47,352.45,385.61Z" fill="#e0e0e0"/>
        <path id="Trazado_2339" data-name="Trazado 2339" d="M431.3,385.61c0,.14-14.45.26-32.26.26s-32.27-.12-32.27-.26,14.45-.26,32.27-.26S431.3,385.47,431.3,385.61Z" fill="#e0e0e0"/>
        <path id="Trazado_2340" data-name="Trazado 2340" d="M403.88,366.51c0,.15-14.45.26-32.27.26s-32.26-.11-32.26-.26,14.44-.26,32.26-.26S403.88,366.37,403.88,366.51Z" fill="#fafafa"/>
        <path id="Trazado_2341" data-name="Trazado 2341" d="M439.55,376.06c0,.15-22.43.26-50.1.26s-50.1-.11-50.1-.26,22.43-.26,50.1-.26S439.55,375.92,439.55,376.06Z" fill="#455a64"/>
        <path id="Trazado_2342" data-name="Trazado 2342" d="M274.92,385.61c0,.14-5.24.26-11.7.26s-11.7-.12-11.7-.26,5.23-.26,11.7-.26S274.92,385.47,274.92,385.61Z" fill="#fafafa"/>
        <path id="Trazado_2343" data-name="Trazado 2343" d="M462.48,385.61c0,.14-5.24.26-11.7.26s-11.7-.12-11.7-.26,5.23-.26,11.7-.26S462.48,385.47,462.48,385.61Z" fill="#ff71d5"/>
      </g>
      <g id="freepik--character-2--inject-5" transform="translate(419.01 162.051)">
        <path id="Trazado_2344" data-name="Trazado 2344" d="M673.424,399.238l-8.552,26.7a30.85,30.85,0,0,1-23.945,21.379l-57,10.69-15.5-.492,15.5-19.241,42.758-14.6a11.481,11.481,0,0,0,8.552-8.21l17.1-37.114,21.614,13.255Z" transform="translate(-518.809 -200.747)" fill="#ffbe9d"/>
        <path id="Trazado_2345" data-name="Trazado 2345" d="M565.618,314.417a18.792,18.792,0,0,1,3.207-11.844,14.474,14.474,0,0,1,9.364-7.226,10.689,10.689,0,0,1,11.1,6.542,13.94,13.94,0,0,1-1.71,13.17,17.591,17.591,0,0,1-5.2,4.853,32.623,32.623,0,0,1,12.828,16.355c.791,2.266,1.326,4.618,2.309,6.8a10.134,10.134,0,0,0,4.725,5.238c1.625.727,3.442.791,5.11,1.411a9.364,9.364,0,0,1,5.623,6.414,11.374,11.374,0,0,1-1.518,8.552,8.831,8.831,0,0,0-1.924,3.977,10.248,10.248,0,0,0,.62,2.972,8.124,8.124,0,0,1-13.341,7.932,11.566,11.566,0,0,1-4.917,6.179c-2.437,1.155-6.029.107-6.414-2.544a6.414,6.414,0,0,1-12.208-2.309l-45.965-50.263C534.148,312.365,560.978,313.926,565.618,314.417Z" transform="translate(-370.169 -295.278)" fill="#ff71d5"/>
        <path id="Trazado_2346" data-name="Trazado 2346" d="M591.431,316.518a5.772,5.772,0,0,1,5.131,5.815h0l-3.25,77.393c-.128,9.15-16.719,19.968-26.489,19.754h0c-9.9-.214-6.991-10.69-7.119-19.391-.257-14.538-.235-19.99-.257-19.9s-12.485-2.138-15.072-18.365c-1.283-8.1-.877-21.379-.193-32.24.62-9.77,7.1-21.764,16.826-20.738Z" transform="translate(-388.2 -279.911)" fill="#ffbe9d"/>
        <path id="Trazado_2347" data-name="Trazado 2347" d="M564.12,324.444a2.138,2.138,0,0,0,2.01,2.138,2.01,2.01,0,0,0,2.138-1.881,2.138,2.138,0,0,0-2.01-2.138,2.01,2.01,0,0,0-2.138,1.881Z" transform="translate(-403.904 -264.234)" fill="#263238"/>
        <path id="Trazado_2348" data-name="Trazado 2348" d="M562.841,322.912c.257.278,1.839-.9,4.083-.9s3.912,1.133,4.148.855-.15-.6-.855-1.133a5.857,5.857,0,0,0-3.314-1.026,5.6,5.6,0,0,0-3.271,1.069C562.948,322.292,562.713,322.784,562.841,322.912Z" transform="translate(-403.972 -266.337)" fill="#263238"/>
        <path id="Trazado_2349" data-name="Trazado 2349" d="M553.84,324.444a2.138,2.138,0,0,0,2.01,2.138,2.01,2.01,0,0,0,2.138-1.881,2.138,2.138,0,0,0-2.01-2.138,2.009,2.009,0,0,0-2.138,1.881Z" transform="translate(-371.646 -264.234)" fill="#263238"/>
        <path id="Trazado_2350" data-name="Trazado 2350" d="M552.5,323.112c.257.257,1.839-.9,4.083-.9s3.891,1.133,4.148.855-.15-.62-.877-1.133a5.644,5.644,0,0,0-3.314-1.026,5.579,5.579,0,0,0-3.25,1.048C552.6,322.492,552.369,322.984,552.5,323.112Z" transform="translate(-371.522 -266.11)" fill="#263238"/>
        <path id="Trazado_2351" data-name="Trazado 2351" d="M565.391,339.72a13.976,13.976,0,0,0-3.656-.663c-.577,0-1.112-.171-1.219-.577a2.95,2.95,0,0,1,.385-1.689c.556-1.39,1.112-2.843,1.71-4.383a73.993,73.993,0,0,0,3.806-11.438,75.167,75.167,0,0,0-4.725,11.117c-.556,1.539-1.112,2.993-1.625,4.383a3.356,3.356,0,0,0-.3,2.266,1.454,1.454,0,0,0,.941.834,3.545,3.545,0,0,0,.983.128,14.837,14.837,0,0,0,3.7.021Z" transform="translate(-392.582 -266.041)" fill="#263238"/>
        <path id="Trazado_2352" data-name="Trazado 2352" d="M550.69,345.275a41.519,41.519,0,0,0,21.828-5.815s-5.3,11.181-21.593,9.663Z" transform="translate(-379.442 -245.001)" fill="#eb996e"/>
        <path id="Trazado_2353" data-name="Trazado 2353" d="M556.824,333.081a4.019,4.019,0,0,1,3.613-1.5A3.741,3.741,0,0,1,563,332.952a2.33,2.33,0,0,1,.171,2.673,2.715,2.715,0,0,1-2.95.748,8.381,8.381,0,0,1-2.865-1.71,2.7,2.7,0,0,1-.641-.663.748.748,0,0,1,0-.834" transform="translate(-383.054 -253.994)" fill="#eb996e"/>
        <path id="Trazado_2354" data-name="Trazado 2354" d="M564.087,330.46c-.385,0-.385,2.437-2.459,4.276s-4.7,1.454-4.725,1.8.6.47,1.689.513a6.264,6.264,0,0,0,3.934-1.368,5.366,5.366,0,0,0,1.9-3.485C564.514,331.059,564.236,330.46,564.087,330.46Z" transform="translate(-384.651 -255.242)" fill="#263238"/>
        <path id="Trazado_2355" data-name="Trazado 2355" d="M552,321.008c.235.6,2.48.321,5.11.641s4.768,1.026,5.131.47-.214-.834-1.09-1.411a8.552,8.552,0,0,0-3.784-1.347,8.68,8.68,0,0,0-4,.47C552.4,320.238,551.912,320.794,552,321.008Z" transform="translate(-372.049 -267.939)" fill="#ff71d5"/>
        <path id="Trazado_2356" data-name="Trazado 2356" d="M562.739,319.92c.385.513,1.946,0,3.806,0s3.442.342,3.806-.192,0-.77-.791-1.261a5.344,5.344,0,0,0-3.1-.834,5.28,5.28,0,0,0-3.036,1.026C562.782,319.15,562.547,319.664,562.739,319.92Z" transform="translate(-403.036 -269.845)" fill="#ff71d5"/>
        <path id="Trazado_2357" data-name="Trazado 2357" d="M541.108,324.854a4.126,4.126,0,0,1,4.276.214,7.547,7.547,0,0,1-4.768,14.025" transform="translate(-334.563 -262.186)" fill="#ffbe9d"/>
        <path id="Trazado_2358" data-name="Trazado 2358" d="M569.693,306.295a33.1,33.1,0,0,0-15.65,4.853,22.726,22.726,0,0,0-11.181,13.277,4.66,4.66,0,0,0,.128,3.677,3.613,3.613,0,0,0,4.468.962,10.474,10.474,0,0,0,3.634-3.357,6.97,6.97,0,0,0,13.533-.15,6.114,6.114,0,0,0,6.286,5.6,8.017,8.017,0,0,0,6.927-5.473,20.547,20.547,0,0,0,2.865,7.953,6.969,6.969,0,0,0,7.376,3.015,14.5,14.5,0,0,0,0,7.29,4.981,4.981,0,0,0,5.751,3.357c2.266-.77,3.143-3.442,3.656-5.772a53.81,53.81,0,0,0,1.753-13.661A19.989,19.989,0,0,0,583.1,307.6a53.446,53.446,0,0,0-14.174-1.3" transform="translate(-388.76 -282.794)" fill="#ff71d5"/>
        <path id="Trazado_2359" data-name="Trazado 2359" d="M542.5,332.321c0-.107.641.15,1.432-.214a2.844,2.844,0,0,0,1.39-2.779,2.886,2.886,0,0,0-1.732-2.63,9.377,9.377,0,0,0-1.454-.278,1.847,1.847,0,0,1,1.625-.278,2.907,2.907,0,0,1,1.6.983,3.656,3.656,0,0,1,.812,2.138,3.25,3.25,0,0,1-2.138,3.378A1.423,1.423,0,0,1,542.5,332.321Z" transform="translate(-334.818 -260.225)" fill="#eb996e"/>
        <path id="Trazado_2360" data-name="Trazado 2360" d="M551.9,329.38a2.176,2.176,0,0,1,.684.171,13.874,13.874,0,0,1,7.119,5.836,10.456,10.456,0,0,1,1.454,4.9,11.479,11.479,0,0,1-1.368,5.73,13.447,13.447,0,0,1-4.276,4.832,12.058,12.058,0,0,1-6.649,2.138,12.635,12.635,0,0,1-11.01-6.884,10.691,10.691,0,0,1-1.155-5.772,12.037,12.037,0,0,1,1.582-4.853,11.629,11.629,0,0,1,5.388-4.917,7.767,7.767,0,0,1,1.9-.577q.684-.128.706,0a13.105,13.105,0,0,0-2.459.941,11.845,11.845,0,0,0-5.024,4.9,11.675,11.675,0,0,0-1.39,4.639,10.2,10.2,0,0,0,1.155,5.366,11.886,11.886,0,0,0,10.3,6.414,12.144,12.144,0,0,0,10.284-6.414,10.177,10.177,0,0,0,0-9.963,13.984,13.984,0,0,0-4.96-5.024A14.146,14.146,0,0,0,551.9,329.38Z" transform="translate(-338.112 -256.471)" fill="#263238"/>
        <path id="Trazado_2361" data-name="Trazado 2361" d="M538.3,313.97c.171,0,.513-1.432,1.518-3.549a19.562,19.562,0,0,1,13.832-10.9c2.309-.492,3.806-.47,3.806-.663a8.126,8.126,0,0,0-3.934-.128,18.194,18.194,0,0,0-8.765,3.72,17.98,17.98,0,0,0-5.644,7.654,8.121,8.121,0,0,0-.812,3.87Z" transform="translate(-337.866 -291.559)" fill="#e0e0e0"/>
        <path id="Trazado_2362" data-name="Trazado 2362" d="M559.552,365.957s.278,0,.577-.535a3.121,3.121,0,0,0,.385-2.138,4.64,4.64,0,0,0-2.01-2.95,38.946,38.946,0,0,0-4.041-2.138,4.938,4.938,0,0,1-2.822-4.019,23.644,23.644,0,0,1,1.112-6.136,12.222,12.222,0,0,0,.342-3.592,5.987,5.987,0,0,0-1.539-3.549,14.731,14.731,0,0,0-6.863-3.613,11.416,11.416,0,0,1-6.157-3.549,9.215,9.215,0,0,1-1.026-6.414,33.521,33.521,0,0,0,.449-6.414,17.787,17.787,0,0,0-6.179-12.058,10.967,10.967,0,0,0-1.817-1.261,2.483,2.483,0,0,0-.706-.342,22.452,22.452,0,0,1,2.138,1.924,17.959,17.959,0,0,1,4.383,6.521,17.382,17.382,0,0,1,1.176,5.281,34.751,34.751,0,0,1-.535,6.264,10.091,10.091,0,0,0,1.133,7.183,12.229,12.229,0,0,0,6.713,3.976,13.918,13.918,0,0,1,6.414,3.292,6.607,6.607,0,0,1,1,6.2,23.087,23.087,0,0,0-1.026,6.414,5.557,5.557,0,0,0,1.154,2.908,6.691,6.691,0,0,0,2.138,1.732,31.974,31.974,0,0,1,4.062,2.138,4.276,4.276,0,0,1,1.945,2.544A3.185,3.185,0,0,1,559.552,365.957Z" transform="translate(-321.665 -281.654)" fill="#e0e0e0"/>
        <path id="Trazado_2363" data-name="Trazado 2363" d="M547.653,325.677c.171,0,.321-1.732,1.176-4.276a22.79,22.79,0,0,1,5.516-9.043,23.155,23.155,0,0,1,9.043-5.473c2.608-.855,4.276-.983,4.276-1.176a10.11,10.11,0,0,0-4.554.428A20.824,20.824,0,0,0,548.016,321.1,9.726,9.726,0,0,0,547.653,325.677Z" transform="translate(-367.832 -283.512)" fill="#e0e0e0"/>
        <path id="Trazado_2364" data-name="Trazado 2364" d="M547.291,319.763a40.635,40.635,0,0,1,2.844-5.046,22.3,22.3,0,0,1,11.16-7.761,34.53,34.53,0,0,1,13.79-1.112c3.57.385,5.751.877,5.794.706a19.025,19.025,0,0,0-5.687-1.475,31.491,31.491,0,0,0-14.238.813,21.594,21.594,0,0,0-11.459,8.381,14.478,14.478,0,0,0-1.9,3.912,3.827,3.827,0,0,0-.3,1.582Z" transform="translate(-380.533 -284.653)" fill="#e0e0e0"/>
        <path id="Trazado_2365" data-name="Trazado 2365" d="M541.62,303.85a7.884,7.884,0,0,0,1.668,2.373,16.054,16.054,0,0,0,5.944,3.72,15.735,15.735,0,0,0,6.948.877,5.537,5.537,0,0,0,2.8-.791,28.112,28.112,0,0,1-9.385-1.133A28.65,28.65,0,0,1,541.62,303.85Z" transform="translate(-346.513 -285.523)" fill="#263238"/>
        <path id="Trazado_2366" data-name="Trazado 2366" d="M728.8,479.076c39.145-12.956,12.315-64.736,12.315-64.736l-171.034,16.1a24.736,24.736,0,0,0-24.95,24.757h0a24.736,24.736,0,0,0,24.714,24.693l158.954-.855" transform="translate(-545.134 -159.793)" fill="#263238"/>
        <path id="Trazado_2367" data-name="Trazado 2367" d="M705.835,479.045c38.141-12.828,11.844-64.715,11.844-64.715L550.921,430.065c-16.291.214-24.244,8.081-24.244,24.693h0c0,13.661,5.088,25.185,24.18,24.8l155-.513" transform="translate(-482.102 -159.805)" fill="#263238"/>
        <path id="Trazado_2368" data-name="Trazado 2368" d="M694.992,418.43h-1.86l-5.345.214-19.6,1L603.467,423.2c-3.164.15-6.286.428-9.364.47s-6.136.171-9.108.363-5.922.406-8.787.705a31.944,31.944,0,0,0-8.338,1.71,20.587,20.587,0,0,0-6.948,4.447,18.365,18.365,0,0,0-4.276,6.756,33.079,33.079,0,0,0-1.732,7.29,51.737,51.737,0,0,0-.449,6.906,29.419,29.419,0,0,0,2.138,11.609,19.243,19.243,0,0,0,5.2,7.077,14.11,14.11,0,0,0,4.725,2.651c1.176.385,1.2.256,0-.171a14.624,14.624,0,0,1-4.575-2.758,19.37,19.37,0,0,1-4.96-7.012,29.18,29.18,0,0,1-2.138-11.4,50.507,50.507,0,0,1,.513-6.8,33.162,33.162,0,0,1,1.71-7.119,17.807,17.807,0,0,1,4.083-6.414,18.9,18.9,0,0,1,6.692-4.276,30.44,30.44,0,0,1,8.146-1.646c2.843-.3,5.772-.513,8.744-.684s6.008-.3,9.065-.342,6.221-.321,9.385-.47l64.993-3.827,19.626-1.261,5.323-.385,1.39-.128Z" transform="translate(-509.976 -155.139)" fill="#455a64"/>
        <path id="Trazado_2369" data-name="Trazado 2369" d="M527.223,505.468l13.7-6.734,9.557-31.748.919-40.621-19.37-8.167,15.372-38.59c2.8-5.708,8.552-20.823,23-25.783a17.422,17.422,0,0,0-.513-6.414c-1.133-1.9,35.468-3.036,37.542-2.288s-.342,7.44-.107,8.552c13.02,3.592,25.655,8.958,30.423,26.852,1.839,6.97,1.219,21.679.214,28.776L627.812,463.03l5.708,17.638s19.99,41.647,12.4,57.916-20.46,19.947-20.46,19.947l-99.584-.214Z" transform="translate(-401.513 -238.821)" fill="#ff71d5"/>
        <g id="Grupo_2034" data-name="Grupo 2034" transform="translate(168.404 199.623)" opacity="0.3">
          <path id="Trazado_2370" data-name="Trazado 2370" d="M592.692,391.964a200.772,200.772,0,0,1-7.312,25.42,54.882,54.882,0,0,1-8,14.666,37.092,37.092,0,0,1-19.241,11.695,60.44,60.44,0,0,1-22.683,1.112l37.692-21.379,10.027-34.827Z" transform="translate(-535.46 -388.65)"/>
        </g>
        <path id="Trazado_2371" data-name="Trazado 2371" d="M570.3,440.492a15.932,15.932,0,0,0,.278-2.886c0-2.01.214-4.661.385-7.846.278-6.628.6-15.8.919-25.933s.534-19.241.641-25.933v-7.868a17.9,17.9,0,0,0,0-2.886,17.089,17.089,0,0,0-.257,2.865c-.107,2.01-.235,4.661-.385,7.868-.278,6.628-.62,15.8-.919,25.933s-.534,19.241-.663,25.933v7.868A17.927,17.927,0,0,0,570.3,440.492Z" transform="translate(-421.309 -213.503)" fill="#263238"/>
        <path id="Trazado_2372" data-name="Trazado 2372" d="M530.654,417.512a3.363,3.363,0,0,0,.684.3l2.138.77,8.21,2.886,30.059,10.369.492.171.107-.513c2.031-10.925,4.426-23.71,7.012-37.542h0c.406-6.82,1.774-13.939,1.2-21.379a19.413,19.413,0,0,0-1.475-5.238,23.668,23.668,0,0,0-2.48-4.725,20.053,20.053,0,0,0-7.91-6.756,17.317,17.317,0,0,0-18.771,2.031,23.519,23.519,0,0,0-5.024,7.654,71.9,71.9,0,0,0-2.929,8.039c-1.582,5.259-2.8,10.241-3.977,14.816l-5.452,21.379c-.62,2.458-1.09,4.383-1.432,5.794-.15.6-.257,1.09-.363,1.475s0,.513,0,.492a2.387,2.387,0,0,0,.192-.534q.192-.62.449-1.539c.406-1.411.941-3.357,1.646-5.815,1.39-5.11,3.378-12.357,5.815-21.251,1.24-4.447,2.459-9.407,4.083-14.623a71.412,71.412,0,0,1,2.95-7.91,22.382,22.382,0,0,1,4.789-7.29,16.334,16.334,0,0,1,17.616-1.817,18.941,18.941,0,0,1,7.483,6.414,23.261,23.261,0,0,1,2.373,4.511,18.66,18.66,0,0,1,1.39,4.96c.556,7.2-.748,14.324-1.176,21.23h0c-2.523,13.832-4.853,26.617-6.841,37.563l.6-.342-29.931-9.856-8.4-2.694-2.138-.705Z" transform="translate(-344.783 -228.471)" fill="#263238"/>
        <path id="Trazado_2373" data-name="Trazado 2373" d="M538.925,392.471c.278,0,1.069-1.561,1.774-3.7s1-3.955.706-4.041-1.09,1.561-1.775,3.7S538.562,392.385,538.925,392.471Z" transform="translate(-322.995 -193.489)" fill="#263238"/>
        <path id="Trazado_2374" data-name="Trazado 2374" d="M543.836,391.044c.3,0,.962-1.539,1.454-3.613s.684-3.784.385-3.87-.962,1.539-1.454,3.613S543.536,390.916,543.836,391.044Z" transform="translate(-337.783 -194.82)" fill="#263238"/>
        <path id="Trazado_2375" data-name="Trazado 2375" d="M548.443,388.715c.3,0,.962-1.24,1.475-2.95s.684-3.164.385-3.271-.941,1.24-1.454,2.95S548.166,388.629,548.443,388.715Z" transform="translate(-352.289 -196.039)" fill="#263238"/>
        <path id="Trazado_2376" data-name="Trazado 2376" d="M573.014,385.428c.257.15,1.39-1.261,2.138-3.335s.877-3.87.6-3.912-.9,1.561-1.646,3.528S572.737,385.257,573.014,385.428Z" transform="translate(-430.394 -200.941)" fill="#263238"/>
        <path id="Trazado_2377" data-name="Trazado 2377" d="M576.4,382.783c.278.15,1.176-1.09,2.01-2.737s1.283-3.1,1-3.25-1.176,1.09-2.01,2.737S576.126,382.654,576.4,382.783Z" transform="translate(-441.223 -202.529)" fill="#263238"/>
        <path id="Trazado_2378" data-name="Trazado 2378" d="M546.936,355.229a2.675,2.675,0,0,0-.192.962h.577a36.8,36.8,0,0,0,.684-5.088,17.342,17.342,0,0,0,0-6.093,16.487,16.487,0,0,0-1.069,6.008,38.047,38.047,0,0,0-.15,5.131h.577C547.171,355.55,547.043,355.208,546.936,355.229Z" transform="translate(-346.762 -238.686)" fill="#263238"/>
        <path id="Trazado_2379" data-name="Trazado 2379" d="M551.4,355.1a12.164,12.164,0,0,0,.919-4.96,11.2,11.2,0,0,0-.192-5.024,12.162,12.162,0,0,0-.919,4.96A11.2,11.2,0,0,0,551.4,355.1Z" transform="translate(-360.118 -238.56)" fill="#263238"/>
        <path id="Trazado_2380" data-name="Trazado 2380" d="M556.106,357.114a16.185,16.185,0,0,0,.641-5.986,16.982,16.982,0,0,0-.47-6.008,16.18,16.18,0,0,0-.641,5.986,16.973,16.973,0,0,0,.47,6.008Z" transform="translate(-374.147 -238.56)" fill="#263238"/>
        <path id="Trazado_2381" data-name="Trazado 2381" d="M559.806,355.591a12.379,12.379,0,0,0,.556-5.11,12.529,12.529,0,0,0-.556-5.131,11.906,11.906,0,0,0-.577,5.131A11.778,11.778,0,0,0,559.806,355.591Z" transform="translate(-385.458 -238.299)" fill="#263238"/>
        <path id="Trazado_2382" data-name="Trazado 2382" d="M543.76,423.572c0,.3,18.579-.706,41.454-2.266s41.39-3.079,41.369-3.378-18.578.705-41.454,2.266S543.739,423.273,543.76,423.572Z" transform="translate(-418.691 -155.77)" fill="#263238"/>
        <path id="Trazado_2383" data-name="Trazado 2383" d="M643.1,395.207l-9.172,29.931a31,31,0,0,1-23.9,21.679l-57,10.839-15.5-.513,5.259-13.234,53.085-20.994a11.566,11.566,0,0,0,8.552-8.317l8.017-30.038Z" transform="translate(-421.89 -193.681)" fill="#ffbe9d"/>
        <path id="Trazado_2384" data-name="Trazado 2384" d="M708.724,450.655l-.492-3.7-43.785-1.71-21.486-54.2L561.1,396.609l27.622,60.161Z" transform="translate(-537.904 -186.296)" fill="#455a64"/>
        <path id="Trazado_2385" data-name="Trazado 2385" d="M603.9,410.984a4.276,4.276,0,1,0,1.325-5.9A4.276,4.276,0,0,0,603.9,410.984Z" transform="translate(-531.065 -171.082)" fill="#fff"/>
      </g>
    </g>
  </g>
</svg>
