<svg xmlns="http://www.w3.org/2000/svg" width="499.961" height="353.989" viewBox="0 0 499.961 353.989">
  <path id="Trazado_2485" data-name="Trazado 2485" d="M335.06,392.73C399.73,395.4,474.71,380.5,531,348.48s96.89-95.57,103-160c4.36-46.07-5.79-94.92-41.59-124.25S491.3,30,452.89,55.83c-41.47,27.86-59.15,85.58-105.44,104.38-38.47,15.62-82.44-1.7-123.52,4.3-45,6.58-84.19,45.28-88.42,90.57-2.5,26.69,3.7,55.3,24.05,77.41,21.3,23.15,34.17,30.45,63.5,45.08C249.48,390.74,292.38,391,335.06,392.73Z" transform="translate(-134.986 -39.046)" fill="#f799ff"/>
</svg>
