<svg width="30" height="28" viewBox="0 0 30 28" fill="none" xmlns="http://www.w3.org/2000/svg">
<path d="M26.6667 7.51034H19.2361V5.6145H26.6667V7.51034ZM14.4444 14.8385C15 15.6892 15.2778 16.7221 15.2778 17.9374C15.2778 18.9096 15.0926 19.7603 14.7222 20.4895C14.3981 21.1701 13.912 21.7291 13.2639 22.1666C12.7083 22.6041 12.0139 22.9444 11.1806 23.1874C10.5324 23.3819 9.74537 23.4791 8.81944 23.4791H0V4.08325H8.61111C9.16667 4.08325 9.9537 4.20478 10.9722 4.44784C11.5741 4.59367 12.1759 4.88534 12.7778 5.32284C13.287 5.66311 13.7037 6.14922 14.0278 6.78117C14.3056 7.41311 14.4444 8.16659 14.4444 9.04159C14.4444 10.0138 14.2245 10.828 13.7847 11.4843C13.3449 12.1405 12.7315 12.6631 11.9444 13.052C13.0556 13.3923 13.8889 13.9878 14.4444 14.8385ZM3.81944 11.8853H8.05556C8.84259 11.8853 9.44444 11.7395 9.86111 11.4478C10.3241 11.1076 10.5556 10.5485 10.5556 9.77075C10.5556 9.33325 10.4745 8.96867 10.3125 8.677C10.1505 8.38534 9.93056 8.16659 9.65278 8.02075C9.375 7.82631 9.09722 7.70478 8.81944 7.65617C8.40278 7.55895 8.05556 7.51034 7.77778 7.51034H3.81944V11.8853ZM11.25 17.7187C11.25 16.7464 10.9954 16.0416 10.4861 15.6041C9.97685 15.2152 9.28241 15.0208 8.40278 15.0208H3.81944V20.3437H8.26389C8.58796 20.3437 8.98148 20.2951 9.44444 20.1978C9.81481 20.1006 10.1273 19.9669 10.3819 19.7968C10.6366 19.6267 10.8565 19.3471 11.0417 18.9583C11.1806 18.6666 11.25 18.2534 11.25 17.7187ZM29.5833 17.4999H20.0694C20.0694 18.6666 20.3704 19.5659 20.9722 20.1978C21.5278 20.7326 22.3148 20.9999 23.3333 20.9999C24.0278 20.9999 24.6528 20.8055 25.2083 20.4166C25.7639 19.9791 26.088 19.5416 26.1806 19.1041H29.375C28.912 20.8055 28.125 22.0208 27.0139 22.7499C25.9028 23.5277 24.6296 23.9166 23.1944 23.9166C22.1759 23.9166 21.25 23.7464 20.4167 23.4062C19.5833 23.0659 18.8657 22.5555 18.2639 21.8749C17.662 21.243 17.2222 20.4652 16.9444 19.5416C16.6204 18.6666 16.4583 17.6944 16.4583 16.6249C16.4583 15.5555 16.6204 14.5711 16.9444 13.6718C17.2685 12.7725 17.7315 11.9826 18.3333 11.302C18.9352 10.6701 19.6296 10.1596 20.4167 9.77075C21.25 9.38186 22.1759 9.18742 23.1944 9.18742C24.3056 9.18742 25.2778 9.41832 26.1111 9.88013C26.9444 10.3419 27.6389 10.9617 28.1944 11.7395C28.7037 12.4687 29.0972 13.368 29.375 14.4374C29.6065 15.4583 29.6759 16.4791 29.5833 17.4999ZM25.9722 15.0208C25.8796 14.1458 25.6019 13.4166 25.1389 12.8333C24.7222 12.3471 24.0509 12.1041 23.125 12.1041C22.5231 12.1041 22.037 12.2135 21.6667 12.4322C21.2963 12.651 20.9838 12.9062 20.7292 13.1978C20.4745 13.4895 20.3241 13.8055 20.2778 14.1458C20.1389 14.486 20.0694 14.7777 20.0694 15.0208H25.9722Z" fill="white"/>
</svg>
