<svg width="28" height="31" viewBox="0 0 28 31" fill="none" xmlns="http://www.w3.org/2000/svg">
<path d="M28 10.8357C28 12.6536 27.7448 14.2084 27.2344 15.5C26.724 16.7917 25.9826 17.7844 25.0104 18.478C24.0382 19.1717 23.066 19.674 22.0938 19.985C21.1215 20.2959 19.9792 20.5232 18.6667 20.6667C19.5903 21.4321 20.0521 22.652 20.0521 24.3264V30.7848H9.91667V26.1204C9.13889 26.2639 8.42188 26.3357 7.76562 26.3357C7.10937 26.3357 6.55035 26.2759 6.08854 26.1563C5.62674 26.0367 5.21354 25.8812 4.84896 25.6898C4.48438 25.4985 4.19271 25.2952 3.97396 25.0799C3.75521 24.8646 3.57292 24.6613 3.42708 24.4699C3.28125 24.2786 3.18403 24.1111 3.13542 23.9676L3.0625 23.7523C2.77083 23.0826 2.44271 22.5085 2.07812 22.0301C1.71354 21.5517 1.40972 21.2408 1.16667 21.0973L0.802083 20.882C0.267361 20.4514 0 20.1524 0 19.985C0 19.8176 0.170139 19.7099 0.510417 19.6621H0.947917C1.53125 19.7099 2.09028 19.9013 2.625 20.2361C3.15972 20.571 3.52431 20.9059 3.71875 21.2408L4.08333 21.6713C5.39583 23.9198 7.36458 24.4699 9.98958 23.3218C10.1354 22.1736 10.5729 21.2886 11.3021 20.6667C9.98958 20.5232 8.84722 20.2959 7.875 19.985C6.90278 19.674 5.94271 19.1717 4.99479 18.478C4.04688 17.7844 3.30556 16.7917 2.77083 15.5C2.23611 14.2084 1.96875 12.6536 1.96875 10.8357C1.96875 8.77858 2.67361 7.00852 4.08333 5.5255C3.45139 3.9468 3.52431 2.17673 4.30208 0.215314C4.44792 0.263153 4.64236 0.251194 4.88542 0.179434C5.12847 0.107675 5.73611 0.251194 6.70833 0.60999C7.68056 0.968786 8.75 1.5309 9.91667 2.29633C11.5208 1.86578 13.2222 1.62658 15.0208 1.57874C16.7708 1.62658 18.4722 1.86578 20.125 2.29633C21.2431 1.5309 22.276 0.980746 23.224 0.645869C24.1719 0.310993 24.816 0.143555 25.1562 0.143555L25.6667 0.215314C26.4931 2.17673 26.566 3.9468 25.8854 5.5255C27.2951 7.00852 28 8.77858 28 10.8357ZM2.33333 20.5591C2.38194 20.4395 2.32118 20.3438 2.15104 20.272C1.9809 20.2003 1.87153 20.2242 1.82292 20.3438C1.77431 20.4634 1.83507 20.5591 2.00521 20.6308C2.17535 20.7026 2.28472 20.6787 2.33333 20.5591ZM3.17188 21.4561C3.2934 21.3604 3.2691 21.2288 3.09896 21.0614C2.92882 20.8939 2.78299 20.8581 2.66146 20.9537C2.53993 21.0494 2.56424 21.181 2.73438 21.3484C2.90451 21.5159 3.05035 21.5517 3.17188 21.4561ZM3.9375 22.6042C4.08333 22.5085 4.08333 22.353 3.9375 22.1378C3.79167 21.9225 3.64583 21.8627 3.5 21.9584C3.35417 22.054 3.35417 22.2095 3.5 22.4248C3.64583 22.6401 3.79167 22.6999 3.9375 22.6042ZM5.06771 23.7523C5.18924 23.6088 5.15278 23.4294 4.95833 23.2142C4.76389 22.9989 4.59375 22.963 4.44792 23.1065C4.30208 23.25 4.33854 23.4294 4.55729 23.6447C4.77604 23.86 4.94618 23.8959 5.06771 23.7523ZM6.5625 24.3623C6.61111 24.1949 6.50174 24.0633 6.23438 23.9676C5.96701 23.8719 5.80903 23.9198 5.76042 24.1111C5.71181 24.3025 5.82118 24.4341 6.08854 24.5058C6.3559 24.5776 6.51389 24.5297 6.5625 24.3623ZM7.80208 24.757C8.09375 24.757 8.23958 24.6613 8.23958 24.4699C8.23958 24.2786 8.09375 24.1829 7.80208 24.1829C7.51042 24.1829 7.36458 24.2786 7.36458 24.4699C7.36458 24.6613 7.51042 24.757 7.80208 24.757ZM9.40625 24.6135C9.55208 24.5656 9.66146 24.5058 9.73438 24.4341C9.80729 24.3623 9.81944 24.3025 9.77083 24.2547C9.77083 24.0155 9.625 23.9198 9.33333 23.9676C9.1875 24.0155 9.07812 24.0753 9.00521 24.147C8.93229 24.2188 8.92014 24.3025 8.96875 24.3982C8.96875 24.5895 9.11458 24.6613 9.40625 24.6135Z" fill="white"/>
</svg>
