<svg width="30" height="29" viewBox="0 0 30 29" fill="none" xmlns="http://www.w3.org/2000/svg">
<path d="M22.1528 14.8692C21.7824 14.3993 21.088 14.1644 20.0694 14.1644C18.8194 14.1644 17.9398 14.5224 17.4306 15.2385C16.9213 15.9545 16.6667 16.9614 16.6667 18.2593V28.0602C16.6667 28.284 16.5972 28.463 16.4583 28.5973C16.3194 28.7315 16.1343 28.7986 15.9028 28.7986H10.625C10.4398 28.7986 10.2662 28.7315 10.1042 28.5973C9.94213 28.463 9.86111 28.284 9.86111 28.0602V9.93521C9.86111 9.7562 9.94213 9.58838 10.1042 9.43174C10.2662 9.2751 10.4398 9.19679 10.625 9.19679H15.7639C15.9491 9.19679 16.0995 9.24154 16.2153 9.33105C16.331 9.42055 16.412 9.55481 16.4583 9.73382V10.0695C16.5046 10.159 16.5278 10.3156 16.5278 10.5394C17.8241 9.33105 19.5833 8.72688 21.8056 8.72688C24.2593 8.72688 26.1806 9.33105 27.5694 10.5394C28.9583 11.7477 29.6528 13.5155 29.6528 15.8426V28.0602C29.6528 28.284 29.5718 28.463 29.4097 28.5973C29.2477 28.7315 29.0741 28.7986 28.8889 28.7986H23.4722C23.287 28.7986 23.1134 28.7315 22.9514 28.5973C22.7894 28.463 22.7083 28.284 22.7083 28.0602V17.051C22.7083 16.0664 22.5231 15.3391 22.1528 14.8692ZM6.11111 6.14239C5.41667 6.83606 4.57176 7.1829 3.57639 7.1829C2.58102 7.1829 1.73611 6.83606 1.04167 6.14239C0.347222 5.44872 0 4.62078 0 3.65859C0 2.6964 0.347222 1.87966 1.04167 1.20836C1.73611 0.537064 2.58102 0.201416 3.57639 0.201416C4.57176 0.201416 5.41667 0.537064 6.11111 1.20836C6.80556 1.87966 7.15278 2.6964 7.15278 3.65859C7.15278 4.62078 6.80556 5.44872 6.11111 6.14239ZM7.01389 9.93521V28.0602C7.01389 28.284 6.93287 28.463 6.77083 28.5973C6.6088 28.7315 6.43518 28.7986 6.25 28.7986H0.972222C0.740741 28.7986 0.555556 28.7315 0.416667 28.5973C0.277778 28.463 0.208333 28.284 0.208333 28.0602V9.93521C0.208333 9.7562 0.277778 9.58838 0.416667 9.43174C0.555556 9.2751 0.740741 9.19679 0.972222 9.19679H6.25C6.43518 9.19679 6.6088 9.2751 6.77083 9.43174C6.93287 9.58838 7.01389 9.7562 7.01389 9.93521Z" fill="white"/>
</svg>
