<svg xmlns="http://www.w3.org/2000/svg" xmlns:xlink="http://www.w3.org/1999/xlink" width="487.911" height="370.717" viewBox="0 0 487.911 370.717">
  <defs>
    <clipPath id="clip-path">
      <path id="Trazado_2094" data-name="Trazado 2094" d="M280.06,351.46l64.12,69.83-60.99,20.63L224.3,369.58Z" transform="translate(-224.3 -351.46)" fill="none"/>
    </clipPath>
  </defs>
  <g id="Web_devices-pana" data-name="Web devices-pana" transform="translate(39.217 -31.324)">
    <g id="freepik--background-complete--inject-390" transform="translate(0 90.199)">
      <path id="Trazado_2040" data-name="Trazado 2040" d="M107.109,223.44a46.81,46.81,0,0,1,13.29,12.83c1.12,1.63,2.17,3.52,1.87,5.47a5.7,5.7,0,0,1-3.41,4.07,14.68,14.68,0,0,1-5.38,1.05,77.87,77.87,0,0,1-24.64-2.56c-4.65-1.26-9.5-3.19-12.19-7.19-2.42-3.59-2.39-9,.84-11.87,2.19-2,5.32-2.44,8.25-2.69a92,92,0,0,1,20.45.53" transform="translate(290.247 -143.399)" fill="#e0e0e0"/>
      <path id="Trazado_2041" data-name="Trazado 2041" d="M395.274,144.49s5.25-5.36,15.87,7.68,15.26,20.89,15.26,20.89,2.63,2.64,4.31.18,3.34-8.77,7.14-8.52,6.07,4.15,6.67,10.4,2.42,19.89,2.59,21.12,1.23,2.82,2.64,1.33,8.65-14.15,14.45-10.35,4.61,21.48,4.52,23.41.43,2.64,1.4,2.91,3-4.22,5.21-7.73,5.38-7.21,8.54-4.73,6.66,14.79-.87,37.65l-4.19,10.36-11.08,1.75c-24,2.29-35.21-3.84-36.92-7.46s2.59-5.92,6.5-7.29,8.74-2.37,8.69-3.37-.61-1.68-2.52-2-19.41-3.09-21.84-9.59,11.52-10.76,13.29-11.8.43-2.44-.71-2.87-14.07-5.22-20-7.19-9.28-4.89-8.67-8.8,7.12-4,9.89-5.08.77-4.25.77-4.25-6.62-6.26-17-19.5-3.8-17.24-3.8-17.24" transform="translate(-393.358 -143.399)" fill="#e0e0e0"/>
      <path id="Trazado_2042" data-name="Trazado 2042" d="M390.8,156.16s.06.1.2.29l.62.82c.57.73,1.39,1.79,2.43,3.15,2.12,2.73,5.2,6.67,9,11.51,7.66,9.69,18.36,23,30.21,37.63s22.6,27.93,30.32,37.58c3.85,4.82,7,8.72,9.12,11.44l2.48,3.1c.28.35.5.61.65.81a1.421,1.421,0,0,0,.23.26s-.06-.1-.2-.29l-.62-.82c-.57-.73-1.39-1.79-2.43-3.15-2.12-2.73-5.2-6.66-9-11.5-7.66-9.69-18.36-23-30.22-37.65s-22.58-27.91-30.28-37.56l-9.12-11.44-2.48-3.11-.65-.8Z" transform="translate(-379.354 -143.399)" fill="#ebebeb"/>
      <path id="Trazado_2043" data-name="Trazado 2043" d="M445.727,173.65a4.068,4.068,0,0,0-.11.8c-.06.52-.11,1.27-.18,2.19-.12,1.86-.22,4.42-.27,7.25s-.09,5.32-.13,7.25c0,.87,0,1.6-.05,2.19a4.629,4.629,0,0,0,0,.81,3.148,3.148,0,0,0,.13-.8c.05-.52.11-1.27.16-2.19.1-1.86.16-4.42.22-7.25s.13-5.32.18-7.25q0-1.31.06-2.19a3.2,3.2,0,0,0-.01-.81Z" transform="translate(-403.22 -143.399)" fill="#ebebeb"/>
      <path id="Trazado_2044" data-name="Trazado 2044" d="M470.26,194.55c0-.1-5.27-.53-11.78-1s-11.8-.73-11.81-.63,5.27.53,11.79,1S470.26,194.65,470.26,194.55Z" transform="translate(-429.424 -143.399)" fill="#ebebeb"/>
      <path id="Trazado_2045" data-name="Trazado 2045" d="M448.04,216.23a3.061,3.061,0,0,0-.82.13l-2.19.48c-1.85.4-4.41.95-7.25,1.44s-5.43.87-7.31,1.12l-2.22.3a3.87,3.87,0,0,0-.81.15,3.661,3.661,0,0,0,.82,0c.53,0,1.3-.09,2.24-.18,1.89-.19,4.49-.52,7.34-1s5.41-1.08,7.25-1.54c.92-.24,1.66-.43,2.17-.59a5.06,5.06,0,0,0,.78-.31Z" transform="translate(-387.974 -143.399)" fill="#ebebeb"/>
      <path id="Trazado_2046" data-name="Trazado 2046" d="M427.62,197.66a2.648,2.648,0,0,0-.3.7c-.19.53-.41,1.19-.68,2-.57,1.65-.74,4.33-2.14,6.49-.82,2.55-1.54,4.86-2,6.53l-.58,2a3.59,3.59,0,0,0-.17.75,2.649,2.649,0,0,0,.3-.7l.68-2c.57-1.66,1.32-4,2.14-6.5s1.53-4.85,2-6.53l.58-2a3.6,3.6,0,0,0,.17-.74Z" transform="translate(-361.864 -143.399)" fill="#ebebeb"/>
      <path id="Trazado_2047" data-name="Trazado 2047" d="M410.14,214.64a5.6,5.6,0,0,0-.37.9l-.89,2.51c-.73,2.12-1.72,5-2.8,8.3s-2,6.2-2.71,8.34c-.31,1-.58,1.88-.78,2.54a4.35,4.35,0,0,0-.24.94,5.6,5.6,0,0,0,.37-.9l.89-2.5c.73-2.12,1.72-5.06,2.8-8.31s2-6.2,2.71-8.34c.31-1,.57-1.88.78-2.54a5.289,5.289,0,0,0,.24-.94Z" transform="translate(-324.984 -143.399)" fill="#ebebeb"/>
      <path id="Trazado_2048" data-name="Trazado 2048" d="M436.3,237.56a6.248,6.248,0,0,0-1,.15l-2.8.5c-2.36.43-5.63,1-9.26,1.54s-6.91.94-9.3,1.21l-2.83.33a5.42,5.42,0,0,0-1,.16,6.931,6.931,0,0,0,1.05,0c.67,0,1.64-.11,2.83-.22,2.4-.21,5.7-.57,9.34-1.11s6.89-1.15,9.25-1.64c1.17-.24,2.12-.45,2.78-.61a7.331,7.331,0,0,0,.94-.31Z" transform="translate(-358.904 -143.399)" fill="#ebebeb"/>
    </g>
    <g id="freepik--Mobile--inject-390" transform="translate(135.706 294.898)">
      <path id="Trazado_2049" data-name="Trazado 2049" d="M281.818,353.32l69.22,71.13c2.22,2.42-.81,8.27-3.92,9.32L284.238,455a4.55,4.55,0,0,1-5-1.45l-61.59-76.33c-2-2.5-2.05-8.35,1-9.31l58.46-15.86A4.52,4.52,0,0,1,281.818,353.32Z" transform="translate(-216.237 -348.098)" fill="#263238"/>
      <path id="Trazado_2050" data-name="Trazado 2050" d="M282.131,349.66l67.18,73.08a4.55,4.55,0,0,1-1.89,7.38l-62.87,21.23a4.55,4.55,0,0,1-5-1.45l-61.59-76.33a4.55,4.55,0,0,1,2.17-7.19l57.33-17.98A4.52,4.52,0,0,1,282.131,349.66Z" transform="translate(-215.66 -348.098)" fill="#ebebeb"/>
      <path id="Trazado_2051" data-name="Trazado 2051" d="M282.013,349.66a3.5,3.5,0,0,0-.67-.66,4.57,4.57,0,0,0-2.5-.9,5.2,5.2,0,0,0-1.95.32l-2.27.7-5.66,1.75-36,11.23-11.94,3.73a15.281,15.281,0,0,0-1.57.53,5.149,5.149,0,0,0-1.42,1,4.78,4.78,0,0,0-.22,6.45l2.19,2.71,18.77,23.3,20.75,25.74,11,13.61,5.61,7,2.84,3.51a5.39,5.39,0,0,0,1.73,1.59,4.91,4.91,0,0,0,2.31.6,6.6,6.6,0,0,0,2.29-.5l2.15-.73,4.29-1.44,8.47-2.87,16.57-5.6,16-5.41,7.75-2.62,3.81-1.29,1.89-.64a15.7,15.7,0,0,0,1.89-.71,4.76,4.76,0,0,0,2.43-3.17,4.71,4.71,0,0,0-.8-3.87c-1.72-2-3.45-3.78-5.14-5.63l-9.83-10.69-17.67-19.17L291.5,359.8l-7-7.52-1.82-1.95c-.42-.44-.64-.65-.64-.65l.6.69,1.78,2,6.92,7.55,25.49,27.84L334.413,407l9.82,10.7c1.67,1.84,3.44,3.7,5.09,5.59a4.26,4.26,0,0,1,.72,3.49,4.32,4.32,0,0,1-2.19,2.86,17,17,0,0,1-1.83.67l-1.89.64-3.81,1.29-7.75,2.61-16,5.4L300,445.84l-8.48,2.86-4.28,1.45-2.15.73a6.06,6.06,0,0,1-2.13.47,4.3,4.3,0,0,1-2.05-.54,5.091,5.091,0,0,1-1.59-1.45l-2.83-3.52q-2.83-3.49-5.62-7l-11-13.6L239.1,399.52c-6.62-8.2-12.92-16-18.81-23.27-1.33-1.87-3.43-3.44-3.24-5.72a4.35,4.35,0,0,1,1.24-2.88,4.56,4.56,0,0,1,1.28-.9c.48-.2,1-.35,1.53-.52l11.93-3.76,36-11.39,5.65-1.79,2.26-.73a5,5,0,0,1,1.9-.33,4.54,4.54,0,0,1,2.48.83,4.059,4.059,0,0,1,.52.43Z" transform="translate(-215.542 -348.098)" fill="#263238"/>
      <path id="Trazado_2052" data-name="Trazado 2052" d="M249.04,435.75c0,1.61,1.8,2.94,4.08,3s4.13-1.25,4.16-2.86-1.81-2.93-4.08-3S249.06,434.14,249.04,435.75Z" transform="translate(-154.519 -348.098)" fill="#e0e0e0"/>
      <path id="Trazado_2053" data-name="Trazado 2053" d="M279.51,351.46l64.67,69.84-60.99,20.63-59.44-72.35Z" transform="translate(-216.129 -348.098)" fill="#fff"/>
      <path id="Trazado_2054" data-name="Trazado 2054" d="M331.51,371.07a35.636,35.636,0,0,0,4.08-1.1,34.59,34.59,0,0,0,3.86-1.3,72.415,72.415,0,0,0-7.94,2.4Z" transform="translate(-319.159 -348.098)" fill="#263238"/>
      <path id="Trazado_2055" data-name="Trazado 2055" d="M330.6,372.07a35.578,35.578,0,0,0,4.09-1.11,30.255,30.255,0,0,0,3.86-1.3,38.091,38.091,0,0,0-4.06,1.11,34.162,34.162,0,0,0-3.89,1.3Z" transform="translate(-317.349 -348.098)" fill="#263238"/>
      <path id="Trazado_2056" data-name="Trazado 2056" d="M329.71,373.11A37.491,37.491,0,0,0,333.8,372a33.507,33.507,0,0,0,3.88-1.3,38.594,38.594,0,0,0-4.07,1.11A32.511,32.511,0,0,0,329.71,373.11Z" transform="translate(-315.589 -348.098)" fill="#263238"/>
      <path id="Trazado_2057" data-name="Trazado 2057" d="M281.76,380.82c0,.05,10.81-3.42,23.73-7.74,12.62-4.3,22.56-7.83,22.51-7.87s-10.08,3.41-22.68,7.72C292.36,377.25,281.69,380.78,281.76,380.82Z" transform="translate(-257.96 -348.098)" fill="#263238"/>
      <path id="Trazado_2058" data-name="Trazado 2058" d="M290.86,377.36c.05,0,5.1-1.62,11.21-3.7s10.84-3.8,10.79-3.84-4.93,1.61-11,3.69S290.81,377.31,290.86,377.36Z" transform="translate(-251.919 -348.098)" fill="#263238"/>
      <path id="Trazado_2059" data-name="Trazado 2059" d="M282.09,380l14.48-4.81c1.93-.64,2.37-2.06,1-3.16h0a7,7,0,0,0-5.94-.81l-14.4,4.8c-2,.65-2.48,2.07-1.14,3.16h0A7.06,7.06,0,0,0,282.09,380Z" transform="translate(-221.899 -348.098)" fill="#ff71d5"/>
      <path id="Trazado_2060" data-name="Trazado 2060" d="M305.22,388.07s-.2.05-.59.13a7.74,7.74,0,0,1-1.78.15,7.311,7.311,0,0,1-2.65-.55c-.85-.38-1.57-1-1.56-1.75s.72-1.53,2.16-1.93l4.53-1.44c3.18-1,6.64-2.13,10.27-3.3a7,7,0,0,1,2.9-.25,5.859,5.859,0,0,1,2.53.82,1.86,1.86,0,0,1,1,1.43,1.65,1.65,0,0,1-.86,1.33,4.841,4.841,0,0,1-1,.46l-1.13.37-2.17.7-3.91,1.27-5.68,1.86-1.54.51-.52.19a3.351,3.351,0,0,0,.57-.15l1.59-.48,5.75-1.79,3.94-1.24,2.18-.7,1.14-.36a5,5,0,0,0,1.07-.5,1.8,1.8,0,0,0,1-1.46,2,2,0,0,0-1.07-1.57,6.38,6.38,0,0,0-2.78-.92,7.93,7.93,0,0,0-3.21.28l-10.24,3.32-4.51,1.45a4.381,4.381,0,0,0-1.74.92,1.57,1.57,0,0,0-.54,1.18c0,.79.8,1.46,1.72,1.85a7.54,7.54,0,0,0,2.8.54,7.381,7.381,0,0,0,1.82-.2,3.128,3.128,0,0,0,.51-.17Z" transform="translate(-269.029 -348.098)" fill="#ff71d5"/>
      <path id="Trazado_2061" data-name="Trazado 2061" d="M290.44,376.84l37.5-12.39-2.05-2.31L288.7,374.46Z" transform="translate(-264.839 -348.098)" fill="#ff71d5"/>
      <g id="Grupo_2032" data-name="Grupo 2032" transform="translate(7.621 3.362)" clip-path="url(#clip-path)">
        <path id="Trazado_2062" data-name="Trazado 2062" d="M292.961,359.91l41.16-14.65c17.35-2.5,28.67,3.58,27.83,9.65-.6,4.12-7,7.45-14,7.74-4.74.19-9.52-1.15-14.27-1a29.77,29.77,0,0,0-12.22,3.29c-3.53,1.66-6.83,3.55-11.05,4.68s-9.76,1.31-13.52-.36C292.231,367.12,292.3,363.21,292.961,359.91Z" transform="translate(-310.451 -351.46)" fill="#ff71d5"/>
        <path id="Trazado_2063" data-name="Trazado 2063" d="M313.706,409.73c-1.16-2.51-.57-5.51,2.38-7.59s7.34-3.35,11.81-4.41l.33-.11a19.75,19.75,0,0,1,10.84.6,11.61,11.61,0,0,1,6.45,4.88c1.72,3,.84,6.42-2.72,8.91s-9.89,4-16,3.55S315.126,412.77,313.706,409.73Z" transform="translate(-315.336 -351.46)" fill="#ff71d5"/>
        <path id="Trazado_2064" data-name="Trazado 2064" d="M250.561,383.54c-6.94,2-10.86,7.13-9.11,12.1,1,2.9,3.79,5.55,5.91,8.3s3.67,5.9,2,8.52c-1.62,2.46-5.75,3.93-9.94,4.92s-8.75,1.68-12.39,3.25c-7,3-9.31,9.21-5,13.95,2.39,2.59,6.6,4.87,7,7.72.3,2.38-2.29,4.5-5.32,6.1s-6.67,2.91-9.24,4.77c-5.35,3.82-5,9.77,1,13.58l121.44-44.44-40.66-49.2Z" transform="translate(-203.431 -351.46)" fill="#f5f5f5"/>
        <path id="Trazado_2065" data-name="Trazado 2065" d="M233.1,458.35c-12.91-3.26-22.16-10.07-23.5-17.19s4.86-14.27,15.48-18.05c3.51-1.26,7.44-2.16,11-3.39s6.65-2.88,7.78-5.09c1.44-2.84-.64-6.06-3.23-8.89s-5.71-5.59-6.81-8.62c-2.12-5.91,4-11.45,12.18-14.28s23-7.1,32.67-7.74c0,0,51.43,47.94,50.62,48.1S233.1,458.35,233.1,458.35Z" transform="translate(-194.541 -351.46)" fill="#e0e0e0"/>
        <path id="Trazado_2066" data-name="Trazado 2066" d="M270.426,414.29l8.12-1.09s-.57-.95-.74-1.25a4,4,0,0,0-1.84-1.63,1.7,1.7,0,0,1-.38-.26,13.128,13.128,0,0,1-.74-3.08c-.15-.88-1.17-1.17-1.25-.79-.13.7.17,3.55-.12,3.87s-.9-1.07-.9-1.07c-1.17-3-1.14-3.45-2-3.41s.67,4.49.67,4.49a1.08,1.08,0,0,0-1.06-.61c-.82,0-.79.66-.79.66-.1-.32-.83-.24-.83-.24-1.67.47,1.89,4.41,1.89,4.41l8.12-1.09,14.82,15.39,1.48-4.49,14,2.67-4.73,8.6c-.86,1.51-3,2.64-5.75,3.05h0c-4.64.69-9.81-.78-11.9-3.38Z" transform="translate(-232.816 -351.46)" fill="#aa6550"/>
        <path id="Trazado_2067" data-name="Trazado 2067" d="M304.848,413.22s-.55-.18-1.39-.5c-.41-.16-.9-.37-1.4-.62l-.75-.42c-.24-.15-.54-.31-.61-.48a.16.16,0,0,1,.1-.24,1,1,0,0,1,.47,0,8.379,8.379,0,0,1,1.09.16,8,8,0,0,1,1.6.53l.14.07v-.1a1.24,1.24,0,0,1,.31-.6.83.83,0,0,0-.51.58h.16a6.613,6.613,0,0,0-1.64-.61,7.7,7.7,0,0,0-1.15-.18,1.5,1.5,0,0,0-.69.06.3.3,0,0,0-.21.42,1.8,1.8,0,0,0,.71.57,7.562,7.562,0,0,0,.79.42,11.886,11.886,0,0,0,1.47.61A7.09,7.09,0,0,0,304.848,413.22Z" transform="translate(-261.008 -351.46)" fill="#934d3d"/>
        <path id="Trazado_2068" data-name="Trazado 2068" d="M305.418,410.36a3.661,3.661,0,0,0,.58.89l.7.94a2.661,2.661,0,0,1,.38.54c.09.17-.06.36-.3.33a1.529,1.529,0,0,1-.7-.39l-.57-.51c-.35-.32-.65-.63-.9-.88a5.847,5.847,0,0,0-.89-.8,4.812,4.812,0,0,0,.7.86c.23.26.51.57.85.91.17.16.35.34.56.52a1.79,1.79,0,0,0,.92.47.67.67,0,0,0,.59-.18.34.34,0,0,0,0-.36,3.5,3.5,0,0,0-.42-.57l-.77-.93A5.281,5.281,0,0,0,305.418,410.36Z" transform="translate(-266.928 -351.46)" fill="#934d3d"/>
        <path id="Trazado_2069" data-name="Trazado 2069" d="M307.7,411.81a2.164,2.164,0,0,1,.37.51.63.63,0,0,1,.07.53c-.06.07-.12.09-.26,0a4.136,4.136,0,0,1-.45-.25,15.265,15.265,0,0,1-1.94-1.54c-.08,0,.42.86,1.72,1.66a3.567,3.567,0,0,0,.52.28.8.8,0,0,0,.42,0,.36.36,0,0,0,.26-.17.39.39,0,0,0,0-.35.92.92,0,0,0-.14-.28,1.269,1.269,0,0,0-.57-.39Z" transform="translate(-269.747 -351.46)" fill="#934d3d"/>
        <path id="Trazado_2070" data-name="Trazado 2070" d="M274.28,425.63l-9.1-10.77,11,3.53,1.17-1.39,5.62-7,1.18-1.51-16-4.93c-19.84-6.42-28.4-2.07-28.4-2.07l-14,3.94s-10,2.89-11.14,9.66c-1,5.52-2.22,11.38-2.22,11.38l18.13,3.43.81-5.58,13.07,9.45" transform="translate(-152.36 -351.46)" fill="#ff71d5"/>
        <path id="Trazado_2071" data-name="Trazado 2071" d="M302.125,414.48c.1,0,.15-.52.71-1a9.822,9.822,0,0,1,1.25-.8,2.67,2.67,0,0,0-1.53.69C301.915,413.9,302.005,414.49,302.125,414.48Z" transform="translate(-261.945 -351.46)" fill="#934d3d"/>
        <path id="Trazado_2072" data-name="Trazado 2072" d="M283.65,431.88a3,3,0,0,0-.26-1.71,4.261,4.261,0,0,0-.9-1.68,9.841,9.841,0,0,0,.58,1.69,10.517,10.517,0,0,0,.58,1.7Z" transform="translate(-221.99 -351.46)" fill="#934d3d"/>
        <path id="Trazado_2073" data-name="Trazado 2073" d="M220.17,413.75s3.32,1.1,7.5,2.37,7.65,2.24,7.68,2.2-3.37-1.11-7.57-2.37S220.2,413.7,220.17,413.75Z" transform="translate(-111.34 -351.46)" fill="#263238"/>
        <path id="Trazado_2074" data-name="Trazado 2074" d="M261.34,419.16a2.423,2.423,0,0,0,.29.35c.21.22.5.55.89.94.78.78,1.91,1.85,3.25,3s2.63,2.17,3.59,2.9l1.17.85a3.553,3.553,0,0,0,.47.3,2.978,2.978,0,0,0-.37-.34l-1.09-.88c-.91-.74-2.17-1.77-3.51-2.92s-2.48-2.2-3.31-3l-1-.91A1.848,1.848,0,0,0,261.34,419.16Z" transform="translate(-188.16 -351.46)" fill="#263238"/>
        <path id="Trazado_2075" data-name="Trazado 2075" d="M264.044,382.52c.71-1.95,6.56-2.84,9.53-2.47a15.63,15.63,0,0,1,7.94,3.32c1.29,1.1,2.31,2.46,4.19,3.08,1.4.46,3,.39,4.35.9a4.75,4.75,0,0,1,2.74,2.46,3.65,3.65,0,0,1-1.66,4.87c-.79.47,2.42,2.09,1.87,2.7s-3.1,2.21-3.32,3.09c-.59,2.33-5.38,2.28-9.28,2.44a21.819,21.819,0,0,0-2.32.12,10.941,10.941,0,0,0-3.15,1.22,18,18,0,0,1-12,.52c-4.12-1.26-7.21-4.27-6.53-6.79.27-1,1.07-1.91.93-3a9.26,9.26,0,0,0-1.42-2.75,4.27,4.27,0,0,1,.14-4.66,7.79,7.79,0,0,1,5.06-2.76" transform="translate(-204.274 -351.46)" fill="#263238"/>
        <path id="Trazado_2076" data-name="Trazado 2076" d="M287.236,404.46c-2.36-2.27-4.76-4.67-4.76-4.67s3.94-1.86.9-6c-2.86-3.9-12.18-12-12.18-12h0c-7.86.25-14.15,3.73-15.41,8.5h0l18.68,18.29c2.24,2.12,6.91,2.92,10.45,1.79h0C288.5,409.28,289.516,406.61,287.236,404.46Z" transform="translate(-200.056 -351.46)" fill="#aa6550"/>
        <path id="Trazado_2077" data-name="Trazado 2077" d="M269.332,388.73c.28.26.19.58-.2.72a1.27,1.27,0,0,1-1.2-.21c-.27-.25-.18-.57.21-.71A1.28,1.28,0,0,1,269.332,388.73Z" transform="translate(-193.092 -351.46)" fill="#263238"/>
        <path id="Trazado_2078" data-name="Trazado 2078" d="M270.4,388c0,.09-.85,0-1.63.24s-1.09.69-1.24.65-.09-.16,0-.36a1.67,1.67,0,0,1,.92-.6,3.34,3.34,0,0,1,1.37-.11C270.22,387.85,270.42,387.94,270.4,388Z" transform="translate(-193.66 -351.46)" fill="#263238"/>
        <path id="Trazado_2079" data-name="Trazado 2079" d="M277.15,391.37c.27.26.17.58-.22.72a1.27,1.27,0,0,1-1.2-.21c-.27-.25-.17-.57.22-.71a1.29,1.29,0,0,1,1.2.2Z" transform="translate(-208.7 -351.46)" fill="#263238"/>
        <path id="Trazado_2080" data-name="Trazado 2080" d="M278.441,390.74a16.657,16.657,0,0,0-1.65.24c-.79.24-1.11.69-1.26.66s-.09-.16,0-.36a1.77,1.77,0,0,1,.93-.61,3.45,3.45,0,0,1,1.39-.11C278.261,390.61,278.451,390.7,278.441,390.74Z" transform="translate(-209.701 -351.46)" fill="#263238"/>
        <path id="Trazado_2081" data-name="Trazado 2081" d="M271.621,393.74a5,5,0,0,1,1.13-.55c.19-.08.36-.17.3-.27a1.55,1.55,0,0,0-.54-.35l-1.63-.84a36.737,36.737,0,0,1-4-2.25,43.27,43.27,0,0,1,4.26,2.07l1.61.85c.23.13.54.26.64.5a.26.26,0,0,1-.13.3,1.89,1.89,0,0,1-.31.13A6.818,6.818,0,0,1,271.621,393.74Z" transform="translate(-196.101 -351.46)" fill="#263238"/>
        <path id="Trazado_2082" data-name="Trazado 2082" d="M270.1,399.79a25.06,25.06,0,0,1-9.21,1,14,14,0,0,0,10.06-.11Z" transform="translate(-187.66 -351.46)" fill="#934d3d"/>
        <path id="Trazado_2083" data-name="Trazado 2083" d="M279.693,389.42c0,.06-.22.08-.51.15a6.632,6.632,0,0,0-1.1.36,4.788,4.788,0,0,0-.9.52c-.2.15-.3.26-.39.25s-.13-.18,0-.4a2,2,0,0,1,.89-.68,3.791,3.791,0,0,1,1.36-.31A1.146,1.146,0,0,1,279.693,389.42Z" transform="translate(-212.223 -351.46)" fill="#263238"/>
        <path id="Trazado_2084" data-name="Trazado 2084" d="M271.8,387.16c.09.1-.33.33-.94.51a2.48,2.48,0,0,1-1.28.18c-.09-.1.33-.33.94-.51A2.49,2.49,0,0,1,271.8,387.16Z" transform="translate(-197.2 -351.46)" fill="#263238"/>
        <path id="Trazado_2085" data-name="Trazado 2085" d="M267.348,395.55c.08-.42.85-.67,1.54-.51s1.14.69.91,1.07a1.64,1.64,0,0,1-1.74.28c-.65-.23-.93-.79-.57-1.13" transform="translate(-193.008 -351.46)" fill="#934d3d"/>
        <path id="Trazado_2086" data-name="Trazado 2086" d="M266.693,394.83a6.749,6.749,0,0,0,1.86.7,8.63,8.63,0,0,0,2.09-.09c.05,0-.09.17-.47.3a3.79,3.79,0,0,1-1.72.11,3.279,3.279,0,0,1-1.5-.6C266.683,395,266.633,394.85,266.693,394.83Z" transform="translate(-193.143 -351.46)" fill="#263238"/>
        <path id="Trazado_2087" data-name="Trazado 2087" d="M280.224,381.48a9.34,9.34,0,0,1,5.63-.67,9,9,0,0,1,5,2.48c.45.51.77,1.1.56,1.6-.46,1.09-3,1.22-3.75,2.21l-2.06-1.38a1.16,1.16,0,0,1,.12,2,9.331,9.331,0,0,1-2.86,1.11,4.16,4.16,0,0,0-2.46,1.37l-1.29-.83.9,1.64-5.32,3c-3.84-1.83-5.83-5-4.8-7.67s4.92-4.53,9.37-4.52" transform="translate(-216.924 -351.46)" fill="#263238"/>
        <path id="Trazado_2088" data-name="Trazado 2088" d="M277.672,402.42a13.15,13.15,0,0,0,6.74,2.12c2.5.09,4.91-.61,6-1.86s.61-3-1.19-4.19a22,22,0,0,0-3.49-1.6,5.76,5.76,0,0,1-2.8-1.95,5.44,5.44,0,0,1-.33-1.67c-.39-1.94-2.94-3.6-5.31-5.06l-6.5,3.05Z" transform="translate(-217.602 -351.46)" fill="#263238"/>
        <path id="Trazado_2089" data-name="Trazado 2089" d="M232.79,420.73a5.517,5.517,0,0,0,.65-.11,11.558,11.558,0,0,0,1.65-.53,13.688,13.688,0,0,0,2.1-1.09c.76-.48,1.55-1.05,2.51-1.64a10.88,10.88,0,0,1,1.64-.84c.31-.13.6-.28.95-.4l1.07-.35a34.848,34.848,0,0,1,5.16-1c3.82-.51,8.27-.68,12.68-1.33a24.729,24.729,0,0,0,5.87-1.52,12.41,12.41,0,0,0,3.82-2.45c1.89-1.78,3.12-3.52,4.8-4.74a12.64,12.64,0,0,1,4.92-2.3,20.307,20.307,0,0,1,2.39-.36h-.67a14.55,14.55,0,0,0-1.81.25,13.11,13.11,0,0,0-5.1,2.27c-1.73,1.22-3,3-4.89,4.73a12.68,12.68,0,0,1-3.76,2.39,24.559,24.559,0,0,1-5.75,1.48c-4.35.64-8.8.81-12.65,1.34a35.48,35.48,0,0,0-5.22,1.07l-1.09.37c-.35.12-.65.28-1,.41a10.108,10.108,0,0,0-1.65.87c-1,.6-1.73,1.18-2.46,1.67a11.16,11.16,0,0,1-4.16,1.81Z" transform="translate(-171.61 -351.46)" fill="#fff"/>
        <path id="Trazado_2090" data-name="Trazado 2090" d="M220.75,424.64a9.46,9.46,0,0,1,1.1-1.12,13.11,13.11,0,0,1,5-2.07,82.534,82.534,0,0,1,9.44-1.36,40.11,40.11,0,0,0,5.5-1,17.54,17.54,0,0,0,4.73-2,36,36,0,0,0,6-5.26,18.83,18.83,0,0,1,5.63-3.87,18,18,0,0,1,5.58-1.42c1.52-.12,2.43-.06,2.41-.09a15.414,15.414,0,0,0-2.47,0,17.91,17.91,0,0,0-5.8,1.36,18.789,18.789,0,0,0-5.81,3.88,38,38,0,0,1-6,5.2,17.39,17.39,0,0,1-4.59,1.95,40.374,40.374,0,0,1-5.38,1,77.1,77.1,0,0,0-9.46,1.43,12.391,12.391,0,0,0-5,2.2,2.72,2.72,0,0,0-.88,1.17Z" transform="translate(-142.71 -351.46)" fill="#fff"/>
        <path id="Trazado_2091" data-name="Trazado 2091" d="M267.091,425.94a29.66,29.66,0,0,0,8.41-1.15c4.27-1.16,6.59-2.83,6.4-2.89a61.96,61.96,0,0,1-6.86,2.48C270.921,425.49,267,425.8,267.091,425.94Z" transform="translate(-204.821 -351.46)" fill="#fff"/>
        <path id="Trazado_2092" data-name="Trazado 2092" d="M266.33,414.36a4.5,4.5,0,0,0,.76,0,13.61,13.61,0,0,0,2-.21,24.251,24.251,0,0,0,5.48-1.85,24.109,24.109,0,0,1,5.3-1.83,22.908,22.908,0,0,1,2.62-.3,3.262,3.262,0,0,0-.76,0,13.145,13.145,0,0,0-2,.18,22.408,22.408,0,0,0-5.48,1.8,25.74,25.74,0,0,1-5.3,1.87C267.41,414.33,266.31,414.31,266.33,414.36Z" transform="translate(-204.64 -351.46)" fill="#fff"/>
        <path id="Trazado_2093" data-name="Trazado 2093" d="M254.869,400.25a8,8,0,0,0-1.94.43,7.57,7.57,0,0,0-3.29,2,6.072,6.072,0,0,0-.87,1.47,2.75,2.75,0,0,1-.91,1.1,4.079,4.079,0,0,1-1.65.6,1.49,1.49,0,0,0,.6,0,3.61,3.61,0,0,0,1.3-.47,3,3,0,0,0,1.05-1.12,7.241,7.241,0,0,1,.88-1.44,7.85,7.85,0,0,1,3.09-2C254.149,400.44,254.9,400.29,254.869,400.25Z" transform="translate(-156.899 -351.46)" fill="#fff"/>
      </g>
      <path id="Trazado_2095" data-name="Trazado 2095" d="M279.99,351.46l-1,.3-2.91.92-11.16,3.57-40.77,13.14-.28.09.19.23,58.85,72.38.11.14.17-.06,3.45-1.17,57.55-19.49.35-.12-.25-.27-46.32-50.28-13.24-14.32-3.52-3.79-.91-1-.31-.32.3.36.9,1,3.49,3.86,13.17,14.44c11.3,12.34,27.29,29.8,46.08,50.34l.1-.39-57.55,19.44-3.44,1.17.28.08-58.91-72.25-.1.32,40.62-13.3,11.16-3.69,2.91-1Z" transform="translate(-216.609 -348.098)" fill="#263238"/>
    </g>
    <g id="freepik--Computer--inject-390" transform="translate(58.949 31.324)">
      <path id="Trazado_2096" data-name="Trazado 2096" d="M362.741,217.36,425.171,265a8.62,8.62,0,0,1-2.64,15.07l-218.31,68.6a8.61,8.61,0,0,1-10.07-4l-40.49-71.23-23.73-134.76c-.82-4.65-.12-12,7.36-14.53l203.93-33.58a8.63,8.63,0,0,1,10.16,7.66Z" transform="translate(-129.663 -84.524)" fill="#263238"/>
      <path id="Trazado_2097" data-name="Trazado 2097" d="M359.176,211.63l62.4,47.66a8.62,8.62,0,0,1-2.65,15.07l-218.27,68.58a8.63,8.63,0,0,1-10.07-4L150.1,267.71,126.356,133a8.61,8.61,0,0,1,6.9-10l204.41-38.16a8.61,8.61,0,0,1,10.16,7.65Z" transform="translate(-122.618 -84.524)" fill="#f5f5f5"/>
      <path id="Trazado_2098" data-name="Trazado 2098" d="M359.194,211.63s-.06-.81-.2-2.36-.35-3.87-.63-6.89c-.56-6.06-1.39-15-2.46-26.47s-2.4-25.54-3.93-41.85q-1.16-12.24-2.46-26.12-.65-6.94-1.34-14.26a12,12,0,0,0-.72-3.67,8.77,8.77,0,0,0-9.35-5.4l-142.49,26.54-41.18,7.68-21.27,4a8.88,8.88,0,0,0-7.08,7.82,9.459,9.459,0,0,0,.15,2.81l.48,2.73c.32,1.81.65,3.64,1,5.46,5.14,29.24,10.47,59.5,15.93,90.5,2.15,12.22,4.28,24.32,6.28,35.66h0l21.5,37.8q5.28,9.31,10.49,18.46l5.18,9.12,2.58,4.52a21.938,21.938,0,0,0,1.32,2.29,8.771,8.771,0,0,0,1.88,1.87,9,9,0,0,0,4.95,1.69,8.861,8.861,0,0,0,2.61-.32c.84-.24,1.64-.51,2.46-.76l9.71-3.05,19.13-6,37-11.62,127.13-40,13.18-4.15,6.33-2,3.11-1c.51-.14,1-.36,1.52-.55a10.313,10.313,0,0,0,1.42-.79,8.87,8.87,0,0,0,2.79-11.2,12.115,12.115,0,0,0-.82-1.28,8.146,8.146,0,0,0-1-1.1c-.74-.69-1.54-1.23-2.3-1.83l-4.53-3.46-30.45-23.18-19.2-14.6-5-3.78c-1.12-.86-1.71-1.28-1.71-1.28l1.67,1.3,5,3.81,19.14,14.67,30.42,23.28,4.53,3.47c.76.59,1.58,1.15,2.28,1.81a9.087,9.087,0,0,1,1,1.07,9.937,9.937,0,0,1,.78,1.24,8.55,8.55,0,0,1-2.7,10.8,9.542,9.542,0,0,1-1.37.75c-.49.19-1,.4-1.49.55l-3.1,1-6.34,2-13.18,4.13-127.17,39.89-37,11.61-19.13,6-9.71,3a14.25,14.25,0,0,1-4.91,1.06,8.52,8.52,0,0,1-4.66-1.6,8.25,8.25,0,0,1-1.78-1.76,22.337,22.337,0,0,1-1.33-2.19l-2.66-4.5q-2.58-4.54-5.18-9.12-5.19-9.15-10.49-18.46l-21.49-37.81v.08c-2-11.34-4.12-23.44-6.28-35.66l-15.94-90.49-1-5.47-.49-2.73a9.25,9.25,0,0,1-.15-2.67,8.39,8.39,0,0,1,6.72-7.37l21.27-4,41.18-7.7L338.114,85a8.42,8.42,0,0,1,9,5.17,11.611,11.611,0,0,1,.7,3.57q.71,7.33,1.36,14.28c.89,9.25,1.73,18,2.51,26.14,1.57,16.31,2.92,30.37,4,41.86s2,20.39,2.56,26.44c.29,3,.52,5.31.67,6.86S359.194,211.63,359.194,211.63Z" transform="translate(-122.636 -84.524)" fill="#263238"/>
      <path id="Trazado_2099" data-name="Trazado 2099" d="M346.52,217.41l41.53,31.04L185.13,309.09,157.3,268.03Z" transform="translate(-116.792 -84.524)" fill="#263238"/>
      <path id="Trazado_2100" data-name="Trazado 2100" d="M252.55,272.22l21.1,18.74-52.28,15.93-18.26-19.82Z" transform="translate(-48.202 -84.524)" fill="#e0e0e0"/>
      <path id="Trazado_2101" data-name="Trazado 2101" d="M189.58,283c-11.57,3.21-18.38,5.07-18.39,5s6.71-2,18.17-5.27c-3-3.61-5.78-6.95-8.13-9.8-10.53,2.88-16.68,4.54-16.7,4.49s6.07-1.79,16.5-4.73c-4.44-5.39-7.31-8.94-7.24-9s3.1,3.46,7.69,8.87l14.94-4.19c-4.83-5-7.94-8.25-7.88-8.32s3.36,3.18,8.34,8.19l13.51-3.78c-5.85-5.76-9.72-9.64-9.66-9.7s4.13,3.77,10.15,9.57l15.35-4.28c-6.37-5.95-10.63-10-10.56-10.08s4.53,3.94,11.07,9.93l15.36-4.27c-6.46-5.52-10.75-9.25-10.69-9.33s4.57,3.63,11.21,9.18L258.86,251c-6.47-5.52-10.76-9.26-10.7-9.33s4.57,3.62,11.23,9.19l4.48-1.25,10.12-2.8c-6.12-5.24-10.14-8.74-10.08-8.81s4.28,3.39,10.59,8.66l14.62-4.06c-5.77-4.94-9.53-8.21-9.47-8.28s4,3.17,10,8.15l14.76-4.09c-6.07-5.19-10-8.66-10-8.73s4.25,3.36,10.5,8.59l14.64-4c-5.73-4.9-9.45-8.15-9.4-8.22s4,3.14,9.9,8.08l15.16-4.17c-5.34-4.57-8.76-7.56-8.71-7.62s3.67,2.89,9.19,7.49l13.43-3.68c-1.8-1.5-3.46-2.89-4.9-4.12-2.09-1.78-3.77-3.24-4.92-4.26l-1.31-1.18a3.459,3.459,0,0,1-.44-.44,3,3,0,0,1,.51.36l1.37,1.11,5,4.13,5.21,4.26c8.7-2.38,13.7-3.72,13.71-3.67s-4.89,1.45-13.46,3.87c3.16,2.56,6.77,5.46,10.63,8.51,6.25-1.72,9.76-2.67,9.77-2.63s-3.42,1-9.56,2.8l.39.31c3.8,3,7.41,5.78,10.63,8.24,7.06-2,11.05-3.11,11.07-3.07s-3.9,1.21-10.84,3.25c2.26,1.73,4.34,3.31,6.13,4.66l5.19,3.91,1.42,1.04a4,4,0,0,1,.47.4,3.714,3.714,0,0,1-.53-.32l-1.46-1c-1.26-.87-3.07-2.16-5.29-3.78-1.89-1.37-4.08-3-6.46-4.79l-14.25,4.18c8.24,7,14,12,14,12.11s-6.1-4.88-14.52-11.95l-14.96,4.34c7.75,6.6,13.11,11.24,13,11.32s-5.66-4.52-13.59-11.16l-14.4,4.19c7.32,6.23,12.31,10.56,12.24,10.64s-5.28-4.21-12.78-10.49l-14.47,4.22c7.5,6.4,12.64,10.86,12.58,10.94s-5.44-4.34-13.13-10.78l-14.45,4.18c7.08,6,11.86,10.19,11.8,10.27s-5.07-4-12.33-10.11l-14.43,4.17c6.64,5.67,11.07,9.53,11,9.61s-4.71-3.75-11.54-9.46l-1.43.42-14.64,4.23c6.56,5.6,10.93,9.4,10.87,9.47s-4.65-3.68-11.39-9.32l-16.7,4.82c6.33,5.91,10.56,9.93,10.49,10s-4.5-3.91-11-9.86l-16.07,4.62c6.72,6.61,11.28,11.17,11.21,11.25s-4.84-4.46-11.72-11.1l-14.06,4c6.52,6.69,11,11.35,10.91,11.42s-4.75-4.55-11.42-11.27l-17.25,4.94c6.2,7.47,10.47,12.73,10.39,12.8s-4.56-5.15-10.89-12.66c-13.62,3.96-21.8,6.31-21.8,6.21s8.05-2.45,21.62-6.42c-2.14-2.54-4.48-5.33-6.93-8.26Zm7.14-14.3-15,4.13c2.39,2.83,5.2,6.16,8.22,9.77l16-4.54C202.48,274.61,199.36,271.42,196.72,268.7Zm14-3.86-13.55,3.73c2.68,2.7,5.83,5.88,9.23,9.33l13.72-3.9c-3.4-3.31-6.61-6.44-9.4-9.16Zm15.9-4.39-15.4,4.25c2.81,2.71,6,5.82,9.45,9.16l15.63-4.41c-3.48-3.25-6.77-6.31-9.65-9Zm15.92-4.4-15.4,4.26c2.92,2.67,6.23,5.72,9.75,9l15.94-4.5c-3.71-3.19-7.22-6.16-10.26-8.76Zm16.77-4.65-16.24,4.5c3.09,2.58,6.62,5.55,10.36,8.71l16.1-4.53c-3.68-3.14-7.16-6.08-10.19-8.68Zm15.13-4.2-10.46,2.9-4.14,1.15c3.07,2.57,6.58,5.52,10.3,8.66l.5-.14,14-3.93c-3.72-3.14-7.18-6.08-10.17-8.64Zm15.15-4.2-14.6,4.06,10.25,8.61,14.48-4.06C295.99,248.46,292.54,245.52,289.59,243Zm15.24-4.24-14.73,4.1c3,2.51,6.48,5.43,10.22,8.58l14.62-4.09C311.24,244.22,307.8,241.29,304.83,238.76Zm15.11-4.22-14.59,4.07c3,2.52,6.48,5.44,10.19,8.57l14.49-4.05C326.31,240,322.87,237.05,319.94,234.54Zm15.59-4.36-15.09,4.22c3,2.5,6.46,5.41,10.2,8.56l15-4.18C341.88,235.6,338.43,232.67,335.53,230.18Zm13.84-3.89L336.02,230c3,2.47,6.44,5.39,10.21,8.57l13.67-3.79C356.06,231.78,352.48,228.87,349.37,226.29Zm7.51,21.33,14.32-4.09c-3.18-2.38-6.7-5.08-10.39-8l-.68-.54-13.58,3.87c.8.68,1.61,1.37,2.44,2.06Zm-15.5,4.44,14.93-4.28-7.66-6.45c-.92-.77-1.82-1.53-2.7-2.29l-14.93,4.24,1.62,1.37Zm-15,4.31,14.44-4.15c-2.64-2.2-5.51-4.63-8.53-7.17l-1.88-1.6-14.45,4.09.92.78c3.42,2.87,6.63,5.6,9.51,8.05Zm-15.11,4.36,14.56-4.2c-2.83-2.37-6-5-9.28-7.82l-1.19-1-14.59,4.12,1.38,1.17Zm-15,4.32,14.45-4.16c-2.73-2.3-5.75-4.83-8.91-7.51L300.17,252l-14.45,4.08.68.57c3.56,3.01,6.92,5.86,9.9,8.4Zm-15,4.33,14.45-4.17c-2.94-2.46-6.23-5.23-9.7-8.16l-.95-.8-14.3,4-.16.05h0c3.92,3.29,7.55,6.38,10.71,9.08Zm-16.59,4.8,15-4.33,1.09-.32c-3.13-2.62-6.69-5.62-10.47-8.81l-.28-.23-16.1,4.52c3.94,3.32,7.62,6.45,10.8,9.17Zm-17.18,5,16.65-4.83c-3.17-2.65-6.79-5.7-10.63-8.94l-.24-.21-16,4.49c3.77,3.41,7.25,6.64,10.27,9.47ZM231.03,284l16-4.65c-3-2.77-6.48-5.95-10.15-9.34l-.14-.12-15.68,4.39.78.75C225.16,278.2,228.26,281.24,231.03,284Zm-14.52,4.23,14-4.08c-2.74-2.64-5.79-5.6-9-8.74l-1-1-13.79,3.82,1.57,1.59c2.97,2.98,5.73,5.81,8.22,8.36Zm-17.66,5.15,17.14-5c-2.46-2.48-5.18-5.23-8-8.14l-1.77-1.8-16.06,4.47,1.7,2c2.46,2.97,4.86,5.82,6.99,8.42Z" transform="translate(-121.163 -84.524)" fill="#f5f5f5"/>
      <path id="Trazado_2102" data-name="Trazado 2102" d="M414,209.56h0l-.16-1.8-.06-.6-3.42-39-5.16-58.8c-11.61-2.54-23.51-4.77-35.18-2.75a40.7,40.7,0,0,0-14.63,5.62,26,26,0,0,0-20.14,19.45c-1.33,6.16-.3,12.55-.17,18.85s-.89,13.14-5.34,17.6c-.26.26-.53.51-.8.74.05-.67.13-1.7.17-2.13a6,6,0,0,0-.76-4,2.4,2.4,0,0,1-.22-.67,48.068,48.068,0,0,1,1.86-6.39c.61-1.79-.38-2.8-.81-2.08-.8,1.33-3,7.07-3.61,7.58s-.15-2.49-.15-2.49c1.23-6.37,1.68-7.28.55-7.57-1.29-.34-3.16,9.14-3.16,9.14s.25-1.33-.76-1.64-1.54,1-1.54,1c.16-.68-.81-.83-.81-.83-2.43.23-1.57,9.49-1.57,9.49l.05,5a42.721,42.721,0,0,1-4.76.43c-5.89.24-11.9-.25-17.56,1.37-10.82,3.1-18.56,14.57-17.39,25.76.08.72.19,1.45.32,2.17a40.192,40.192,0,0,0-1.72,4.63,43.3,43.3,0,0,0-1.4,17.54,26.771,26.771,0,0,1-6.56,3.88c-4.71,2-9.8,3.22-14.14,5.94a24,24,0,0,0-10.74,18.61l-20.12,5.23-5.44-29.5a17.71,17.71,0,0,0,7.16-2.88,20.23,20.23,0,0,0,8.35-15.32,16.44,16.44,0,0,0-2.95-10.87,11,11,0,0,0-10-4.47l-.39.1a42.62,42.62,0,0,0-8,1.54l-11.27-60.72,202.5-40.24Zm-175.88-40,48-10.65-1.09-4.9-48,10.66Zm2.82-40.3c-.63,3.31-.46,6.59,1.35,9.41,2.75,4.27,8.48,5.75,13.52,5.11s9.69-3,14.43-4.8,10-3.2,14.86-1.85,9,5.37,14,6.61c7.37,1.81,16.53-2,20.32-9.12,3.43-6.45,2-14.48-4.4-20.08Z" transform="translate(-187.013 -84.524)" fill="#fff"/>
      <path id="Trazado_2103" data-name="Trazado 2103" d="M373.2,134.6c-3.79,7.14-12.95,10.93-20.32,9.12-5-1.24-9-5.24-14-6.61s-10.12,0-14.86,1.85-9.39,4.16-14.43,4.8-10.77-.84-13.52-5.11c-1.81-2.82-2-6.1-1.35-9.41l74.05-14.72C375.161,120.12,376.631,128.15,373.2,134.6Z" transform="translate(-240.824 -84.524)" fill="#ff71d5"/>
      <path id="Trazado_2104" data-name="Trazado 2104" d="M273.36,129.66c-1.49,6.39-.38,13.07,0,19.63s-.28,13.68-4.52,18.7a19.85,19.85,0,0,1-8.26,5.53l-.4-4,.06-.64c.27-.23.54-.48.8-.74,4.45-4.46,5.47-11.3,5.34-17.6s-1.16-12.69.17-18.85a26,26,0,0,1,20.14-19.45C280.18,116.31,275.09,122.26,273.36,129.66Z" transform="translate(-118.312 -84.524)" fill="#f5f5f5"/>
      <path id="Trazado_2105" data-name="Trazado 2105" d="M328.127,177.55A44.77,44.77,0,0,0,297.857,203c-.13-.72-.24-1.45-.32-2.17-1.17-11.19,6.57-22.66,17.39-25.76,5.66-1.62,11.67-1.13,17.56-1.37a42.723,42.723,0,0,0,4.76-.43v2.76C334.207,176.47,331.137,176.85,328.127,177.55Z" transform="translate(-206.109 -84.524)" fill="#f5f5f5"/>
      <path id="Trazado_2106" data-name="Trazado 2106" d="M343.95,235c4.34-2.72,9.43-3.93,14.14-5.94a26.77,26.77,0,0,0,6.56-3.88,45.14,45.14,0,0,0,6.74,18.87l-38.2,9.91v-.35A24,24,0,0,1,343.95,235Z" transform="translate(-276.022 -84.524)" fill="#f5f5f5"/>
      <path id="Trazado_2107" data-name="Trazado 2107" d="M207.3,200.41l.43.53-.44-.49Z" transform="translate(13.538 -84.524)" fill="#e0e0e0"/>
      <path id="Trazado_2108" data-name="Trazado 2108" d="M253.268,225.18a43.3,43.3,0,0,1,1.4-17.54,40.192,40.192,0,0,1,1.72-4.63,44.77,44.77,0,0,1,30.27-25.46c3-.7,6.08-1.08,9.15-1.51l.39,39.74a11.52,11.52,0,0,0,20,7.66l9.77-10.66,3.4,2.66,6-10c.31,1.66.63,3.15.91,4.32.21.91.4,1.63.54,2.13a3.1,3.1,0,0,0,.26.77,4,4,0,0,0-.11-.8c-.11-.6-.25-1.32-.41-2.16-.25-1.28-.56-2.93-.89-4.76v-.07l4.6,18.33-80.35,20.84A45.14,45.14,0,0,1,253.268,225.18Z" transform="translate(-164.64 -84.524)" fill="#e0e0e0"/>
      <path id="Trazado_2109" data-name="Trazado 2109" d="M266.99,164l-3.92.32a10,10,0,0,0-.11-1.1,5.82,5.82,0,0,0,2.55-2c1.18-1.61,5.73-3.44,7.32-4.57,1.31-.93-1-5.43.47-6a12.15,12.15,0,0,0,7.17-8.65,7.17,7.17,0,0,0-.9-5.93c-1.23-1.57-3.3-2.11-4.61-3.61-1.76-2-1.66-5.09-2.18-7.78a14.86,14.86,0,0,0-6.86-9.91c-3.15-1.84-10.44-2.69-13.87-.22A15.41,15.41,0,0,0,238.68,120l-.09.12a13.109,13.109,0,0,0-2.6,1.77,14.43,14.43,0,0,0-4.59,9c-.23,2-.07,4.14-.8,6-.84,2.13-2.68,3.56-4,5.41-3.22,4.66-2.2,11.86,1.67,16.06a15.17,15.17,0,0,0,14.3,4.23l.46,3.7c-4.72,1.08-14.33,4.36-20,13.73-6.36,10.4-13.26,21.39-13.26,21.39l1.11.87-2.51,3.49v-.18h0l-3.16-32.1a19.85,19.85,0,0,0,8.26-5.53c4.24-5,4.86-12.14,4.52-18.7s-1.46-13.24,0-19.63c1.73-7.4,6.82-13.35,13.3-17.44a40.7,40.7,0,0,1,14.63-5.62c11.67-2,23.57.21,35.18,2.75l5.16,58.8C275.05,161.52,266.99,164,266.99,164Z" transform="translate(-62.912 -84.524)" fill="#e0e0e0"/>
      <path id="Trazado_2110" data-name="Trazado 2110" d="M201.99,201c.86,1,1.83,2.11,2.86,3.28s2.18,2.47,3.12,3.51l.16,1.8v.34l-6.53,1.69Z" transform="translate(18.828 -84.524)" fill="#e0e0e0"/>
      <path id="Trazado_2111" data-name="Trazado 2111" d="M278.488,173.52l3.16,32.1c-.13.16-.41,1.69-.87,3.54a32.091,32.091,0,0,0-.89,3.56,11.318,11.318,0,0,0,1.28-3.47,15.368,15.368,0,0,0,.53-3.48l2.51-3.49,13.4,10.5-9.8,10.66a11.52,11.52,0,0,1-20-7.66l-.41-39.74v-2.76l-.05-5s-.86-9.26,1.57-9.49c0,0,1,.15.81.83,0,0,.53-1.3,1.54-1s.76,1.64.76,1.64,1.87-9.48,3.16-9.14c1.13.29.68,1.2-.55,7.57,0,0-.48,3,.15,2.49s2.81-6.25,3.61-7.58c.43-.72,1.42.29.81,2.08-.51,1.49-1.9,5.56-1.86,6.39a2.4,2.4,0,0,0,.22.67,6,6,0,0,1,.76,4c0,.43-.12,1.46-.17,2.13l-.06.64Zm-6.43-10.64a9,9,0,0,0-.2-2,10.42,10.42,0,0,0-.08,2v2.14a8.541,8.541,0,0,1,0,1.24c0,.37-.39.68-.66.52s-.4-.64-.5-1.06-.17-.83-.24-1.23c-.13-.79-.23-1.51-.31-2.12a8.311,8.311,0,0,0-.38-1.95,12.193,12.193,0,0,0,.09,2,13.661,13.661,0,0,0,.15,1.49,3.613,3.613,0,0,1,0,.8,2.13,2.13,0,0,1-.38,1.07c-.14.12-.23.12-.35,0a4.352,4.352,0,0,1-.32-.68,25.088,25.088,0,0,1-1-3.83,7.23,7.23,0,0,0,.62,4,5,5,0,0,0,.38.77.62.62,0,0,0,.47.26.6.6,0,0,0,.46-.3,1.64,1.64,0,0,0,.32-.69.22.22,0,0,1,0-.08,5.483,5.483,0,0,0,.1.56,1.92,1.92,0,0,0,.68,1.32.77.77,0,0,0,.87-.1,1.14,1.14,0,0,0,.38-.7,7.15,7.15,0,0,0,0-1.31C272.128,164.26,272.1,163.54,272.058,162.88Zm4.22,2.12a6.67,6.67,0,0,0-1.35-1.7,6.758,6.758,0,0,0-1.24-.85,1.31,1.31,0,0,0-.88-.16.86.86,0,0,0-.63.75,2.72,2.72,0,0,0,.35,1.42,10.45,10.45,0,0,0,.58,1.16,9.761,9.761,0,0,0,.85,1.3,4.09,4.09,0,0,0-2.22.78,3.29,3.29,0,0,0-1.53,2.07,15.3,15.3,0,0,1,1.76-1.74,7.589,7.589,0,0,1,2.09-1c.1.12.19.26.28.37a5.87,5.87,0,0,0,1.45,1.38s-.5-.58-1.22-1.56a15.146,15.146,0,0,1-1.14-1.81c-.19-.35-.37-.73-.54-1.13a2.73,2.73,0,0,1-.32-1.2.49.49,0,0,1,.34-.43.94.94,0,0,1,.61.12,7.212,7.212,0,0,1,1.17.78,6.93,6.93,0,0,1,1.46,1.71l.12.19.1-.19a4.05,4.05,0,0,1,.92-1.05A1.838,1.838,0,0,0,276.278,165Z" transform="translate(-136.25 -84.524)" fill="#aa6550"/>
      <path id="Trazado_2112" data-name="Trazado 2112" d="M293.69,165.24l-.1.19-.12-.19a6.93,6.93,0,0,0-1.46-1.71,7.212,7.212,0,0,0-1.17-.78.94.94,0,0,0-.61-.12.49.49,0,0,0-.34.43,2.73,2.73,0,0,0,.32,1.2c.17.4.35.78.54,1.13a15.145,15.145,0,0,0,1.14,1.81c.72,1,1.27,1.51,1.22,1.56a5.871,5.871,0,0,1-1.45-1.38c-.09-.11-.18-.25-.28-.37a7.59,7.59,0,0,0-2.09,1,15.288,15.288,0,0,0-1.76,1.74,3.29,3.29,0,0,1,1.53-2.07,4.09,4.09,0,0,1,2.22-.78,9.759,9.759,0,0,1-.85-1.3,10.455,10.455,0,0,1-.58-1.16,2.72,2.72,0,0,1-.35-1.42.86.86,0,0,1,.63-.75,1.31,1.31,0,0,1,.88.16,6.76,6.76,0,0,1,1.24.85,6.67,6.67,0,0,1,1.35,1.7c.5-.66,1-.79,1-.76A4.05,4.05,0,0,0,293.69,165.24Z" transform="translate(-153.572 -84.524)" fill="#934d3d"/>
      <path id="Trazado_2113" data-name="Trazado 2113" d="M296.958,166.34a1.14,1.14,0,0,1-.38.7.77.77,0,0,1-.87.1,1.92,1.92,0,0,1-.68-1.32,5.483,5.483,0,0,1-.1-.56.22.22,0,0,0,0,.08,1.64,1.64,0,0,1-.32.69.6.6,0,0,1-.47.21.62.62,0,0,1-.47-.26,5,5,0,0,1-.38-.77,7.23,7.23,0,0,1-.62-4,25.088,25.088,0,0,0,1,3.83,4.352,4.352,0,0,0,.32.68c.12.15.21.15.35,0a2.13,2.13,0,0,0,.38-1.07,3.613,3.613,0,0,0,0-.8c-.06-.54-.11-1.05-.15-1.49a12.19,12.19,0,0,1-.09-2,8.312,8.312,0,0,1,.38,1.95c.08.61.18,1.33.31,2.12.07.4.14.81.24,1.23s.22.89.5,1.06.62-.15.66-.52a8.541,8.541,0,0,0,0-1.24c0-.76,0-1.48,0-2.14a10.42,10.42,0,0,1,.08-2,9,9,0,0,1,.2,2c0,.66.07,1.38.11,2.15A7.15,7.15,0,0,1,296.958,166.34Z" transform="translate(-161.041 -84.524)" fill="#934d3d"/>
      <path id="Trazado_2114" data-name="Trazado 2114" d="M225.92,204.88v.07l-.39-2.34c-.45-2.79-.8-5.32-1-7.15-.11-.85-.21-1.57-.29-2.17a3.459,3.459,0,0,0-.15-.79,2.9,2.9,0,0,0,0,.8c0,.52.08,1.27.17,2.19.16,1.85.47,4.39.92,7.18.16,1,.32,1.9.49,2.78l-6,10-3.4-2.66-13.4-10.5-1.11-.87s6.9-11,13.26-21.39c5.72-9.37,15.33-12.65,20-13.73l.77,6.18c.63,5.06,5.48,8.55,10.89,7.83h0c5.47-.72,9.44-5.46,8.89-10.58-.2-1.83-.39-3.69-.55-5.36l3.92-.32s8.06-2.52,19.24,4.11l3.42,39c-.83-1-1.76-2-2.76-3.17s-1.88-2.13-2.71-3.06l-.43-.53h0a48.673,48.673,0,0,0-3.59-3.82,51.2,51.2,0,0,0,3.58,4.35l-.36,10.62-44.74,11.61Z" transform="translate(-54.802 -84.524)" fill="#ff71d5"/>
      <path id="Trazado_2115" data-name="Trazado 2115" d="M284.44,209.25a11.321,11.321,0,0,1-1.28,3.47,32.1,32.1,0,0,1,.89-3.56c.46-1.85.74-3.38.87-3.54h0v.18A15.369,15.369,0,0,1,284.44,209.25Z" transform="translate(-139.522 -84.524)" fill="#934d3d"/>
      <path id="Trazado_2116" data-name="Trazado 2116" d="M205.34,201a51.2,51.2,0,0,1-3.58-4.35,48.667,48.667,0,0,1,3.59,3.82l.44.49c.83.93,1.75,2,2.71,3.06s1.93,2.2,2.76,3.17l.06.6c-.94-1-2-2.23-3.12-3.51S206.2,202,205.34,201Z" transform="translate(15.478 -84.524)" fill="#263238"/>
      <path id="Trazado_2117" data-name="Trazado 2117" d="M256.318,195.49c-.09-.92-.14-1.67-.17-2.19a2.9,2.9,0,0,1,0-.8,3.459,3.459,0,0,1,.15.79c.08.6.18,1.32.29,2.17.24,1.83.59,4.36,1,7.15q.19,1.2.39,2.34c.33,1.83.64,3.48.89,4.76.16.84.3,1.56.41,2.16a4,4,0,0,1,.11.8,3.1,3.1,0,0,1-.26-.77c-.14-.5-.33-1.22-.54-2.13-.28-1.17-.6-2.66-.91-4.32-.17-.88-.33-1.81-.49-2.78C256.788,199.88,256.508,197.34,256.318,195.49Z" transform="translate(-86.95 -84.524)" fill="#263238"/>
      <path id="Trazado_2118" data-name="Trazado 2118" d="M228.4,147.57c.25-5.31-1-14.65-2-21.18a4.61,4.61,0,0,0,.88-3.28,9.13,9.13,0,0,0-11.89-8.18l-1.61.31a13.94,13.94,0,0,0-3.06-.67c3.43-2.47,10.72-1.62,13.87.22a14.86,14.86,0,0,1,6.86,9.91c.52,2.69.42,5.76,2.18,7.78,1.31,1.5,3.38,2,4.61,3.61a7.17,7.17,0,0,1,.88,5.91,12.15,12.15,0,0,1-7.19,8.67c-1.48.57.84,5.07-.47,6-1.59,1.13-6.14,3-7.32,4.57a5.82,5.82,0,0,1-2.55,2c-.26-2.66-.43-4.58-.43-4.58S227.967,156.76,228.4,147.57Z" transform="translate(-21.559 -84.524)" fill="#263238"/>
      <path id="Trazado_2119" data-name="Trazado 2119" d="M227.8,162a8.9,8.9,0,0,0,5.15-1.8,8,8,0,0,0,2.45-3.33c.48.71,4.19,5.66,12.51,3.94l-.11-2.14s.17,1.92.43,4.58a10.506,10.506,0,0,0,.11,1.1c.16,1.67.35,3.53.55,5.36.55,5.12-3.42,9.86-8.89,10.58h0c-5.41.72-10.26-2.77-10.89-7.83l-.77-6.18-.46-3.7Z" transform="translate(-48.182 -84.524)" fill="#aa6550"/>
      <path id="Trazado_2120" data-name="Trazado 2120" d="M225.958,156.83a7.59,7.59,0,0,0,.21-5.27,22,22,0,0,0-2.78-4.58,7.45,7.45,0,0,1-1.59-5,18.231,18.231,0,0,1,1.22-3.38,11.81,11.81,0,0,0,0-6.94l.23-1.77.83,2.16a7,7,0,0,1,4.48-1.6,12.63,12.63,0,0,0,4.75-.91c1.43-.75,2.52-2.51,1.89-4,.41,1.19.83,2.37,1.25,3.56,2-1.59,5.33-.75,7-2.65h0c1,6.53,2.25,15.87,2,21.18-.43,9.19-7.22,11.11-7.22,11.11a23.18,23.18,0,0,1-12.27-1.91Zm2.31-19.15a1.16,1.16,0,0,0,1-1.29,1.11,1.11,0,0,0-1.31-.91,1.16,1.16,0,0,0-1,1.29,1.11,1.11,0,0,0,1.31.91Zm1-6a3.93,3.93,0,0,0-2,0,4.07,4.07,0,0,0-1.8.94c-.39.38-.48.72-.4.78s.34-.11.74-.32a7.809,7.809,0,0,1,1.65-.61,6.94,6.94,0,0,1,1.75-.23c.45,0,.74,0,.8-.07S229.778,131.83,229.268,131.68Zm.5,3a3.07,3.07,0,0,0-1.87-.38,3.2,3.2,0,0,0-1.77.77c-.37.34-.48.62-.41.68a8.559,8.559,0,0,1,2.24-.72c1.24-.12,2.2.41,2.33.24s-.11-.27-.53-.57Zm9.77-4c-1,.11-1.75.37-1.73.59s.84.32,1.81.22,1.75-.37,1.72-.59-.84-.34-1.81-.24Zm3.7,2.73c.06-.07-.1-.33-.51-.59a3.11,3.11,0,0,0-1.87-.38,3.27,3.27,0,0,0-1.78.77c-.36.34-.48.63-.4.69a8.535,8.535,0,0,1,2.24-.73c1.24-.12,2.18.39,2.35.22Zm-2.39,2.54a1.16,1.16,0,0,0,1-1.29,1.11,1.11,0,0,0-1.31-.91,1.16,1.16,0,0,0-1,1.29,1.11,1.11,0,0,0,1.3.89Zm-2.43,7.73a.79.79,0,0,0,.47-.52,1.85,1.85,0,0,0-.3-1.23c-.37-.75-.77-1.52-1.17-2.34a40.812,40.812,0,0,0-3.31-5.86,42.2,42.2,0,0,0,2.82,6.1c.42.81.83,1.58,1.21,2.32a1.59,1.59,0,0,1,.32.92c0,.22-.32.32-.64.39a8.07,8.07,0,0,0-2,.59,8.06,8.06,0,0,0,2.05-.23,2.209,2.209,0,0,0,.54-.16Zm-1.82,4.5c0-.11-.47-.06-1.09-.14a1.65,1.65,0,0,0-.53-1.32,1.73,1.73,0,0,0-2-.12h0c-.46-.66-.58-1.28-.71-1.25s-.21.35-.1.91a2.8,2.8,0,0,0,.34.83,1.76,1.76,0,0,0,.06,1.93,1.73,1.73,0,0,0,2.46.19,1.68,1.68,0,0,0,.39-.6h.29c.56-.15.91-.37.88-.45Z" transform="translate(-38.71 -84.524)" fill="#aa6550"/>
      <path id="Trazado_2121" data-name="Trazado 2121" d="M226.45,133.73a1.11,1.11,0,0,1,1.31.91,1.16,1.16,0,0,1-1,1.29,1.11,1.11,0,0,1-1.31-.91,1.16,1.16,0,0,1,1-1.29Z" transform="translate(-24.652 -84.524)" fill="#263238"/>
      <path id="Trazado_2122" data-name="Trazado 2122" d="M226.325,133.15c-1.25.12-2.09.86-2.24.73s0-.35.4-.69a3.27,3.27,0,0,1,1.78-.77,3.11,3.11,0,0,1,1.87.38c.41.26.57.52.51.59A7.8,7.8,0,0,0,226.325,133.15Z" transform="translate(-24.127 -84.524)" fill="#263238"/>
      <path id="Trazado_2123" data-name="Trazado 2123" d="M238.99,135.48a1.11,1.11,0,0,1,1.31.91,1.16,1.16,0,0,1-1,1.29,1.11,1.11,0,0,1-1.31-.91,1.16,1.16,0,0,1,1-1.29Z" transform="translate(-49.732 -84.524)" fill="#263238"/>
      <path id="Trazado_2124" data-name="Trazado 2124" d="M239.279,135.05c-1.24.12-2.08.86-2.24.72s0-.34.41-.68a3.2,3.2,0,0,1,1.77-.77,3.07,3.07,0,0,1,1.87.38c.42.25.58.51.52.59A8.239,8.239,0,0,0,239.279,135.05Z" transform="translate(-50.041 -84.524)" fill="#263238"/>
      <path id="Trazado_2125" data-name="Trazado 2125" d="M230.069,144a8.07,8.07,0,0,1,2-.59c.32-.07.61-.17.64-.39a1.59,1.59,0,0,0-.32-.92c-.38-.74-.79-1.51-1.21-2.32a42.2,42.2,0,0,1-2.82-6.1,40.809,40.809,0,0,1,3.31,5.86c.4.82.8,1.59,1.17,2.34a1.85,1.85,0,0,1,.3,1.23.79.79,0,0,1-.47.52,2.211,2.211,0,0,1-.53.14A8.06,8.06,0,0,1,230.069,144Z" transform="translate(-32.951 -84.524)" fill="#263238"/>
      <path id="Trazado_2126" data-name="Trazado 2126" d="M241.23,158.68l.11,2.14c-8.32,1.72-12-3.23-12.51-3.94h0a23.18,23.18,0,0,0,12.4,1.8Z" transform="translate(-41.612 -84.524)" fill="#934d3d"/>
      <path id="Trazado_2127" data-name="Trazado 2127" d="M241.48,132.25a6.94,6.94,0,0,0-1.75.23,7.811,7.811,0,0,0-1.65.61c-.4.21-.64.39-.74.32s0-.4.4-.78a4.07,4.07,0,0,1,1.8-.94,3.93,3.93,0,0,1,2,0c.52.15.77.41.72.5S241.93,132.24,241.48,132.25Z" transform="translate(-51.012 -84.524)" fill="#263238"/>
      <path id="Trazado_2128" data-name="Trazado 2128" d="M227.75,131.47c-1,.1-1.78,0-1.81-.22s.75-.48,1.73-.59,1.78,0,1.8.22S228.73,131.37,227.75,131.47Z" transform="translate(-26.853 -84.524)" fill="#263238"/>
      <path id="Trazado_2129" data-name="Trazado 2129" d="M233.009,148a3.38,3.38,0,0,0,2,.54,1.68,1.68,0,0,1-.39.6,1.73,1.73,0,0,1-2.46-.19,1.76,1.76,0,0,1-.06-1.93,3.06,3.06,0,0,0,.91.98Z" transform="translate(-38.292 -84.524)" fill="#934d3d"/>
      <path id="Trazado_2130" data-name="Trazado 2130" d="M234.284,146.53Z" transform="translate(-40.007 -84.524)" fill="#934d3d"/>
      <path id="Trazado_2131" data-name="Trazado 2131" d="M231.747,146.58a1.73,1.73,0,0,1,2,.12,1.65,1.65,0,0,1,.53,1.32,3.76,3.76,0,0,1-1.63-.57,3.47,3.47,0,0,1-.9-.87Z" transform="translate(-37.469 -84.524)" fill="#934d3d"/>
      <path id="Trazado_2132" data-name="Trazado 2132" d="M232.016,148a3.06,3.06,0,0,1-.93-1,2.8,2.8,0,0,1-.34-.83c-.11-.56,0-.91.1-.91s.25.59.71,1.25h0a3.47,3.47,0,0,0,.88.87,3.76,3.76,0,0,0,1.63.57c.62.08,1.08,0,1.09.14s-.29.3-.89.38h-.29a3.38,3.38,0,0,1-1.96-.47Z" transform="translate(-37.298 -84.524)" fill="#263238"/>
      <path id="Trazado_2133" data-name="Trazado 2133" d="M244.05,114.93a9.13,9.13,0,0,1,11.89,8.18,4.61,4.61,0,0,1-.88,3.28h0c-1.7,1.9-5.05,1.06-7,2.65-.42-1.19-.84-2.37-1.25-3.56.63,1.49-.46,3.25-1.89,4a12.63,12.63,0,0,1-4.75.91,7,7,0,0,0-4.48,1.6l-.83-2.16-.23,1.77a39.3,39.3,0,0,0-1.82-5.22l-10,2.83a15.11,15.11,0,0,1,3.17-9.19l.09-.12a15.41,15.41,0,0,1,13.39-5.38,13.94,13.94,0,0,1,3.06.67Z" transform="translate(-50.222 -84.524)" fill="#263238"/>
      <path id="Trazado_2134" data-name="Trazado 2134" d="M261.3,126.43a39.3,39.3,0,0,1,1.82,5.22,11.81,11.81,0,0,1,0,6.94,18.233,18.233,0,0,0-1.22,3.38,7.45,7.45,0,0,0,1.59,5,22,22,0,0,1,2.78,4.58,7.59,7.59,0,0,1-.21,5.27h0a8,8,0,0,1-2.45,3.33,8.9,8.9,0,0,1-5.15,1.8l.08.58a15.17,15.17,0,0,1-14.3-4.23c-3.87-4.2-4.89-11.4-1.67-16.06,1.28-1.85,3.12-3.28,4-5.41.73-1.86.57-4,.8-6a14.43,14.43,0,0,1,4.59-9,13.11,13.11,0,0,1,2.6-1.77,15.11,15.11,0,0,0-3.17,9.19Z" transform="translate(-78.747 -84.524)" fill="#263238"/>
      <path id="Trazado_2135" data-name="Trazado 2135" d="M389.871,195.8a11,11,0,0,1,10,4.47,16.44,16.44,0,0,1,2.95,10.87,20.23,20.23,0,0,1-8.35,15.32,17.71,17.71,0,0,1-7.16,2.88h-.06l-5.88-31.89h.06a42.62,42.62,0,0,1,8-1.54Z" transform="translate(-355.694 -84.524)" fill="#ff71d5"/>
      <rect id="Rectángulo_902" data-name="Rectángulo 902" width="5.01" height="49.16" transform="matrix(-0.217, -0.976, 0.976, -0.217, 51.093, 85.021)" fill="#ff71d5"/>
      <path id="Trazado_2136" data-name="Trazado 2136" d="M204.59,175.76a2.63,2.63,0,0,0,.95.4,9.12,9.12,0,0,0,2.81.36,16,16,0,0,0,4.14-.65,46,46,0,0,0,4.79-1.78,35.89,35.89,0,0,1,4.76-1.67,11.25,11.25,0,0,1,4-.35,11.51,11.51,0,0,1,3.56,1.18,2.56,2.56,0,0,0-.84-.61,7.83,7.83,0,0,0-2.67-.93,11,11,0,0,0-4.2.24,33.1,33.1,0,0,0-4.84,1.66c-1.67.69-3.25,1.35-4.73,1.8a17.14,17.14,0,0,1-4,.75,14.16,14.16,0,0,1-3.73-.4Z" transform="translate(-5.632 -84.524)" fill="#fafafa"/>
      <path id="Trazado_2137" data-name="Trazado 2137" d="M245.92,181.84a3.27,3.27,0,0,0,.8.54,9.369,9.369,0,0,0,2.46.94,11.35,11.35,0,0,0,8.47-1.35,26.849,26.849,0,0,0,3.63-3.09,8.9,8.9,0,0,1,3.17-2,4.81,4.81,0,0,1,2.49-.21c.59.13.89.3.91.26a1.73,1.73,0,0,0-.86-.45,4.59,4.59,0,0,0-2.65,0,8.79,8.79,0,0,0-3.37,2,28.67,28.67,0,0,1-3.6,3,11.46,11.46,0,0,1-8.11,1.43,19.14,19.14,0,0,1-3.34-1.07Z" transform="translate(-85.212 -84.524)" fill="#fafafa"/>
      <path id="Trazado_2138" data-name="Trazado 2138" d="M258.15,194.82a17.841,17.841,0,0,0,2.63,1.58c1.66.91,3.94,2.17,6.54,3.46a16.8,16.8,0,0,0,3.87,1.4,9.58,9.58,0,0,0,3.38.12,6.631,6.631,0,0,0,2.16-.7,2.06,2.06,0,0,0,.68-.5,10.23,10.23,0,0,1-2.85.82,10,10,0,0,1-3.23-.23,18.259,18.259,0,0,1-3.75-1.4l-6.59-3.32A18.73,18.73,0,0,0,258.15,194.82Z" transform="translate(-107.002 -84.524)" fill="#fafafa"/>
      <path id="Trazado_2139" data-name="Trazado 2139" d="M203.61,200.61a17,17,0,0,1,1.63-1.69,12.6,12.6,0,0,1,5.72-2.67,25.7,25.7,0,0,1,9.44.21c3.54.54,7.47,1.49,11.7,1.16a15.17,15.17,0,0,0,5.9-1.65,26.251,26.251,0,0,0,4.68-3.26c1.38-1.16,2.65-2.31,3.88-3.33a25.8,25.8,0,0,1,3.61-2.54,13.4,13.4,0,0,1,6-1.93,18,18,0,0,1,2.34.17,6.89,6.89,0,0,0-2.35-.37,13.22,13.22,0,0,0-6.2,1.81,24.913,24.913,0,0,0-3.7,2.53c-1.26,1-2.53,2.15-3.92,3.29a25.631,25.631,0,0,1-4.6,3.17,14.77,14.77,0,0,1-5.71,1.6c-4.12.32-8-.6-11.58-1.13a25.62,25.62,0,0,0-9.59-.09,12.51,12.51,0,0,0-5.79,2.87,6.75,6.75,0,0,0-1.46,1.85Z" transform="translate(-33.562 -84.524)" fill="#fafafa"/>
      <path id="Trazado_2140" data-name="Trazado 2140" d="M208.509,215s.48-.51,1.37-1.38a16.24,16.24,0,0,1,4.24-3,16.45,16.45,0,0,1,7.53-1.57,91.564,91.564,0,0,1,9.53,1.08,49,49,0,0,0,9.66.29,30.06,30.06,0,0,0,7.73-1.59,22.849,22.849,0,0,0,4.78-2.33c.52-.35.92-.63,1.18-.84s.38-.32.37-.34-.58.38-1.66,1a25.6,25.6,0,0,1-4.79,2.15,31.3,31.3,0,0,1-7.65,1.47,50.578,50.578,0,0,1-9.56-.34,84.329,84.329,0,0,0-9.59-1,16.49,16.49,0,0,0-7.69,1.72,15.521,15.521,0,0,0-4.23,3.24c-.43.46-.73.84-.94,1.1a1.82,1.82,0,0,0-.28.34Z" transform="translate(-34.852 -84.524)" fill="#fafafa"/>
      <path id="Trazado_2141" data-name="Trazado 2141" d="M393.52,141.58a33.339,33.339,0,0,0,5.79-.85,32.292,32.292,0,0,0,5.69-1.36,65.878,65.878,0,0,0-11.48,2.21Z" transform="translate(-369.963 -84.524)" fill="#263238"/>
      <path id="Trazado_2142" data-name="Trazado 2142" d="M393.08,144.17A65.881,65.881,0,0,0,404.56,142a65.879,65.879,0,0,0-11.48,2.21Z" transform="translate(-369.083 -84.524)" fill="#263238"/>
      <path id="Trazado_2143" data-name="Trazado 2143" d="M392.75,146.83a66.231,66.231,0,0,0,11.49-2.21,33.209,33.209,0,0,0-5.79.85,33.669,33.669,0,0,0-5.7,1.36Z" transform="translate(-368.432 -84.524)" fill="#263238"/>
      <path id="Trazado_2144" data-name="Trazado 2144" d="M306.69,181.62c0,.14,19.73-4.19,44-9.67s43.91-10,43.87-10.18-19.72,4.19-44,9.67S306.66,181.48,306.69,181.62Z" transform="translate(-272.692 -84.524)" fill="#263238"/>
      <path id="Trazado_2145" data-name="Trazado 2145" d="M326.219,179.48c0,.14,9.45-1.93,21-4.61s21-5,20.91-5.12-9.44,1.92-21,4.61S326.189,179.34,326.219,179.48Z" transform="translate(-265.792 -84.524)" fill="#263238"/>
      <path id="Trazado_2146" data-name="Trazado 2146" d="M317.146,190.87,338,186.24a5.19,5.19,0,0,0,4-6.21h0a5.21,5.21,0,0,0-6.21-4l-20.88,4.67a5.21,5.21,0,0,0-4,6.21h0a5.21,5.21,0,0,0,6.24,3.96Z" transform="translate(-224.349 -84.524)" fill="#ff71d5"/>
      <path id="Trazado_2147" data-name="Trazado 2147" d="M354.941,199.39s-.26,0-.76.05a5.34,5.34,0,0,1-2.12-.34,5.06,5.06,0,0,1,.93-9.73l6.26-1.37,14.34-3.16a4.964,4.964,0,0,1,2.16,9.69l-1.59.36-3,.68-5.44,1.24-7.88,1.84-2.13.52a4.44,4.44,0,0,0-.74.22,3.49,3.49,0,0,0,.76-.12l2.16-.43,7.91-1.67,5.42-1.17,3-.66,1.59-.34a5.79,5.79,0,0,0,1.62-.65,5.46,5.46,0,0,0-4-10l-14.32,3.2-6.25,1.42a5.58,5.58,0,0,0-2.67,1.3,5.35,5.35,0,0,0,1.76,9,5.24,5.24,0,0,0,2.2.26,3.281,3.281,0,0,0,.79-.14Z" transform="translate(-299.923 -84.524)" fill="#ff71d5"/>
      <path id="Trazado_2148" data-name="Trazado 2148" d="M311.42,215c0,.14,14.35-2.9,32-6.79s31.88-7.17,31.85-7.31-14.34,2.9-32,6.8S311.39,214.87,311.42,215Z" transform="translate(-258.132 -84.524)" fill="#263238"/>
      <path id="Trazado_2149" data-name="Trazado 2149" d="M310.9,219.7c0,.14,14.34-2.9,32-6.79s31.89-7.17,31.86-7.31-14.34,2.9-32,6.8S310.87,219.56,310.9,219.7Z" transform="translate(-257.102 -84.524)" fill="#263238"/>
      <path id="Trazado_2150" data-name="Trazado 2150" d="M329.68,220.72c0,.14,6.24-1.11,13.86-2.8s13.78-3.16,13.75-3.3-6.24,1.11-13.86,2.79S329.65,220.58,329.68,220.72Z" transform="translate(-258.412 -84.524)" fill="#263238"/>
      <path id="Trazado_2151" data-name="Trazado 2151" d="M414.25,209.73l-.92.23-2.69.68-10.43,2.68-39.18,10.09L224.27,258.78l.3.18c-6.9-37.47-14.48-78.67-22.44-121.9v-.22l-.21.3,202.45-40.3-.23-.17c3.09,34.75,5.6,63,7.34,82.56.88,9.79,1.57,17.41,2,22.59.24,2.58.42,4.56.54,5.89s.2,2,.2,2,0-.66-.15-2-.27-3.3-.49-5.87c-.44-5.17-1.09-12.78-1.93-22.55-1.69-19.6-4.14-47.89-7.15-82.7v-.22h-.22L201.81,136.63l-.25.05v.47c8,43.23,15.57,84.43,22.48,121.9v.26l.25-.07,136.95-35.62,39.09-10.21,10.37-2.72,2.66-.71Z" transform="translate(-187.253 -84.524)" fill="#263238"/>
    </g>
    <g id="freepik--Tablet--inject-390" transform="translate(227.602 238.73)">
      <path id="Trazado_2152" data-name="Trazado 2152" d="M187.517,299.75l68.61,46.74c5.64,5.34,5.52,17.81-4.17,21.41l-143.6,52.2a9.85,9.85,0,0,1-10.64-2.59l-55.23-60.12c-4.85-5.28-4.65-13.95-.86-18.06l136.83-41.1A9.87,9.87,0,0,1,187.517,299.75Z" transform="translate(-38.812 -291.93)" fill="#263238"/>
      <path id="Trazado_2153" data-name="Trazado 2153" d="M187.94,294l67,51a9.85,9.85,0,0,1-2.6,17.1l-143.6,52.2a9.83,9.83,0,0,1-10.62-2.6L42.89,351.58a9.85,9.85,0,0,1,4.19-16L178.9,292.44A9.9,9.9,0,0,1,187.94,294Z" transform="translate(-39.235 -291.93)" fill="#f5f5f5"/>
      <path id="Trazado_2154" data-name="Trazado 2154" d="M187.855,294a7.9,7.9,0,0,0-1.11-.76,9.67,9.67,0,0,0-3.69-1.24,10,10,0,0,0-2.91.08,29.221,29.221,0,0,0-3.36,1l-8.31,2.69L115.535,313,79,324.92l-20.34,6.64L48.054,335a16.709,16.709,0,0,0-2.68,1.05,8.35,8.35,0,0,0-1.24.78c-.19.15-.39.29-.58.45l-.53.51a10.13,10.13,0,0,0-2.2,11,7.721,7.721,0,0,0,.69,1.34,7.069,7.069,0,0,0,.88,1.23c.64.79,1.33,1.48,2,2.22l8.16,8.89,16.83,18.33,17.43,19,8.92,9.71,2.2,2.49a10.289,10.289,0,0,0,2.71,2.06,10.11,10.11,0,0,0,6.68,1,23.922,23.922,0,0,0,3.23-1.05l3.14-1.14,6.26-2.28,12.4-4.59,24.23-8.82,45.8-16.66,41.44-15.09,4.83-1.76,2.4-.87a23.48,23.48,0,0,0,2.35-.94,9.982,9.982,0,0,0,2.24-16.47c-2.41-2-4.83-3.7-7.16-5.5l-44.32-33.64-12.11-9.13-3.14-2.36c-.71-.53-1.08-.79-1.08-.79l1,.83,3.22,2.41,12,9.2,44.19,33.77c2.31,1.8,4.77,3.57,7.12,5.5a9.619,9.619,0,0,1,2.59,3.71,9.86,9.86,0,0,1,.55,4.58,9.63,9.63,0,0,1-5.3,7.52,24.678,24.678,0,0,1-2.31.92l-2.39.86-4.82,1.73-41.46,15.05L156.4,396.68l-24.23,8.81-12.4,4.5-6.26,2.28-3.14,1.14a24.109,24.109,0,0,1-3.15,1,9.62,9.62,0,0,1-6.33-.9c-2-1-3.29-2.8-4.83-4.4q-4.48-4.89-8.92-9.71l-17.44-19-16.83-18.32L44.7,353.2a16.111,16.111,0,0,1-3.47-4.65,9.66,9.66,0,0,1,2.08-10.5l.51-.48c.18-.15.37-.29.56-.43a7.193,7.193,0,0,1,1.17-.74,16.1,16.1,0,0,1,2.61-1L58.8,332l20.34-6.67,36.51-12,52.86-17.39,8.29-2.74a29.609,29.609,0,0,1,3.33-1,9.77,9.77,0,0,1,2.87-.11,10,10,0,0,1,3.71,1.19,7.788,7.788,0,0,1,.85.52Z" transform="translate(-39.15 -291.93)" fill="#263238"/>
      <path id="Trazado_2155" data-name="Trazado 2155" d="M221.59,375.54c0,1.61,1.85,2.91,4.12,2.91s4.12-1.3,4.12-2.91-1.85-2.91-4.12-2.91S221.59,373.93,221.59,375.54Z" transform="translate(-191.515 -291.93)" fill="#e0e0e0"/>
      <path id="Trazado_2156" data-name="Trazado 2156" d="M146.839,383.92c2.67-2,6.61-3.43,9.86-5.17a14.91,14.91,0,0,0,4-2.95,47.35,47.35,0,0,0,14.28,7.83l-29.8,11c-.22-.29-.42-.57-.6-.86C142.5,390.4,143.159,386.66,146.839,383.92Z" transform="translate(-58.485 -291.93)" fill="#f5f5f5"/>
      <path id="Trazado_2157" data-name="Trazado 2157" d="M116.424,333.32c-1.62,1.73-11.07,9.28-15.16,12.36s-10.7,9.46-11.15,14.57c-.51,5.66,7,9.86,3.75,14.54-1,1.49-7.67,6.42-8.41,8.59s-.7,4.91,1.06,6.38l73.48-27.93Z" transform="translate(14.911 -291.93)" fill="#e0e0e0"/>
      <path id="Trazado_2158" data-name="Trazado 2158" d="M193.78,364.85a11.471,11.471,0,0,0,.37,1.89l-4,1.42c-13.48,4.76-24.55,8.68-24.46,8.74s11.29-3.76,24.77-8.52l3.76-1.38.08.29a12.41,12.41,0,0,0,.89,2l-2.6.93c-13.53,4.77-24.64,8.69-24.56,8.75s11.33-3.76,24.87-8.52l2.44-.88a16.9,16.9,0,0,0,1.43,2.21l-2.61.92c-5.84,2.06-10.56,3.78-10.47,3.84s4.94-1.56,10.79-3.62l2.5-.89a25.3,25.3,0,0,0,3.64,3.7,14.91,14.91,0,0,1-4,2.95c-3.25,1.74-7.19,3.16-9.86,5.17-3.68,2.74-3.74,7.34-1.63,10.74l-19,7L152.6,387.1a15.349,15.349,0,0,0,4.86-2.44c3.05-2.45,3.44-5.75,1.4-8.66a13.16,13.16,0,0,0-6.75-4.67,18.74,18.74,0,0,0-10.37-.47l-.3.12c-1.12.29-2.23.6-3.31.94l-30.85-32.23L242.2,294.76l8.8,6.92-1.4-1.06c-9.5.6-19.16,1.35-26.69,4.19a22.44,22.44,0,0,0-8.1,4.95c-6.18,2.4-8.93,7.43-6.37,12.31,1.64,3.12,5.18,6,8,8.92s5.11,6.32,3.62,9.14a4.659,4.659,0,0,1-.3.47c-.26-.32-.64-.82-.81-1a5.44,5.44,0,0,0-2.34-1.75,2.72,2.72,0,0,1-.47-.28,15.459,15.459,0,0,1-1.35-3.31c-.31-.94-1.51-1.25-1.53-.85,0,.76.77,3.81.5,4.15s-1.2-1.15-1.2-1.15c-1.81-3.2-1.85-3.7-2.85-3.66s1.5,4.82,1.5,4.82a1.46,1.46,0,0,0-1.3-.65c-.93,0-.78.71-.78.71-.17-.35-1-.26-1-.26-1.81.49,2.86,4.72,2.86,4.72l2.29,2.31c-1.16.37-2.4.7-3.64,1-4.6,1.06-9.64,1.8-13.52,3.49a14.239,14.239,0,0,0-3.88,2.4l-8.71,3.23c-2.07.75-2.4,2.36-.74,3.58a8.12,8.12,0,0,0,6.68.89,9.78,9.78,0,0,0,3.13,4.9m-3.9-16.48c-.09-.06-6.88,2.44-15.3,5.6s-15.49,5.8-15.41,5.86,7.17-2.47,15.71-5.63,15.09-5.78,15.01-5.84ZM153.11,367c.14.9,1.12,1.65,2.2,2.08a8.831,8.831,0,0,0,3.19.58,8.1,8.1,0,0,0,2-.24,3.084,3.084,0,0,0,.59-.2l.61-.18,1.68-.56,6.1-2.11,4.17-1.45,2.31-.82,1.2-.43a4.221,4.221,0,0,0,1.1-.57,1.76,1.76,0,0,0,.83-1.66,2.77,2.77,0,0,0-1.45-1.77,7.83,7.83,0,0,0-3.23-1,8.21,8.21,0,0,0-3.51.36l-10.81,3.87-4.77,1.71a3.85,3.85,0,0,0-1.78,1.06,1.56,1.56,0,0,0-.43,1.33Zm16.59-14.58c17.56-6.55,31.33-11.87,31.25-11.93s-14,5.16-31.55,11.7c-18.1,6.58-33.11,12-33,12.06s15.19-5.25,33.3-11.84Zm12-9.62-2.82-2.15L143.8,353.52l2.7,2.16Zm-63-1a34.38,34.38,0,0,0-4.27,1.58,38.819,38.819,0,0,0,4.52-1.35,33.407,33.407,0,0,0,4.24-1.58,36.511,36.511,0,0,0-4.55,1.35Zm3.29-2.53a40.241,40.241,0,0,0-4.48,1.36,32.72,32.72,0,0,0-4.26,1.58,40.329,40.329,0,0,0,4.51-1.36,31.82,31.82,0,0,0,4.17-1.58Zm-2.13,3.75a35.173,35.173,0,0,0-4.27,1.58,39.266,39.266,0,0,0,4.53-1.35,34,34,0,0,0,4.25-1.58A36.764,36.764,0,0,0,119.8,343Zm18.93-2.76c3.76,1.59,8.92,1.37,12.76.25s6.67-3,9.75-4.62a24.77,24.77,0,0,1,11-3.27c4.43-.15,9.12,1.12,13.53.9,6.49-.32,12-3.58,11.94-7.56-.12-4.73-7.66-9.43-18.92-9.73l-45,15.12c-.24,3.18.24,6.92,4.88,8.91Z" transform="translate(-98.375 -291.93)" fill="#fff"/>
      <path id="Trazado_2159" data-name="Trazado 2159" d="M184.63,369.55a8.57,8.57,0,0,1-3-.6c-1-.41-1.9-1.12-2-2s.57-1.74,2.1-2.22l4.8-1.68,10.84-3.86a7.31,7.31,0,0,1,3.17-.32,7.22,7.22,0,0,1,2.94.9,2.54,2.54,0,0,1,1.31,1.61,1.59,1.59,0,0,1-.73,1.52,3.931,3.931,0,0,1-1,.52l-1.2.44-2.29.82-4.13,1.49-6,2.17-1.63.6a3.323,3.323,0,0,0-.55.23s-.21.06-.63.15A8.751,8.751,0,0,1,184.63,369.55Z" transform="translate(-124.515 -291.93)" fill="#fff"/>
      <path id="Trazado_2160" data-name="Trazado 2160" d="M224.518,326c.06,4-5.45,7.24-11.94,7.56-4.41.22-9.1-1-13.53-.9a24.771,24.771,0,0,0-11,3.27c-3.08,1.64-5.93,3.5-9.75,4.62s-9,1.34-12.76-.25c-4.64-2-5.12-5.73-4.95-8.91l45-15.12C216.858,316.53,224.4,321.23,224.518,326Z" transform="translate(-125.173 -291.93)" fill="#ff71d5"/>
      <path id="Trazado_2161" data-name="Trazado 2161" d="M165.48,363.88a9.78,9.78,0,0,1-3.13-4.9h.11l6.34-2.33" transform="translate(-71.245 -291.93)" fill="#f5f5f5"/>
      <path id="Trazado_2162" data-name="Trazado 2162" d="M137.127,320c1.66,3.25,5.41,6.22,8.57,9.26s5.9,6.48,4.88,9.52c-.54,1.54-2,2.83-4,3.91l-2.13-1.81-.24-.32a4.669,4.669,0,0,0,.3-.47c1.49-2.82-.75-6.2-3.62-9.14s-6.39-5.8-8-8.92c-2.56-4.88.19-9.91,6.37-12.31C136.367,312.7,135.237,316.29,137.127,320Z" transform="translate(-22.822 -291.93)" fill="#f5f5f5"/>
      <path id="Trazado_2163" data-name="Trazado 2163" d="M159.36,347.9a34.242,34.242,0,0,0-3.23,1.45,8.11,8.11,0,0,0-6-.42l-6.37,2.35a14.241,14.241,0,0,1,3.88-2.4c3.88-1.69,8.92-2.43,13.52-3.49,1.24-.29,2.48-.62,3.64-1l1.26,1.28C163.82,346.39,161.49,347.08,159.36,347.9Z" transform="translate(-49.915 -291.93)" fill="#f5f5f5"/>
      <path id="Trazado_2164" data-name="Trazado 2164" d="M61.41,342.75l.59.17-.57-.15Z" transform="translate(136.495 -291.93)" fill="#e0e0e0"/>
      <path id="Trazado_2165" data-name="Trazado 2165" d="M103.621,355c.13-2.37.7-10.2.8-13.56.09-5.36,5.47-8.69,8.55-9.93l-2.3-2.08a16.83,16.83,0,0,1-12.43.54c-5.23-1.66-8.26-5.48-8-7.91.13-1.08.82-2.26.49-3.4s-1.37-1.89-2-3.16l-.67-1.23c-1.13-2.56,1.12-5.44,1.12-5.44,1-2.87,4.11-4.58,7-5.06,1.32-1.7,6.18-2.7,9.25-2.32a19.19,19.19,0,0,1,8.82,3.82c1.65,1.18,4.13,3.71,6.43,4.07,1.59.25,3.46.38,4.89,1.36s2.77,1.74,3.22,2.86c.65,1.61-.39,3.32-1.47,5.06-.5.8,3.93,2.38-.07,5.24-.94.68-.26,1.35-.56,1.94a1.86,1.86,0,0,1-.69.79l.85.79,2.51-1.09s1.94-1.25,5.84-1.1a7.29,7.29,0,0,1,1.84-.42,8.657,8.657,0,0,1-1.12.39,60.638,60.638,0,0,1,12.32.95l-34.5-26.27-1.4-1.06c-9.5.6-19.17,1.35-26.7,4.19a22.391,22.391,0,0,0-8.09,4.95c-2.89,2.94-4,6.53-2.13,10.28,1.65,3.25,5.41,6.22,8.56,9.26s5.91,6.48,4.88,9.52c-.53,1.54-1,1.86-2.9,2.94l16.11,15.55h0l2.46,2.05.39-2.05-1.28-.48" transform="translate(37.164 -291.93)" fill="#e0e0e0"/>
      <path id="Trazado_2166" data-name="Trazado 2166" d="M108.94,321.8l-.01.01h0Z" transform="translate(42.035 -291.93)" fill="#934d3d"/>
      <path id="Trazado_2167" data-name="Trazado 2167" d="M201.729,371.08l.3-.12a18.74,18.74,0,0,1,10.37.47,13.16,13.16,0,0,1,6.75,4.67c2,2.91,1.65,6.21-1.4,8.66a15.35,15.35,0,0,1-4.86,2.44l-.22.07-14.46-15.18.21-.07C199.5,371.68,200.609,371.37,201.729,371.08Z" transform="translate(-158.704 -291.93)" fill="#ff71d5"/>
      <path id="Trazado_2168" data-name="Trazado 2168" d="M236.35,342.21a32.721,32.721,0,0,1,4.26-1.58,40.249,40.249,0,0,1,4.48-1.36,31.823,31.823,0,0,1-4.23,1.58,40.329,40.329,0,0,1-4.51,1.36Z" transform="translate(-221.535 -291.93)" fill="#263238"/>
      <path id="Trazado_2169" data-name="Trazado 2169" d="M239.67,342a38.813,38.813,0,0,1-4.52,1.35,34.376,34.376,0,0,1,4.27-1.58,36.518,36.518,0,0,1,4.49-1.35A33.411,33.411,0,0,1,239.67,342Z" transform="translate(-219.155 -291.93)" fill="#263238"/>
      <path id="Trazado_2170" data-name="Trazado 2170" d="M238.5,343.25a39.27,39.27,0,0,1-4.53,1.35,35.184,35.184,0,0,1,4.27-1.58,36.772,36.772,0,0,1,4.51-1.35,34,34,0,0,1-4.25,1.58Z" transform="translate(-216.815 -291.93)" fill="#263238"/>
      <path id="Trazado_2171" data-name="Trazado 2171" d="M190.36,352.18c17.56-6.54,31.47-11.76,31.55-11.7s-13.69,5.38-31.25,11.93c-18.11,6.58-33.25,11.89-33.33,11.83S172.24,358.76,190.36,352.18Z" transform="translate(-119.335 -291.93)" fill="#263238"/>
      <path id="Trazado_2172" data-name="Trazado 2172" d="M169.57,358.86c-.08-.06,6.87-2.69,15.41-5.86s15.21-5.66,15.3-5.6-6.58,2.66-15,5.83S169.65,358.92,169.57,358.86Z" transform="translate(-109.945 -291.93)" fill="#263238"/>
      <path id="Trazado_2173" data-name="Trazado 2173" d="M174.65,349.35a4.131,4.131,0,0,1,.74.44c1.72,1.22,1.48,2.82-.54,3.57l-8.86,3.26-6.34,2.33h-.11a8.12,8.12,0,0,1-6.68-.89c-1.66-1.22-1.33-2.83.74-3.58l8.74-3.2,6.37-2.35A8.11,8.11,0,0,1,174.65,349.35Z" transform="translate(-68.435 -291.93)" fill="#ff71d5"/>
      <path id="Trazado_2174" data-name="Trazado 2174" d="M181.393,364.59l4.77-1.71L197,359a8.21,8.21,0,0,1,3.51-.36,7.83,7.83,0,0,1,3.23,1,2.77,2.77,0,0,1,1.45,1.77,1.76,1.76,0,0,1-.83,1.66,4.219,4.219,0,0,1-1.1.57l-1.2.43-2.31.82-4.17,1.45-6.1,2.11-1.68.56-.61.18a3.32,3.32,0,0,1,.55-.23l1.63-.6,6-2.17,4.13-1.49,2.29-.82,1.2-.44a3.931,3.931,0,0,0,1-.52,1.59,1.59,0,0,0,.73-1.52,2.54,2.54,0,0,0-1.31-1.61,7.221,7.221,0,0,0-2.94-.9,7.31,7.31,0,0,0-3.17.32l-10.84,3.86-4.8,1.68c-1.53.48-2.25,1.39-2.1,2.22a3.208,3.208,0,0,0,2,2,8.57,8.57,0,0,0,3,.6,8.751,8.751,0,0,0,2-.19c.42-.09.62-.17.63-.15a3.082,3.082,0,0,1-.59.2,8.1,8.1,0,0,1-2,.24,8.831,8.831,0,0,1-3.19-.58c-1.08-.43-2.06-1.18-2.2-2.08a1.56,1.56,0,0,1,.42-1.34,3.85,3.85,0,0,1,1.76-1.08Z" transform="translate(-124.489 -291.93)" fill="#ff71d5"/>
      <path id="Trazado_2175" data-name="Trazado 2175" d="M192.56,359.71c.08.05-8.43,3.22-19.81,7.33l-3.73,1.34c-13.48,4.76-24.69,8.58-24.77,8.52s11-4,24.46-8.74l4-1.42C183.96,362.69,192.48,359.65,192.56,359.71Z" transform="translate(-76.905 -291.93)" fill="#263238"/>
      <path id="Trazado_2176" data-name="Trazado 2176" d="M190.25,361.83c.09.06-9.11,3.48-21.18,7.81l-2.44.88c-13.54,4.76-24.79,8.58-24.87,8.52s11-4,24.56-8.75l2.6-.93C180.93,365.07,190.17,361.78,190.25,361.83Z" transform="translate(-72.105 -291.93)" fill="#263238"/>
      <path id="Trazado_2177" data-name="Trazado 2177" d="M174.59,369.16c.07,0-3.24,1.3-7.8,2.94l-2.5.89c-5.85,2.06-10.71,3.68-10.79,3.62s4.63-1.78,10.47-3.84l2.61-.92C171.09,370.25,174.52,369.11,174.59,369.16Z" transform="translate(-68.185 -291.93)" fill="#263238"/>
      <path id="Trazado_2178" data-name="Trazado 2178" d="M176.62,353.51l35.08-12.87,2.82,2.15-35.2,12.88Z" transform="translate(-131.235 -291.93)" fill="#ff71d5"/>
      <path id="Trazado_2179" data-name="Trazado 2179" d="M98.4,354.9c-.81-.61-1.83-1.39-3-2.26h0l3.33,2.27-.09.25Z" transform="translate(65.775 -291.93)" fill="#e0e0e0"/>
      <path id="Trazado_2180" data-name="Trazado 2180" d="M116.539,341.71l16.6,15.77a19.3,19.3,0,0,0,.92,1.95,14.259,14.259,0,0,0,.91,2,4,4,0,0,0-.56-2,7.89,7.89,0,0,0-1.16-1.86l.38-2.21,11.68,2.25a2.66,2.66,0,0,0-.59.13,4.111,4.111,0,0,0,1.12,0l3.09.6-2.7,7.13c-.7,1.75-2.85,3.05-5.84,3.53-5,.81-10.94-.87-13.65-3.88l-17.56-20.16-1.21-1.39-2.19-2.51s-4.51-4.58-2.77-5.12c0,0,.79-.09,1,.28,0,0-.14-.75.75-.76a1.41,1.41,0,0,1,1.26.7s-2.56-5.15-1.45-5.2c1-.05,1,.49,2.76,3.95,0,0,.89,1.61,1.15,1.24s-.51-3.67-.48-4.48c0-.44,1.18-.1,1.48.92a17.579,17.579,0,0,0,1.31,3.57,2.191,2.191,0,0,0,.46.31,5.44,5.44,0,0,1,2.29,1.83c.15.23.53.76.78,1.12l.23.33Zm-10.42-5.25a5.278,5.278,0,0,0,.77,1l.92,1.09a5.515,5.515,0,0,1,.5.63c.12.2,0,.42-.28.38a1.9,1.9,0,0,1-.82-.45c-.26-.2-.49-.4-.71-.59-.43-.38-.8-.73-1.12-1a7.1,7.1,0,0,0-1.1-.93,6.635,6.635,0,0,0,.9,1c.2.22.46.47.73.74a2.062,2.062,0,0,1,.33.4.85.85,0,0,1,.16.62c-.05.08-.12.1-.28,0a4.116,4.116,0,0,1-.53-.29,21.728,21.728,0,0,1-2.36-1.78,5.31,5.31,0,0,0,2.14,1.92,3.884,3.884,0,0,0,.61.33.81.81,0,0,0,.47.05.33.33,0,0,0,.26-.19.52.52,0,0,0-.05-.41h0l.31.26a2.18,2.18,0,0,0,1.08.55.64.64,0,0,0,.62-.2.4.4,0,0,0,0-.42,5.308,5.308,0,0,0-.55-.67l-1-1.07a6.8,6.8,0,0,0-.96-.97Zm1.51.69a1.16,1.16,0,0,1,.52,0,10.939,10.939,0,0,1,1.21.19,9,9,0,0,1,1.83.62l.17.08v-.12c0-.46.29-.67.24-.69a.8.8,0,0,0-.43.57,8.372,8.372,0,0,0-1.75-.64,9.615,9.615,0,0,0-1.29-.22,1.56,1.56,0,0,0-.74.07.32.32,0,0,0-.16.49,2.57,2.57,0,0,0,.87.67c.31.18.62.34.92.49s.82.36,1.2.51a2.661,2.661,0,0,0-1.35.78c-.58.65-.38,1.33-.29,1.32a3.8,3.8,0,0,1,.6-1.19,4.19,4.19,0,0,1,1.18-.86l.37.14a8.622,8.622,0,0,0,1.69.46s-.63-.21-1.6-.59a15.131,15.131,0,0,1-1.62-.72c-.3-.15-.6-.31-.89-.49a2.351,2.351,0,0,1-.75-.55c-.02-.16-.02-.27.11-.32Z" transform="translate(8.365 -291.93)" fill="#aa6550"/>
      <path id="Trazado_2181" data-name="Trazado 2181" d="M140.22,338c.29.18.59.34.89.49a15.128,15.128,0,0,0,1.62.72c1,.38,1.61.55,1.6.59a8.619,8.619,0,0,1-1.69-.46l-.37-.14a4.19,4.19,0,0,0-1.18.86c-.53.59-.5,1.21-.6,1.19s-.29-.67.29-1.32a2.66,2.66,0,0,1,1.35-.78c-.38-.15-.78-.31-1.2-.51s-.61-.31-.92-.49a2.57,2.57,0,0,1-.87-.67.32.32,0,0,1,.16-.49,1.56,1.56,0,0,1,.74-.07,9.62,9.62,0,0,1,1.29.22,8.368,8.368,0,0,1,1.75.64.8.8,0,0,1,.43-.57,1.271,1.271,0,0,0-.24.69v.1l-.17-.08a9,9,0,0,0-1.83-.62,10.939,10.939,0,0,0-1.21-.19,1.16,1.16,0,0,0-.52,0c-.11.05-.13.16-.07.28a2.349,2.349,0,0,0,.75.61Z" transform="translate(-23.505 -291.93)" fill="#934d3d"/>
      <path id="Trazado_2182" data-name="Trazado 2182" d="M148.24,339.17a.4.4,0,0,1,0,.42.64.64,0,0,1-.62.2,2.18,2.18,0,0,1-1.08-.55l-.31-.26h0a.52.52,0,0,1,.05.41.33.33,0,0,1-.26.19.81.81,0,0,1-.47-.05,3.882,3.882,0,0,1-.61-.33,5.31,5.31,0,0,1-2.14-1.92,21.728,21.728,0,0,0,2.36,1.78,4.119,4.119,0,0,0,.53.29.411.411,0,0,0,.28,0,.85.85,0,0,0-.16-.62,2.06,2.06,0,0,0-.33-.4c-.27-.27-.53-.52-.73-.74a6.632,6.632,0,0,1-.9-1,7.1,7.1,0,0,1,1.1.93c.32.29.69.64,1.12,1,.22.19.45.39.71.59a1.9,1.9,0,0,0,.82.45c.27,0,.4-.18.28-.38a5.51,5.51,0,0,0-.5-.63l-.92-1.09a5.28,5.28,0,0,1-.77-1,6.8,6.8,0,0,1,1,1l1,1.07a5.307,5.307,0,0,1,.55.64Z" transform="translate(-31.196 -291.93)" fill="#934d3d"/>
      <path id="Trazado_2183" data-name="Trazado 2183" d="M73.77,355.24a7.79,7.79,0,0,1,.74-1,8.68,8.68,0,0,1,3.79-1.92A54.708,54.708,0,0,1,85.82,351a28,28,0,0,0,4.35-.9,11.321,11.321,0,0,0,3.58-1.85,24.351,24.351,0,0,0,4.16-4.84,12.23,12.23,0,0,1,4-3.57,11.719,11.719,0,0,1,4.32-1.28c1.21-.11,2-.05,1.94-.08a11.459,11.459,0,0,0-2,0,11.63,11.63,0,0,0-4.51,1.25,12.4,12.4,0,0,0-4.17,3.57,25.171,25.171,0,0,1-4.17,4.8,10.8,10.8,0,0,1-3.46,1.8,27.314,27.314,0,0,1-4.26.9,51.165,51.165,0,0,0-7.52,1.32,7.93,7.93,0,0,0-3.75,2,4.55,4.55,0,0,0-.58,1.1l-3.37-2.72.15.12-1.41-1.11c-1.65-1.33-3.1-2.55-4.14-3.44l-1.23-1a3.223,3.223,0,0,0-.49-.38s.12.15.38.41.64.63,1.14,1.08c1,.9,2.41,2.14,4.07,3.47l1.7,1.35.05,6.1-3.94-.76-3.09-.6a15.559,15.559,0,0,0,3.38-.69c2.24-.71,3.35-1.75,3.24-1.79a31.69,31.69,0,0,1-3.53,1.54,23.8,23.8,0,0,1-3.62.84l-11.68-2.25-1.25-.25s.07-1.25.17-3.18l.56-.13a8.389,8.389,0,0,0,1.59-.61,11.439,11.439,0,0,0,2-1.32c.69-.55,1.4-1.21,2.28-1.89a8.58,8.58,0,0,1,1.53-1c.29-.15.57-.32.9-.46l1-.4a29.565,29.565,0,0,1,5.07-1.2c3.8-.59,8.3-.78,12.67-1.53a20.25,20.25,0,0,0,5.7-1.74,10.18,10.18,0,0,0,3.44-2.83c1.6-2,2.53-4.05,4-5.45a10.08,10.08,0,0,1,4.57-2.64,16.992,16.992,0,0,1,2.35-.41h-.67a12,12,0,0,0-1.79.29,10.19,10.19,0,0,0-4.75,2.61c-1.54,1.4-2.52,3.41-4.12,5.43a10.1,10.1,0,0,1-3.38,2.74,20.159,20.159,0,0,1-5.58,1.71c-4.31.73-8.81.94-12.64,1.54a30,30,0,0,0-5.12,1.24l-1,.42c-.34.15-.61.33-.91.48a8,8,0,0,0-1.53,1c-.88.69-1.56,1.37-2.23,1.93a11.49,11.49,0,0,1-1.91,1.33,9.13,9.13,0,0,1-2,.8c.13-2.56.3-6.32.39-9.95.09-5.79,5.81-9.11,8.79-10.45l3.35,3a10.15,10.15,0,0,0,3.16,1.8,12.37,12.37,0,0,0-1.85.2,18.079,18.079,0,0,0-5.25,2.07,20.629,20.629,0,0,1-5.07,2.17c-1.51.37-2.63.35-2.61.41a5,5,0,0,0,.78,0,11.6,11.6,0,0,0,2-.24,19.259,19.259,0,0,0,5.25-2.13,19.789,19.789,0,0,1,5.08-2.11,14.282,14.282,0,0,1,2-.29,13.17,13.17,0,0,0,8.29.18h0c3.19-1.13,4.1-3.59,2.42-5.85a1.71,1.71,0,0,0,.6,0,2.77,2.77,0,0,0,1.23-.53,2.64,2.64,0,0,0,.86-1.3,7.39,7.39,0,0,1,.63-1.66,6.33,6.33,0,0,1,2.77-2.31l.56-.24a39.521,39.521,0,0,1,9.78.9l25.65,19.9-.32.28c-.57-.23-4.31-1.39-8.74-2.72l-3.6-1.08-.56-.18h0c-2.72-.81-4.57-1.34-4.59-1.3s2,.67,4.85,1.56l9.22,8.36-33,12.26Z" transform="translate(90.675 -291.93)" fill="#ff71d5"/>
      <path id="Trazado_2184" data-name="Trazado 2184" d="M93.19,327.08a6.871,6.871,0,0,0-.61,1.7,2.64,2.64,0,0,1-.72,1.27,3.25,3.25,0,0,1-1.56.68,6.3,6.3,0,0,0-1-1l-2.94-2.62,2.67-.83s2.15-1.26,7.18-1.57h-.1A6,6,0,0,0,93.19,327.08Z" transform="translate(77.335 -291.93)" fill="#ff71d5"/>
      <path id="Trazado_2185" data-name="Trazado 2185" d="M117.8,359.41a4,4,0,0,1,.56,2,14.26,14.26,0,0,1-.91-2,19.3,19.3,0,0,1-.92-1.95h0s.06,0,.11.09A7.891,7.891,0,0,1,117.8,359.41Z" transform="translate(25.015 -291.93)" fill="#934d3d"/>
      <path id="Trazado_2186" data-name="Trazado 2186" d="M67.81,345.7c-.31-.07-1.35-.35-2.86-.79s-3.62-1.05-5.87-1.73l-3.8-1.16c-2.89-.89-4.86-1.53-4.85-1.56s1.87.49,4.59,1.3l.55.16,3.6,1.08c4.43,1.33,8.08,2.45,8.65,2.68h.09Z" transform="translate(141.565 -291.93)" fill="#263238"/>
      <path id="Trazado_2187" data-name="Trazado 2187" d="M95.39,348.16c-.5-.45-.88-.82-1.14-1.08s-.4-.4-.38-.41a3.218,3.218,0,0,1,.49.38l1.23,1c1,.89,2.49,2.11,4.14,3.44l1.41,1.11c1.12.87,2.14,1.65,3,2.26l.29.22v.12l.06-.09,1,.76c.32.24.48.38.46.39a5.551,5.551,0,0,1-.56-.34l-1.43-1c-.78-.55-1.73-1.25-2.76-2l-1.68-1.32C97.82,350.3,96.38,349.06,95.39,348.16Z" transform="translate(60.085 -291.93)" fill="#263238"/>
      <path id="Trazado_2188" data-name="Trazado 2188" d="M128.511,317.49c-2.32-2.74-7.49-7.29-11.19-10.43v.07c-.3,1.25-3,1.39-3.66,2.53l-2.47-1.6a1.43,1.43,0,0,1,.48,2.35,8.11,8.11,0,0,1-2.91,1.26c-1.07.35-2.14.8-2.44,1.57l-1.54-.95.63.95a8.24,8.24,0,0,1,3.05,3.51,7.54,7.54,0,0,0,.64,1.93,7.76,7.76,0,0,0,3.38,2.27,27.05,27.05,0,0,1,4.07,1.85,5.07,5.07,0,0,1,2.26,2.7h0a2.5,2.5,0,0,1-.26,2.11,4.84,4.84,0,0,1-2.82,1.76l.28.26a18.48,18.48,0,0,1-12.47.36c-4.69-1.47-8.56-5-8.23-7.88.13-1.16.84-2.2.52-3.42s-1.31-2.13-2-3.19a5.32,5.32,0,0,1-.62-5.39,4.79,4.79,0,0,1,1.06-1.34v-.08c.53-2.51,3.3-4.42,7-5,1.27-1.84,6.62-2.62,9.6-2.22a19.5,19.5,0,0,1,9.17,3.88c1.59,1.27,2.94,2.85,5.09,3.57,1.6.54,3.28.46,4.87,1a6.8,6.8,0,0,1,3.43,2.85c1.26,2.13.9,4.3-.93,5.59-.77.54,3,2.42,2.52,3.11-.59.85-3,2.54-3.06,3.56a1.94,1.94,0,0,1-.88,1.44l-2.48-2.24S132.531,322.2,128.511,317.49Z" transform="translate(32.094 -291.93)" fill="#263238"/>
      <path id="Trazado_2189" data-name="Trazado 2189" d="M91.392,329.4a4.84,4.84,0,0,0,2.82-1.76,2.5,2.5,0,0,0,.26-2.11,14.62,14.62,0,0,0,10.85-.13l-1.09-1.07,2.48,2.24.59.54,2.94,2.62a6.3,6.3,0,0,1,1,1h0c1.68,2.26.77,4.72-2.42,5.85h0a13.17,13.17,0,0,1-8.29-.18,2.691,2.691,0,0,0,.64-.06,3.452,3.452,0,0,0-.78,0h-.14a10.15,10.15,0,0,1-3.16-1.8l-3.35-3-2-1.82Z" transform="translate(56.443 -291.93)" fill="#aa6550"/>
      <path id="Trazado_2190" data-name="Trazado 2190" d="M111.534,325.5a5.07,5.07,0,0,0-2.26-2.7,27.05,27.05,0,0,0-4.07-1.85,7.76,7.76,0,0,1-3.38-2.27,7.54,7.54,0,0,1-.64-1.93,8.24,8.24,0,0,0-3.05-3.51l-.63-.95,1.54.95c.3-.77,1.37-1.22,2.44-1.57a8.11,8.11,0,0,0,2.91-1.26,1.43,1.43,0,0,0-.48-2.35l2.47,1.6c.66-1.14,3.36-1.28,3.66-2.53v-.07c3.7,3.14,8.87,7.69,11.19,10.43,4,4.71.07,6.84.07,6.84a24.07,24.07,0,0,1-9.77,1.17Zm-9-13.31a3.49,3.49,0,0,0-1.42.35,1.72,1.72,0,0,0-.85.78c-.1.26,0,.45.07.46s.19-.11.38-.28a3.86,3.86,0,0,1,.89-.6,6.533,6.533,0,0,1,1.12-.41c.31-.08.54-.1.53-.17S102.934,312.18,102.534,312.19Zm1.7,1.45a3.36,3.36,0,0,0-1.48.12,1.55,1.55,0,0,0-.91.69c-.11.24-.06.4,0,.42a4.169,4.169,0,0,1,1.25-.75c.82-.27,1.73-.16,1.75-.27s-.23-.15-.64-.21Zm.42.94a1.4,1.4,0,0,0-1.33-.24.45.45,0,0,0-.12.82,1.45,1.45,0,0,0,1.34.24c.37-.16.42-.53.08-.82Zm4.58-4.64c-.63.22-1,.48-.93.59a2.38,2.38,0,0,0,1.36-.19c.63-.22,1-.48.93-.59a2.38,2.38,0,0,0-1.39.19Zm3.2.55a3.35,3.35,0,0,0-1.48.12,1.46,1.46,0,0,0-.88.69c-.1.23-.05.4,0,.42a3.775,3.775,0,0,1,1.22-.75c.81-.27,1.72-.16,1.73-.27s-.22-.15-.62-.21Zm-1.21,1.66a1.43,1.43,0,0,0,1.33.24c.39-.16.44-.53.09-.82a1.43,1.43,0,0,0-1.33-.24c-.42.16-.46.53-.12.82Zm3.27,4.22a1.82,1.82,0,0,0-.78-.57l-1.89-1c-2.7-1.38-4.93-2.46-5-2.41a49.338,49.338,0,0,0,4.71,2.61l1.92,1a1.769,1.769,0,0,1,.65.41c.08.12-.08.22-.27.31a4.41,4.41,0,0,0-1.13.63,7,7,0,0,0,1.34-.46,1.529,1.529,0,0,0,.31-.16.26.26,0,0,0,.11-.36Zm0,3.71a.5.5,0,0,0,0-.38l.2-.05c.39-.15.52-.31.46-.35a3.461,3.461,0,0,0-.84.12,1.84,1.84,0,0,0-1-.58,1.57,1.57,0,0,0-1.45.27h0a10.331,10.331,0,0,0-1.07-.51c-.07,0,0,.21.35.48a3.08,3.08,0,0,0,.62.36,1.29,1.29,0,0,0,.92,1c.72.23,1.64.07,1.85-.36Z" transform="translate(39.371 -291.93)" fill="#aa6550"/>
      <path id="Trazado_2191" data-name="Trazado 2191" d="M109.336,311.57c.35.29.3.66-.09.82a1.43,1.43,0,0,1-1.33-.24c-.34-.29-.3-.66.09-.82a1.43,1.43,0,0,1,1.33.24Z" transform="translate(42.649 -291.93)" fill="#263238"/>
      <path id="Trazado_2192" data-name="Trazado 2192" d="M107.56,311.72c-.08,0-.13-.19,0-.42a1.46,1.46,0,0,1,.88-.69,3.349,3.349,0,0,1,1.48-.12c.4.06.63.16.62.21a9.538,9.538,0,0,0-1.73.27C108,311.24,107.72,311.76,107.56,311.72Z" transform="translate(41.885 -291.93)" fill="#263238"/>
      <path id="Trazado_2193" data-name="Trazado 2193" d="M117.235,315.4a1.45,1.45,0,0,1-1.34-.24.45.45,0,0,1,.12-.82,1.4,1.4,0,0,1,1.33.24A.454.454,0,0,1,117.235,315.4Z" transform="translate(26.669 -291.93)" fill="#263238"/>
      <path id="Trazado_2194" data-name="Trazado 2194" d="M115.76,314.87c-.08,0-.13-.18,0-.42a1.55,1.55,0,0,1,.91-.69,3.36,3.36,0,0,1,1.48-.12c.41.06.64.16.63.21a9.761,9.761,0,0,0-1.75.27C116.21,314.39,115.93,314.91,115.76,314.87Z" transform="translate(25.445 -291.93)" fill="#263238"/>
      <path id="Trazado_2195" data-name="Trazado 2195" d="M113.286,316.88a7,7,0,0,1-1.34.46,4.411,4.411,0,0,1,1.13-.63c.19-.09.35-.19.27-.31a1.77,1.77,0,0,0-.65-.41l-1.92-1a49.336,49.336,0,0,1-4.75-2.62c.06,0,2.29,1,5,2.41l1.89,1a1.82,1.82,0,0,1,.78.57.26.26,0,0,1-.09.35,1.53,1.53,0,0,1-.32.18Z" transform="translate(40.149 -291.93)" fill="#263238"/>
      <path id="Trazado_2196" data-name="Trazado 2196" d="M107.9,324.33l1.09,1.07a14.62,14.62,0,0,1-10.85.13h0A24.07,24.07,0,0,0,107.9,324.33Z" transform="translate(52.775 -291.93)" fill="#934d3d"/>
      <path id="Trazado_2197" data-name="Trazado 2197" d="M119.819,312.49a6.528,6.528,0,0,0-1.12.41,3.86,3.86,0,0,0-.89.6c-.19.17-.28.3-.38.28s-.17-.2-.07-.46a1.72,1.72,0,0,1,.85-.78,3.49,3.49,0,0,1,1.42-.35c.43,0,.72.08.72.13S120.129,312.41,119.819,312.49Z" transform="translate(22.246 -291.93)" fill="#263238"/>
      <path id="Trazado_2198" data-name="Trazado 2198" d="M111.333,310.34a2.38,2.38,0,0,1-1.36.19c-.12-.11.3-.37.93-.59a2.38,2.38,0,0,1,1.36-.19C112.373,309.86,111.963,310.12,111.333,310.34Z" transform="translate(37.672 -291.93)" fill="#263238"/>
      <path id="Trazado_2199" data-name="Trazado 2199" d="M106.912,320.4a1.29,1.29,0,0,1-.92-1,4.4,4.4,0,0,0,1.11.34,3.92,3.92,0,0,0,1.65-.07.5.5,0,0,1,0,.38C108.572,320.51,107.652,320.67,106.912,320.4Z" transform="translate(45.122 -291.93)" fill="#934d3d"/>
      <path id="Trazado_2200" data-name="Trazado 2200" d="M107.18,319.4a4.408,4.408,0,0,1-1-.29,1.57,1.57,0,0,1,1.45-.27,1.84,1.84,0,0,1,1,.58,4.54,4.54,0,0,1-1.45-.02Z" transform="translate(45.095 -291.93)" fill="#934d3d"/>
      <path id="Trazado_2201" data-name="Trazado 2201" d="M108.69,319.09v.01h-.01Z" transform="translate(42.535 -291.93)" fill="#934d3d"/>
      <path id="Trazado_2202" data-name="Trazado 2202" d="M107.519,319.77a4.4,4.4,0,0,1-1.11-.34,3.08,3.08,0,0,1-.62-.36c-.34-.27-.42-.46-.35-.48a10.33,10.33,0,0,1,1.07.51h0a4.41,4.41,0,0,0,1,.29,4.54,4.54,0,0,0,1.42,0,3.462,3.462,0,0,1,.84-.12c.06,0-.07.2-.46.35l-.2.05A3.921,3.921,0,0,1,107.519,319.77Z" transform="translate(44.705 -291.93)" fill="#263238"/>
      <path id="Trazado_2203" data-name="Trazado 2203" d="M71.28,351.88a9.129,9.129,0,0,0,2-.8,11.486,11.486,0,0,0,1.91-1.33c.67-.56,1.35-1.24,2.23-1.93a8,8,0,0,1,1.53-1c.3-.15.57-.33.91-.48l1-.42a30,30,0,0,1,5.12-1.24c3.83-.6,8.33-.81,12.64-1.54a20.159,20.159,0,0,0,5.66-1.72,10.1,10.1,0,0,0,3.39-2.75c1.6-2,2.58-4,4.12-5.43a10.19,10.19,0,0,1,4.75-2.61,12,12,0,0,1,1.79-.29H119a17,17,0,0,0-2.35.41,10.08,10.08,0,0,0-4.57,2.64c-1.49,1.4-2.42,3.41-4,5.45a10.18,10.18,0,0,1-3.44,2.83,20.25,20.25,0,0,1-5.7,1.74c-4.37.75-8.87.94-12.67,1.53a29.571,29.571,0,0,0-5.07,1.2l-1,.4c-.33.14-.61.31-.9.46a8.578,8.578,0,0,0-1.53,1c-.88.68-1.59,1.34-2.28,1.89a11.441,11.441,0,0,1-2,1.32,8.393,8.393,0,0,1-1.59.61l-.56.13h-.06Z" transform="translate(69.625 -291.93)" fill="#fff"/>
      <path id="Trazado_2204" data-name="Trazado 2204" d="M61,355.12l.09-.25a2.54,2.54,0,0,1,.47-.73,7.93,7.93,0,0,1,3.75-2,51.164,51.164,0,0,1,7.52-1.32,27.311,27.311,0,0,0,4.26-.9,10.8,10.8,0,0,0,3.46-1.8,25.17,25.17,0,0,0,4.17-4.8,12.4,12.4,0,0,1,4.17-3.57,11.631,11.631,0,0,1,4.55-1.29,11.459,11.459,0,0,1,2,0s-.73,0-1.94.08a11.72,11.72,0,0,0-4.34,1.31,12.23,12.23,0,0,0-4,3.57A24.35,24.35,0,0,1,81,348.26a11.32,11.32,0,0,1-3.58,1.85,28,28,0,0,1-4.35.9,54.7,54.7,0,0,0-7.52,1.25,8.679,8.679,0,0,0-3.79,1.92,3.92,3.92,0,0,0-.55.73c-.06.09-.1.17-.13.22s0,.09-.06.09Z" transform="translate(103.465 -291.93)" fill="#fff"/>
      <path id="Trazado_2205" data-name="Trazado 2205" d="M98.993,357.72a2.659,2.659,0,0,1,.59-.13,23.8,23.8,0,0,0,3.62-.84,31.694,31.694,0,0,0,3.57-1.54,6.927,6.927,0,0,1-3.24,1.79,15.559,15.559,0,0,1-3.38.69,4.113,4.113,0,0,1-1.16.03Z" transform="translate(54.132 -291.93)" fill="#fff"/>
      <path id="Trazado_2206" data-name="Trazado 2206" d="M118.09,336.35a2.691,2.691,0,0,1-.64.06,14.282,14.282,0,0,0-2,.29,19.79,19.79,0,0,0-5.08,2.11,19.259,19.259,0,0,1-5.25,2.13,11.6,11.6,0,0,1-2,.24,5,5,0,0,1-.78,0,16.889,16.889,0,0,0,2.61-.41,20.631,20.631,0,0,0,5.07-2.17,18.079,18.079,0,0,1,5.25-2.07,12.37,12.37,0,0,1,1.85-.2h.14A3.449,3.449,0,0,1,118.09,336.35Z" transform="translate(39.475 -291.93)" fill="#fff"/>
      <path id="Trazado_2207" data-name="Trazado 2207" d="M84.55,330.73a3.25,3.25,0,0,0,1.56-.68,2.64,2.64,0,0,0,.72-1.27,6.869,6.869,0,0,1,.61-1.7,6,6,0,0,1,3-2.33h.1a5.869,5.869,0,0,1,1.78-.45s-.42.15-1.09.42l-.56.24a6.33,6.33,0,0,0-2.85,2.27,7.39,7.39,0,0,0-.63,1.66,2.64,2.64,0,0,1-.86,1.3,2.77,2.77,0,0,1-1.23.53,1.71,1.71,0,0,1-.6,0h0Z" transform="translate(83.085 -291.93)" fill="#fff"/>
      <line id="Línea_216" data-name="Línea 216" y1="0.28" x2="0.32" transform="translate(209.475 53.51)" fill="#ff71d5"/>
      <path id="Trazado_2208" data-name="Trazado 2208" d="M105.52,401.69l.69-.24,2.06-.74,8-2.93,30.14-11.07,104.81-38.65.42-.16-.35-.27-63.72-48.45-5.82-4.43-.11-.08h-.13L46.37,339.5l-.3.1.22.23,43.25,45.25c5.13,5.34,9.12,9.5,11.83,12.34l3.09,3.2c.7.72,1.06,1.07,1.06,1.07l-1.05-1.13-3.07-3.26L89.63,384.87l-43-45.32-.08.33,135.16-44.67h-.24l5.83,4.43L250.99,348l.06-.42L146.43,386.39,116.32,397.6l-8,3-2.07.78Z" transform="translate(-37.805 -291.93)" fill="#263238"/>
    </g>
    <g id="freepik--Plant--inject-390" transform="translate(-39.216 169.932)">
      <path id="Trazado_2209" data-name="Trazado 2209" d="M80.328,181.32c-.21-1.32,1.88-3.68,6-5.93a29.8,29.8,0,0,1,3.74-1.7,42.75,42.75,0,0,1,4.51-1.44,45.65,45.65,0,0,1,21.51-.15,39.062,39.062,0,0,1,4.53,1.38,29.589,29.589,0,0,1,3.77,1.65c4.48,2.34,6.61,4.86,6,6.12a1,1,0,0,1-.22.32c-1.16,5.3-10.31,46-10.31,46-10.35,5.73-20.09,5.38-29.32,0l-10.32-46.2Z" transform="translate(-25.447 -53.2)" fill="#455a64"/>
      <path id="Trazado_2210" data-name="Trazado 2210" d="M160.368,143.87c1.2-7.06,5.2-19,4.79-26.11s-2.59-14.42-7.41-19.76c-3.28-3.63-7.63-6.18-10.89-9.83-4-4.49-6.11-10.32-9.26-15.44a43.48,43.48,0,0,0-27.77-19.53c-.61,12.74-.84,26.71,7,36.75,2.43,3.09,5.54,5.66,7.5,9.07,3.15,5.48,2.88,12.25,4.91,18.24,2.24,6.66,7.27,12.08,13,16.07s11.56,7.85,18.05,10.52" transform="translate(-89.487 -53.2)" fill="#ff71d5"/>
      <path id="Trazado_2211" data-name="Trazado 2211" d="M106.39,59.53a1.789,1.789,0,0,0,.22.29l.7.81,2.71,3.08c.57.68,1.28,1.38,1.93,2.24l2.16,2.78,2.49,3.2c.82,1.17,1.68,2.42,2.59,3.73a194.481,194.481,0,0,1,11.59,19.09c3.93,7.44,7.83,15.83,11.5,24.83s6.52,17.81,8.91,25.88a206.926,206.926,0,0,1,5.23,21.73l.86,4.46c.21,1.42.41,2.75.6,4s.36,2.41.53,3.48.23,2.06.34,2.94c.19,1.75.34,3.12.44,4.08.06.44.1.79.13,1.06a1.709,1.709,0,0,0,.06.36,1.749,1.749,0,0,0,0-.37,5.656,5.656,0,0,0-.08-1.06c-.09-1-.2-2.34-.35-4.09-.09-.89-.14-1.88-.3-2.95s-.31-2.24-.48-3.5-.37-2.59-.57-4-.53-2.91-.82-4.48c-1.09-6.28-2.9-13.66-5.13-21.79a261.893,261.893,0,0,0-8.89-26A271.993,271.993,0,0,0,131.2,94.47a188.335,188.335,0,0,0-11.72-19.08l-2.62-3.71-2.53-3.18-2.2-2.76c-.67-.85-1.38-1.54-2-2.21l-2.78-3-.74-.78C106.49,59.61,106.4,59.52,106.39,59.53Z" transform="translate(-80.519 -53.2)" fill="#263238"/>
      <path id="Trazado_2212" data-name="Trazado 2212" d="M121.39,111.49a4.749,4.749,0,0,0,.92.63c.62.37,1.51.9,2.63,1.53,2.24,1.26,5.36,2.95,8.87,4.7s6.72,3.26,9.07,4.29c1.18.52,2.14.92,2.8,1.19a4.48,4.48,0,0,0,1.06.36,4.92,4.92,0,0,0-1-.55l-2.73-1.33c-2.31-1.12-5.5-2.67-9-4.42s-6.64-3.39-8.92-4.57l-2.71-1.38a4.06,4.06,0,0,0-.99-.45Z" transform="translate(-82.869 -53.2)" fill="#263238"/>
      <path id="Trazado_2213" data-name="Trazado 2213" d="M124.04,97.52a19.88,19.88,0,0,0-.82,2.83c-.47,1.75-1.16,4.17-2,6.79s-1.8,5-2.49,6.63a21.48,21.48,0,0,0-1.06,2.75,14.11,14.11,0,0,0,1.4-2.6,63.4,63.4,0,0,0,2.64-6.62,64.229,64.229,0,0,0,1.91-6.86,14.549,14.549,0,0,0,.42-2.92Z" transform="translate(-56.449 -53.2)" fill="#263238"/>
      <path id="Trazado_2214" data-name="Trazado 2214" d="M131.17,87.89c-.06.13,6.13,3.08,13.83,6.58s14,6.24,14,6.11S152.92,97.5,145.17,94,131.24,87.76,131.17,87.89Z" transform="translate(-104.909 -53.2)" fill="#263238"/>
      <path id="Trazado_2215" data-name="Trazado 2215" d="M139.633,73.22c-.16,0-.55,3-1.32,6.61s-1.61,6.53-1.46,6.58a6.83,6.83,0,0,0,.74-1.84,44.309,44.309,0,0,0,1.23-4.64,46.546,46.546,0,0,0,.74-4.73A7.551,7.551,0,0,0,139.633,73.22Z" transform="translate(-91.242 -53.2)" fill="#263238"/>
      <path id="Trazado_2216" data-name="Trazado 2216" d="M146.73,68.36a79.55,79.55,0,0,0,8.63,3.28,80.071,80.071,0,0,0,8.81,2.79,84.511,84.511,0,0,0-8.64-3.28,85.94,85.94,0,0,0-8.8-2.79Z" transform="translate(-125.639 -53.2)" fill="#263238"/>
      <path id="Trazado_2217" data-name="Trazado 2217" d="M127.721,97.86a19.3,19.3,0,0,0,1.54,17.46c2.61,4.1,6.67,7,10,10.56,5.12,5.45,8.43,12.29,12.09,18.81s7.93,13,14.24,17,13.79,5.87,19.67,1.27l-22.05-25.79Z" transform="translate(-126.32 -53.2)" fill="#ff71d5"/>
      <path id="Trazado_2218" data-name="Trazado 2218" d="M112.24,97.86a2,2,0,0,0,.18.24l.53.67,2.15,2.53c1.84,2.2,4.56,5.33,8,9.15,6.79,7.67,16.41,18.06,26.77,29.76a372.015,372.015,0,0,1,25.11,31.07c1.46,2.1,2.8,4,3.86,5.72s2.07,3.17,2.75,4.43l1.66,2.85.44.74a2,2,0,0,0,.17.24.86.86,0,0,0-.12-.27c-.1-.2-.23-.45-.4-.76-.37-.7-.9-1.67-1.57-2.9s-1.62-2.75-2.68-4.48-2.36-3.66-3.81-5.78c-5.77-8.48-14.72-19.49-25.08-31.21s-20-22.05-26.89-29.65c-3.44-3.8-6.2-6.89-8.09-9l-2.19-2.47-.57-.63Z" transform="translate(-110.839 -53.2)" fill="#263238"/>
      <path id="Trazado_2219" data-name="Trazado 2219" d="M132.33,143.56c0,.13,6.27,2.92,14.12,6.22s14.27,5.87,14.32,5.73-6.26-2.91-14.12-6.21S132.39,143.43,132.33,143.56Z" transform="translate(-107.839 -53.2)" fill="#263238"/>
      <path id="Trazado_2220" data-name="Trazado 2220" d="M150.04,127.13a22,22,0,0,0,2.95,1.2c1.83.69,4.35,1.69,7.12,2.84l7.05,3a19.409,19.409,0,0,0,3,1.14,18.928,18.928,0,0,0-2.81-1.48c-1.78-.85-4.24-2-7-3.16s-5.33-2.1-7.2-2.71a17.539,17.539,0,0,0-3.11-.83Z" transform="translate(-134.939 -53.2)" fill="#263238"/>
      <path id="Trazado_2221" data-name="Trazado 2221" d="M168.12,109.09a13.18,13.18,0,0,0,2.45.91c1.52.51,3.62,1.22,5.92,2.07s4.35,1.69,5.83,2.3a14.75,14.75,0,0,0,2.44.92,11.749,11.749,0,0,0-2.29-1.25c-1.45-.7-3.5-1.6-5.8-2.46s-4.44-1.52-6-1.94A12.25,12.25,0,0,0,168.12,109.09Z" transform="translate(-167.619 -53.2)" fill="#263238"/>
      <path id="Trazado_2222" data-name="Trazado 2222" d="M86.149,123.5c1.84,6.58-7.69,9.89-14.5,11.06-4.46.75-9.3-.21-13.34,1.8-4.29,2.14-6.44,7-10.14,10.07-10.05,8.26-26.14,0-37.83,5.74a94.81,94.81,0,0,1,29.83-23.45,188.108,188.108,0,0,1,18.5-7.72,57,57,0,0,1,12-3.52c5.84-.82,12.71.77,15.47,6" transform="translate(88.543 -53.2)" fill="#ff71d5"/>
      <path id="Trazado_2223" data-name="Trazado 2223" d="M10.61,189.05a1.77,1.77,0,0,0,.07-.31,7.56,7.56,0,0,1,.14-.93c.11-.82.3-2,.56-3.57a74.85,74.85,0,0,1,3.4-12.79,50.31,50.31,0,0,1,10-16.73c1.24-1.37,2.66-2.64,4-4s3-2.56,4.47-3.88a55.085,55.085,0,0,1,4.91-3.68l2.6-1.75c.87-.6,1.76-1.19,2.68-1.72a113.721,113.721,0,0,1,21.73-10.25,110.222,110.222,0,0,1,19-4.81,95.128,95.128,0,0,1,13.2-1.17l3.61.06h.94a2,2,0,0,0,.32,0,1.64,1.64,0,0,0-.32,0h-.94c-.82,0-2-.11-3.61-.16a89.519,89.519,0,0,0-13.25,1A108.722,108.722,0,0,0,65.02,129a111.921,111.921,0,0,0-21.84,10.26c-.93.53-1.82,1.12-2.69,1.72l-2.64,1.74c-1.7,1.21-3.32,2.49-4.93,3.71a48.428,48.428,0,0,0-4.46,3.92c-1.39,1.35-2.79,2.66-4,4a50.12,50.12,0,0,0-10,16.93,70,70,0,0,0-3.26,12.89c-.23,1.55-.39,2.76-.46,3.58a6.44,6.44,0,0,1-.1.94,1.93,1.93,0,0,0-.03.36Z" transform="translate(72.411 -53.2)" fill="#263238"/>
      <path id="Trazado_2224" data-name="Trazado 2224" d="M68.81,141.34a3.49,3.49,0,0,0-.87-.47,22.911,22.911,0,0,0-2.49-1A36.289,36.289,0,0,0,56.82,138a36.86,36.86,0,0,0-8.84.24,23.759,23.759,0,0,0-2.63.52,3.579,3.579,0,0,0-.94.3c0,.08,1.39-.21,3.62-.46a43.509,43.509,0,0,1,8.74-.08,44.3,44.3,0,0,1,8.57,1.71C67.48,140.88,68.77,141.42,68.81,141.34Z" transform="translate(72.041 -53.2)" fill="#263238"/>
      <path id="Trazado_2225" data-name="Trazado 2225" d="M58.83,127.08a25.709,25.709,0,0,0-2.91,3.24,23.241,23.241,0,0,0-2.71,3.4,14.769,14.769,0,0,0,3.1-3.07,14.311,14.311,0,0,0,2.52-3.57Z" transform="translate(73.221 -53.2)" fill="#263238"/>
      <path id="Trazado_2226" data-name="Trazado 2226" d="M45.52,131.48a6.26,6.26,0,0,0-1.15-.4c-.75-.22-1.85-.51-3.21-.83a86.742,86.742,0,0,0-10.81-1.79A87.8,87.8,0,0,0,19.44,128c-1.4,0-2.53.1-3.31.17a5.5,5.5,0,0,0-1.21.15,5.221,5.221,0,0,0,1.21,0h3.31c2.8,0,6.65.15,10.89.58s8,1.09,10.78,1.64l3.24.67A5.249,5.249,0,0,0,45.52,131.48Z" transform="translate(124.821 -53.2)" fill="#263238"/>
      <path id="Trazado_2227" data-name="Trazado 2227" d="M33,117.42a24,24,0,0,0-5.36,3.44A23.75,23.75,0,0,0,23,125.17c.1.1,2.23-1.77,5-3.89S33.1,117.54,33,117.42Z" transform="translate(129.264 -53.2)" fill="#263238"/>
      <path id="Trazado_2228" data-name="Trazado 2228" d="M85.154,159.84c3.77-3,11.11-7.07,14.13-10.81s5.24-8.32,5.24-13.12c0-3.29-1-6.51-1-9.79,0-4,1.61-7.87,2.35-11.84a29.11,29.11,0,0,0-5-22.19c-6,6-12.44,12.88-13.06,21.41-.19,2.62.2,5.3-.36,7.87-.9,4.14-4.08,7.38-5.78,11.27-1.87,4.32-1.82,9.27-.75,13.85a65.439,65.439,0,0,0,4.23,13.35" transform="translate(-1.263 -53.2)" fill="#ff71d5"/>
      <path id="Trazado_2229" data-name="Trazado 2229" d="M85.438,187.58a.81.81,0,0,0,.06-.24,6.755,6.755,0,0,1,.11-.72c.09-.67.21-1.59.37-2.76.3-2.4.79-5.86,1.43-10.14s1.5-9.34,2.54-15,2.35-11.72,3.81-18.15c2.92-12.86,6-24.42,8.11-32.79,1.07-4.16,1.94-7.53,2.56-9.92l.67-2.7.16-.7a.68.68,0,0,0,0-.25.92.92,0,0,0-.09.23l-.21.69c-.19.66-.44,1.55-.77,2.68-.65,2.38-1.58,5.74-2.71,9.87-2.25,8.35-5.34,19.9-8.27,32.77-1.46,6.44-2.72,12.6-3.77,18.22s-1.85,10.72-2.43,15-1,7.76-1.27,10.17c-.12,1.17-.21,2.09-.27,2.77l-.06.72A1.513,1.513,0,0,1,85.438,187.58Z" transform="translate(-5.417 -53.2)" fill="#263238"/>
      <path id="Trazado_2230" data-name="Trazado 2230" d="M98,131.37a45.419,45.419,0,0,0,2.89,6.35,45.589,45.589,0,0,0,3.34,6.12,46,46,0,0,0-2.89-6.35A47.2,47.2,0,0,0,98,131.37Z" transform="translate(-16.969 -53.2)" fill="#263238"/>
      <path id="Trazado_2231" data-name="Trazado 2231" d="M82.63,136.5a54.529,54.529,0,0,0,7-2.57,54.2,54.2,0,0,0,6.8-3,52,52,0,0,0-7,2.56,54.731,54.731,0,0,0-6.8,3.01Z" transform="translate(6.201 -53.2)" fill="#263238"/>
      <path id="Trazado_2232" data-name="Trazado 2232" d="M93.19,108a67.1,67.1,0,0,0,1.7,8.2,71.491,71.491,0,0,0,2.2,8.09,67.439,67.439,0,0,0-1.7-8.21,65.639,65.639,0,0,0-2.2-8.08Z" transform="translate(-5.019 -53.2)" fill="#263238"/>
      <path id="Trazado_2233" data-name="Trazado 2233" d="M80.47,118.42a8.68,8.68,0,0,0,2-1.24,27.61,27.61,0,0,0,7.62-8.53,8.85,8.85,0,0,0,1-2.16A68.141,68.141,0,0,1,86.37,113a66.449,66.449,0,0,1-5.9,5.42Z" transform="translate(13.701 -53.2)" fill="#263238"/>
      <path id="Trazado_2234" data-name="Trazado 2234" d="M80.08,182.34a2.541,2.541,0,0,0,.43.36c.29.21.71.55,1.29.93a35.669,35.669,0,0,0,5.09,2.9,40.1,40.1,0,0,0,37.28-1.46,36.569,36.569,0,0,0,4.85-3.28c.55-.43.94-.8,1.21-1a2.589,2.589,0,0,0,.4-.39s-.63.45-1.73,1.26a41.18,41.18,0,0,1-41.86,4.58,44.568,44.568,0,0,1-5.13-2.74,19.16,19.16,0,0,0-1.83-1.16Z" transform="translate(-25.449 -53.2)" fill="#263238"/>
      <path id="Trazado_2235" data-name="Trazado 2235" d="M83.63,185c10.15-10,32.43-8.89,42.94-2a34.86,34.86,0,0,1-21.37,7.14A47.86,47.86,0,0,1,83.639,185Z" transform="translate(-24.939 -53.2)" fill="#263238"/>
      <path id="Trazado_2236" data-name="Trazado 2236" d="M82.567,192.52a2.05,2.05,0,0,0,.32.39,13.667,13.667,0,0,0,1,1,19.349,19.349,0,0,0,4.39,2.94,26.11,26.11,0,0,0,7.5,2.31,55.339,55.339,0,0,0,9.58.51,45.66,45.66,0,0,0,9.52-1.26,50.721,50.721,0,0,0,7.32-2.82,13.85,13.85,0,0,0,4.23-3.16,11.182,11.182,0,0,0,.88-1.15c.17-.28.25-.44.23-.45s-.4.57-1.26,1.46a14.59,14.59,0,0,1-4.24,3,54.61,54.61,0,0,1-7.27,2.71,47.2,47.2,0,0,1-9.41,1.2,57.549,57.549,0,0,1-9.49-.47,26.89,26.89,0,0,1-7.41-2.16,21.428,21.428,0,0,1-4.42-2.77C83.107,193,82.607,192.49,82.567,192.52Z" transform="translate(-24.846 -53.2)" fill="#263238"/>
      <path id="Trazado_2237" data-name="Trazado 2237" d="M86.921,211.22a15.267,15.267,0,0,1,1.5-.48,8.14,8.14,0,0,1,4.19.37,16.678,16.678,0,0,1,2.7,1.18c.94.5,1.91,1.13,3,1.74a21.239,21.239,0,0,0,3.45,1.67,8.52,8.52,0,0,0,4.13.46c2.89-.47,5.08-2.25,7-3.66a15.83,15.83,0,0,1,5.51-3,6.74,6.74,0,0,1,4.16.21,8.87,8.87,0,0,1,1.36.78,2.1,2.1,0,0,0-.28-.31,4.3,4.3,0,0,0-1-.65,6.69,6.69,0,0,0-4.33-.39,15.68,15.68,0,0,0-5.71,3c-1.94,1.4-4.1,3.1-6.8,3.54a8.1,8.1,0,0,1-3.89-.43,20.549,20.549,0,0,1-3.37-1.61c-1-.59-2-1.2-3-1.7a16,16,0,0,0-2.8-1.15,8,8,0,0,0-4.35-.22,5,5,0,0,0-1.1.44C87.031,211.12,86.911,211.2,86.921,211.22Z" transform="translate(-25.579 -53.2)" fill="#e0e0e0"/>
      <path id="Trazado_2238" data-name="Trazado 2238" d="M87.55,213.47a12.845,12.845,0,0,1,1.45-.45,6.43,6.43,0,0,1,4,.75c1.59.76,3.36,1.92,5.4,3.1a18.889,18.889,0,0,0,3.39,1.57,8.38,8.38,0,0,0,4,.34c2.8-.53,4.93-2.25,6.79-3.62a17.21,17.21,0,0,1,5.35-3,6.19,6.19,0,0,1,4-.08,7.6,7.6,0,0,1,1.32.75,2,2,0,0,0-.27-.3,3.83,3.83,0,0,0-1-.64,6.15,6.15,0,0,0-4.22-.08,16.71,16.71,0,0,0-5.53,3c-1.89,1.36-4,3-6.6,3.5a7.9,7.9,0,0,1-3.78-.32,17.84,17.84,0,0,1-3.31-1.5,62.079,62.079,0,0,0-5.49-3,6.44,6.44,0,0,0-4.18-.62,4.24,4.24,0,0,0-1.08.42,1.32,1.32,0,0,0-.24.18Z" transform="translate(-25.539 -53.2)" fill="#e0e0e0"/>
      <path id="Trazado_2239" data-name="Trazado 2239" d="M92.382,214.3c0,.08.26.17.38.54a.72.72,0,0,1,0,.59.57.57,0,0,1-.59.25.59.59,0,0,1-.52-.37.76.76,0,0,1,.1-.59c.2-.33.5-.36.49-.44s-.37-.2-.78.21a1.07,1.07,0,0,0-.27.93,1.04,1.04,0,1,0,1.92-.73C92.792,214.19,92.372,214.24,92.382,214.3Z" transform="translate(0.829 -53.2)" fill="#e0e0e0"/>
      <path id="Trazado_2240" data-name="Trazado 2240" d="M105.477,211.69c0,.08.26.18.38.55a.72.72,0,0,1,0,.59.6.6,0,0,1-.59.25.61.61,0,0,1-.52-.38.73.73,0,0,1,.1-.58c.2-.34.49-.37.49-.45s-.38-.19-.78.22a1.047,1.047,0,1,0,1.73,1.16,1.07,1.07,0,0,0-.06-1C105.887,211.59,105.457,211.63,105.477,211.69Z" transform="translate(-25.386 -53.2)" fill="#e0e0e0"/>
      <path id="Trazado_2241" data-name="Trazado 2241" d="M119.2,215.88c0,.08.26.18.38.55a.76.76,0,0,1,0,.59.62.62,0,0,1-.59.25.61.61,0,0,1-.52-.38.73.73,0,0,1,.1-.58c.2-.34.49-.37.49-.45s-.38-.19-.78.22a1.047,1.047,0,1,0,1.73,1.16,1.07,1.07,0,0,0-.06-1C119.607,215.78,119.177,215.82,119.2,215.88Z" transform="translate(-52.826 -53.2)" fill="#e0e0e0"/>
    </g>
  </g>
</svg>
