<svg xmlns="http://www.w3.org/2000/svg" width="471" height="405.096" viewBox="0 0 471 405.096">
  <g id="Grupo_1983" data-name="Grupo 1983" transform="translate(-9470 -5134)">
    <circle id="Elipse_202" data-name="Elipse 202" cx="175" cy="175" r="175" transform="translate(9520 5188)" fill="#fff"/>
    <g id="Grupo_1982" data-name="Grupo 1982" transform="translate(28 -36)">
      <g id="freepik--Character--inject-142" transform="translate(9549 5170)">
        <path id="Trazado_1600" data-name="Trazado 1600" d="M473.143,339.25a6.376,6.376,0,0,0-3.013-5c-26.812-17.67-47.017-56.84-49.056-90-.05-1.89-.11-3.81-.171-5.74h0c-1.557-47.41-8.566-104.9-14.852-120.23-11.629-28.3-50.994-31-50.994-31-52.269-3.73-61.6,36.26-66.881,72.69C284.9,182.62,272.26,263.53,272.26,263.53l9.61,3.71c11.317,33.39,36.794,60.4,69.923,72.82,9.63,3.61,17.785,5.06,21.621,1.95a131.511,131.511,0,0,0,54.991,33.25c8.445,2.56,17.293,4.27,26.11,3.45,5.7-.53,11.719-2.41,15.123-7A13,13,0,0,0,458.351,351C460.329,344.57,473.364,346.45,473.143,339.25Z" transform="translate(-250.548 -87.038)" fill="#263238"/>
        <path id="Trazado_1601" data-name="Trazado 1601" d="M361.62,102l-3.25-3.11-35.19,14.18a9.83,9.83,0,0,0-9.27,9.51l.3,114.65c0,7.77,1.52,14.5,6.21,20.7l4.94,6.53c11.27,14.87,34.45,13.65,43.37-2.74a12.278,12.278,0,0,0,1.24-3,23.462,23.462,0,0,0,.53-2.56c1-9.23,1.1-17.22,1.1-17.22.63-10.13.84-14.28.84-14.19s21.55-2.48,27.38-30.14c2.89-13.76,2.35-32.69,1.53-51.31C400.23,117.59,382.34,102,361.62,102Z" transform="translate(-250.222 -87.038)" fill="#ffbf9d"/>
        <path id="Trazado_1602" data-name="Trazado 1602" d="M354.41,158.81a3.59,3.59,0,0,1-3.63,3.44,3.44,3.44,0,0,1-3.53-3.41,3.59,3.59,0,0,1,3.63-3.44,3.42,3.42,0,0,1,3.53,3.41Z" transform="translate(-250.215 -87.038)" fill="#263238"/>
        <path id="Trazado_1603" data-name="Trazado 1603" d="M390.78,159.79a3.59,3.59,0,0,1-3.63,3.44,3.43,3.43,0,0,1-3.52-3.41,3.58,3.58,0,0,1,3.62-3.44,3.42,3.42,0,0,1,3.53,3.41Z" transform="translate(-250.09 -87.038)" fill="#263238"/>
        <path id="Trazado_1604" data-name="Trazado 1604" d="M397.67,150.73c-.46.45-3.07-1.69-6.92-1.88s-6.77,1.61-7.16,1.11c-.2-.22.3-1,1.57-1.87a9.86,9.86,0,0,1,5.76-1.46,9.39,9.39,0,0,1,5.49,2.08C397.54,149.67,397.9,150.54,397.67,150.73Z" transform="translate(-250.076 -87.038)" fill="#263238"/>
        <path id="Trazado_1605" data-name="Trazado 1605" d="M358.62,151.13c-.51.4-2.89-2-6.7-2.58s-6.89.9-7.23.37c-.17-.24.4-1,1.76-1.7a9.84,9.84,0,0,1,5.88-.87,9.45,9.45,0,0,1,5.24,2.63C358.6,150.06,358.87,151,358.62,151.13Z" transform="translate(-250.215 -87.038)" fill="#263238"/>
        <path id="Trazado_1606" data-name="Trazado 1606" d="M372.06,179.15c0-.22,2.41-.52,6.31-.82,1-.05,1.93-.2,2.13-.86a5.671,5.671,0,0,0-.51-2.95q-1.22-3.63-2.53-7.62c-3.5-10.86-6-19.77-5.55-19.9s3.63,8.55,7.14,19.4c.83,2.68,1.64,5.23,2.4,7.67.32,1.13.89,2.43.32,3.88a2.48,2.48,0,0,1-1.69,1.36,7,7,0,0,1-1.68.15C374.49,179.47,372.07,179.37,372.06,179.15Z" transform="translate(-250.125 -86.954)" fill="#263238"/>
        <path id="Trazado_1607" data-name="Trazado 1607" d="M372.44,224.82A71.06,71.06,0,0,1,335.59,213s8.42,19.77,36.47,18.56Z" transform="translate(-250.215 -86.868)" fill="#ff9a6c"/>
        <path id="Trazado_1608" data-name="Trazado 1608" d="M370,188.34a6.94,6.94,0,0,0-6.09-2.89,6.39,6.39,0,0,0-4.49,2.13,4,4,0,0,0-.53,4.57,4.636,4.636,0,0,0,5,1.53,14.7,14.7,0,0,0,5.07-2.69,4.24,4.24,0,0,0,1.15-1.08,1.29,1.29,0,0,0,.07-1.44" transform="translate(-250.169 -86.909)" fill="#ff9a6c"/>
        <path id="Trazado_1609" data-name="Trazado 1609" d="M362.3,136.13c-.53,1-4.26-.09-8.81-.24s-8.35.52-8.8-.5c-.2-.49.58-1.37,2.19-2.15a15.36,15.36,0,0,1,13.42.57C361.84,134.72,362.54,135.66,362.3,136.13Z" transform="translate(-250.209 -87.038)" fill="#263238"/>
        <path id="Trazado_1610" data-name="Trazado 1610" d="M397.12,134.2c-.72.84-3.33-.2-6.51-.4s-5.92.29-6.5-.66c-.25-.45.22-1.31,1.44-2.08a9.48,9.48,0,0,1,10.48.85C397.11,132.87,397.44,133.79,397.12,134.2Z" transform="translate(-250.077 -87.038)" fill="#263238"/>
        <path id="Trazado_1611" data-name="Trazado 1611" d="M314.61,171.55s19.71,6.13,30.86-42.51c3.82-16.64,19.24-30.11,19.24-30.11l-6.26-1.88s-38.87,11-39.52,11.44-9.81,20.11-9.81,20.11Z" transform="translate(-250.297 -87.038)" fill="#263238"/>
        <path id="Trazado_1612" data-name="Trazado 1612" d="M319.47,169.74c.09-2.08-2.06-7.09-4.1-7.52-5.43-1.13-15.32-1.18-16.11,12.72-1.08,19,18.22,16.17,18.29,15.63S319.12,176.91,319.47,169.74Z" transform="translate(-250.371 -86.934)" fill="#ffbf9d"/>
        <path id="Trazado_1613" data-name="Trazado 1613" d="M312.15,183c-.08-.07-.34.21-.92.44a3.4,3.4,0,0,1-2.48-.09c-2-.85-3.47-4.14-3.37-7.57a11,11,0,0,1,1.2-4.69,3.82,3.82,0,0,1,2.63-2.4,1.69,1.69,0,0,1,1.9,1c.23.55.09.92.19,1s.42-.3.31-1.09a2.1,2.1,0,0,0-.68-1.24,2.49,2.49,0,0,0-1.8-.58c-1.47,0-2.87,1.29-3.63,2.75a11.31,11.31,0,0,0-1.45,5.23c-.09,3.84,1.67,7.53,4.37,8.48a3.53,3.53,0,0,0,3.06-.33C312.09,183.5,312.22,183.08,312.15,183Z" transform="translate(-250.363 -86.929)" fill="#ff9a6c"/>
        <path id="Trazado_1614" data-name="Trazado 1614" d="M328,162.25c0-.07,1-.07,2.84-.58a17.12,17.12,0,0,0,6.77-3.93,22.861,22.861,0,0,0,3.53-4.13,31.192,31.192,0,0,0,2.87-5.56c1.69-4.09,2.77-8.86,4.1-13.82a142.641,142.641,0,0,1,4.37-13.8,80.329,80.329,0,0,1,5-10.74,57.842,57.842,0,0,1,4.36-6.68c.56-.75,1.05-1.3,1.36-1.68a3.59,3.59,0,0,1,.51-.56,5.992,5.992,0,0,1-.43.62c-.29.41-.75,1-1.29,1.74a65.092,65.092,0,0,0-4.19,6.74,80.865,80.865,0,0,0-4.83,10.73c-1.56,4.15-3,8.82-4.32,13.76s-2.43,9.74-4.15,13.87a31.54,31.54,0,0,1-3,5.61,23.26,23.26,0,0,1-3.64,4.17,16.88,16.88,0,0,1-6.95,3.85,10.48,10.48,0,0,1-2.91.39Z" transform="translate(-250.246 -87.038)" fill="#263238"/>
        <path id="Trazado_1615" data-name="Trazado 1615" d="M302,243.34a5.191,5.191,0,0,1-.21-.91c-.12-.67-.27-1.57-.48-2.71-.4-2.44-1-5.91-1.71-10.32l.46-.06c.1.69.21,1.45.32,2.24v-.07l.4.86-.47.17a182.482,182.482,0,0,1-6.1-30.6A185.608,185.608,0,0,1,293,182.15c.07-6.94,0-14.32,1.88-21.69a33.669,33.669,0,0,1,3.46-8.63,47.092,47.092,0,0,1,5.25-7.32c3.87-4.47,8-8.31,11.83-12.12l20.41-20.07,13.81-13.49,3.78-3.63,1-.93c.23-.21.35-.31.37-.29a2.386,2.386,0,0,1-.3.35l-.94,1-3.67,3.75-13.62,13.68L316,133c-3.79,3.83-7.95,7.69-11.75,12.1a37.5,37.5,0,0,0-8.52,15.61c-1.83,7.21-1.8,14.56-1.88,21.48A187.5,187.5,0,0,0,295,201.86a190.6,190.6,0,0,0,5.82,30.54l-.48.18-.39-.86v-.07c-.1-.79-.19-1.56-.28-2.25l.46-.07c.64,4.42,1.14,7.91,1.5,10.36l.36,2.72a5.878,5.878,0,0,1,.01.93Z" transform="translate(-250.36 -87.038)" fill="#455a64"/>
        <path id="Trazado_1616" data-name="Trazado 1616" d="M287,155.48a2.769,2.769,0,0,1,.33-.81l1.11-2.23c1-1.94,2.48-4.68,4.47-8s4.53-7.18,7.52-11.33A148.959,148.959,0,0,1,311,120.18c4-4.4,8-8.34,11.76-11.8s7.37-6.36,10.46-8.68,5.65-4.14,7.48-5.3l2.1-1.34a3.37,3.37,0,0,1,.76-.42,6.216,6.216,0,0,1-.67.57l-2,1.47c-1.76,1.24-4.26,3.12-7.29,5.5s-6.54,5.35-10.3,8.79-7.71,7.42-11.65,11.79-7.43,8.75-10.48,12.83-5.6,7.91-7.64,11.18-3.65,5.95-4.71,7.83c-.5.86-.91,1.58-1.25,2.15A4,4,0,0,1,287,155.48Z" transform="translate(-250.548 -87.038)" fill="#455a64"/>
        <path id="Trazado_1617" data-name="Trazado 1617" d="M375.444,190.936c-.16.4-7.6.964-11.534-.6s-6.654-6.039-6.474-6.439,3.124,3.419,7.054,4.979S375.6,190.536,375.444,190.936Z" transform="translate(-250.163 -86.911)" fill="#263238"/>
        <path id="Trazado_1618" data-name="Trazado 1618" d="M449.7,429.79s-5.18-49.49-1.46-78.1-24.55-101.95-24.55-101.95l-31.58-5.32-20.54-3.68c-25.9,33-57.19.88-57.19.88L294,249.33l-28.88,13.43L296.62,403s-7.22,46.45-13.91,65.77H412.8l40.84-.15Z" transform="translate(-250.548 -86.548)" fill="#ff71d5"/>
        <path id="Trazado_1619" data-name="Trazado 1619" d="M485.37,412.33s17.09-7.8,17.09-23-10.4-36.78-12.63-45-35.07-78.36-55.4-90.6c-4.55-2.74-11.66-4-11.66-4l30.65,119.12L417,377.78l15.53,44.7Z" transform="translate(-249.705 -86.548)" fill="#ff71d5"/>
        <path id="Trazado_1620" data-name="Trazado 1620" d="M433.23,374.39l7.51-24.27L442,333.59l17.66-11.75s4.73.55,3.26,4.22-8.62,10.28-8.62,10.28l-4.23,11.78,6.87-12,10-5,9.91.74s1.83,4.4-2.76,4.58h-4.95l-7.52,6.06L457,354l7-11,10.46-3.72,6.61,1.7s1.83,2.93-1.47,3.3a54.933,54.933,0,0,1-5.51.37l-6.05,3.52-5.32,11.16,9.35-7.71,12.11-1.45s2,2.92-1.1,4a100.792,100.792,0,0,0-9.35,4.4L467,366.8Z" transform="translate(-249.705 -86.689)" fill="#ffbf9d"/>
        <path id="Trazado_1621" data-name="Trazado 1621" d="M486.63,411.68a5.877,5.877,0,0,1-1,.29l-3.06.7L471,415.19l-40.25,8.55-.35.07-.12-.34c-3.38-10-7.1-20.94-11-32.43-1.39-4.09-2.75-8.12-4-12l-.15-.44.46-.11,30.29-7.12,13.05-3.05,5.88-1.37a28.1,28.1,0,0,1,5.52-.94,20.75,20.75,0,0,1,9.34,1.9,23.32,23.32,0,0,1,6,3.92,21.442,21.442,0,0,1,3,3.34l.64,1a1.591,1.591,0,0,1,.19.34,28.21,28.21,0,0,0-4.06-4.42,23.931,23.931,0,0,0-6-3.74,20.38,20.38,0,0,0-9.13-1.74,27.29,27.29,0,0,0-5.4,1L459.07,369l-13,3.13-30.27,7.21.3-.55,4.05,11.95c3.87,11.49,7.57,22.45,10.94,32.44l-.47-.26,40.32-8.24,11.57-2.29,3.08-.58a8.187,8.187,0,0,1,1.04-.13Z" transform="translate(-249.705 -86.548)" fill="#263238"/>
        <g id="Grupo_1979" data-name="Grupo 1979" transform="translate(45.751 322.212)" opacity="0.3">
          <path id="Trazado_1622" data-name="Trazado 1622" d="M296,411.89s9.1,19.07,20.92,24.65c16.12,7.61,102.79-7.05,102.79-7.05l-10.37-20.73-82.6,21.5Z" transform="translate(-296 -408.76)"/>
        </g>
        <path id="Trazado_1623" data-name="Trazado 1623" d="M267.27,261.85S250.92,263,250.55,305.7s49.79,114.43,58.33,121.49,18.32,11.81,44.07,8c32.3-4.78,54.77-9.1,54.77-9.1l-4.46-39-57.59-2.61-46.82-96.23S283.25,260,267.27,261.85Z" transform="translate(-250.548 -86.548)" fill="#ff71d5"/>
        <g id="Grupo_1980" data-name="Grupo 1980" transform="translate(73.593 314.122)" opacity="0.3">
          <path id="Trazado_1624" data-name="Trazado 1624" d="M417.3,403.46c-6.33-2.64-13.4-2.7-20.25-2.72l-27.27-.07c-5.88,0-11.84,0-17.53,1.45s-11.19,4.6-14.28,9.6l-14.25,11.77a94.22,94.22,0,0,0,54.95-3.22c4.41-1.64,8.75-3.63,13.4-4.36,12.31-1.93,24.78,5.21,37,2.93C429.11,412,423.63,406.09,417.3,403.46Z" transform="translate(-323.72 -400.67)"/>
        </g>
        <path id="Trazado_1625" data-name="Trazado 1625" d="M324.94,363.75s11.06,4.38,16.35,5.3,11.75,3,20.27,6.45a136.757,136.757,0,0,1,13.51,6.21l8.6,29.94s-14.28,9-30.4,8.52-30.4,4.75-32.47,3.3-2.3-4,0-5.14,12.07-2.53,12.07-2.53l8.42-3.46s-28.78,2.53-31.08,1.38-4.61-2.76-3.69-5.29a3.62,3.62,0,0,1,3.23-2.54s-6.22.23-6-2.3a7.94,7.94,0,0,1,3.45-5.3c.92-.46,13-5.37,13-5.37l15.53-3.08-14.92-.6-13,3.63s-5.2.59-4-3.79,17.05-9.21,17.05-9.21l20.26-1.39s-15.66-2.29-17.27-7.13S324.94,363.75,324.94,363.75Z" transform="translate(-250.288 -86.548)" fill="#ffbf9d"/>
        <path id="Trazado_1626" data-name="Trazado 1626" d="M375.07,381.71h1l39.55-1.74,11.83,34.53-43.78-2.85Z" transform="translate(-250.022 -86.548)" fill="#ffbf9d"/>
        <path id="Trazado_1627" data-name="Trazado 1627" d="M340.55,401.35a33.578,33.578,0,0,1-4.83.38c-3,.18-7.09.52-11.59,1.2s-8.53,1.57-11.43,2.28a34,34,0,0,1-4.73,1.08,22.6,22.6,0,0,1,4.57-1.67A86.107,86.107,0,0,1,324,402.07a87.089,87.089,0,0,1,11.7-1A23.052,23.052,0,0,1,340.55,401.35Z" transform="translate(-250.327 -86.548)" fill="#ff9a6c"/>
        <path id="Trazado_1628" data-name="Trazado 1628" d="M311,310a11,11,0,0,1-1.31-1.9c-.8-1.24-1.94-3.05-3.41-5.25A192.378,192.378,0,0,0,294,286.31a94,94,0,0,0-14.58-14.45,76.223,76.223,0,0,0-7.15-4.62,10.88,10.88,0,0,1,2.14.87,20.393,20.393,0,0,1,2.38,1.29,31.681,31.681,0,0,1,3,2c4.37,3.05,9.69,8.18,14.89,14.39a152.923,152.923,0,0,1,12.1,16.78c1.41,2.25,2.47,4.11,3.18,5.41A11.393,11.393,0,0,1,311,310Z" transform="translate(-250.548 -86.777)" fill="#263238"/>
        <path id="Trazado_1629" data-name="Trazado 1629" d="M428.79,265.71l.19-.13c1,3.73,4,15.92,7.39,30.39,2.06,8.81,3.87,16.8,5.14,22.6l1.46,6.87a15.182,15.182,0,0,1,.42,2.55,13.928,13.928,0,0,1-.75-2.47c-.45-1.76-1-4-1.73-6.81-1.42-5.76-3.33-13.73-5.38-22.55-3.37-14.46-6.09-26.71-6.79-30.53l-.06-.3.24.17" transform="translate(-249.915 -86.764)" fill="#263238"/>
        <path id="Trazado_1630" data-name="Trazado 1630" d="M377.82,431.11a5.128,5.128,0,0,1-1,.34l-3,.8c-2.6.67-6.38,1.56-11.11,2.43a136.7,136.7,0,0,1-16.76,2,77.811,77.811,0,0,1-20.63-1.38,41.62,41.62,0,0,1-10.15-3.55,33.943,33.943,0,0,1-4.41-2.66,30.618,30.618,0,0,1-3.62-3.35,133.749,133.749,0,0,1-10.44-13.28c-2.76-3.92-4.89-7.17-6.34-9.43-.66-1.08-1.21-1.95-1.63-2.63a5.32,5.32,0,0,1-.51-.95,4.691,4.691,0,0,1,.66.86l1.77,2.53c1.53,2.2,3.73,5.39,6.55,9.27a142.836,142.836,0,0,0,10.52,13.08,30.2,30.2,0,0,0,3.53,3.23,35.149,35.149,0,0,0,4.3,2.57,41.138,41.138,0,0,0,10,3.46,79,79,0,0,0,20.4,1.43,151,151,0,0,0,16.7-1.83c4.72-.8,8.52-1.59,11.13-2.16l3-.64A5,5,0,0,1,377.82,431.11Z" transform="translate(-250.548 -86.548)" fill="#263238"/>
        <path id="Trazado_1643" data-name="Trazado 1643" d="M392.42,362.08a2.062,2.062,0,0,1,.14-.48c.13-.37.3-.82.49-1.35.12-.3.24-.62.37-1s.23-.76.36-1.18a29.138,29.138,0,0,0,.8-2.89c.12-.55.25-1.11.39-1.7s.2-1.22.31-1.87c.24-1.28.32-2.68.46-4.14a51.23,51.23,0,0,0-.41-9.52,50.428,50.428,0,0,0-2.38-9.24,35.834,35.834,0,0,0-1.64-3.83c-.3-.58-.55-1.16-.84-1.69l-.87-1.52a28.313,28.313,0,0,0-1.6-2.53c-.25-.37-.47-.72-.69-1l-.63-.82-.87-1.15c-.19-.27-.29-.41-.27-.42s.13.11.35.35l.95,1.09c.2.25.43.51.67.8s.46.64.73,1c.5.73,1.13,1.53,1.68,2.51l.9,1.52c.31.52.57,1.11.87,1.69.63,1.17,1.14,2.48,1.71,3.85a44.43,44.43,0,0,1,2.81,19,38.861,38.861,0,0,1-.51,4.18c-.12.65-.2,1.28-.34,1.88s-.29,1.16-.42,1.71c-.24,1.09-.61,2-.88,2.89-.15.42-.27.82-.41,1.17s-.28.67-.41,1l-.58,1.32C392.52,361.94,392.44,362.09,392.42,362.08Z" transform="translate(-250.076 -86.704)" fill="#263238"/>
        <g id="Grupo_1981" data-name="Grupo 1981" transform="translate(130.155 223.794)" opacity="0.3">
          <path id="Trazado_1644" data-name="Trazado 1644" d="M380.23,310.5c17.38,15.78,17.77,32.5,12.19,51.58,7.68-7.57,10.34-20.19,7.93-31.56s-10.29-17.46-20.12-20" transform="translate(-380.23 -310.5)"/>
        </g>
        <path id="Trazado_1645" data-name="Trazado 1645" d="M333.15,366.75c-.13.05-3.89-9.09-8.4-20.41s-8.05-20.55-7.92-20.61,3.9,9.09,8.41,20.42S333.29,366.7,333.15,366.75Z" transform="translate(-250.311 -86.695)" fill="#263238"/>
      </g>
    </g>
    <circle id="Elipse_200" data-name="Elipse 200" cx="50" cy="50" r="50" transform="translate(9470 5149)" fill="#fff"/>
    <circle id="Elipse_201" data-name="Elipse 201" cx="32" cy="32" r="32" transform="translate(9877 5371)" fill="#fff"/>
    <path id="Trazado_1646" data-name="Trazado 1646" d="M9610.145,5515.842c-1.267-5.39,171.327,0,171.327,0s-39.622,22.2-78.769,23.191S9630.431,5529.163,9610.145,5515.842Z" transform="translate(-0.899)" fill="#ff71d5"/>
  </g>
</svg>
