<svg width="32" height="24" viewBox="0 0 32 24" fill="none" xmlns="http://www.w3.org/2000/svg">
<path d="M29 23C24.375 23.6667 20.0417 24 16 24C14.2083 24 12.2292 23.9167 10.0625 23.75C7.89583 23.5833 6.17708 23.4167 4.90625 23.25L3 23C2.4375 22.8958 1.94271 22.5052 1.51562 21.8281C1.08854 21.151 0.776042 20.3333 0.578125 19.375C0.380208 18.4167 0.234375 17.5208 0.140625 16.6875C0.046875 15.8542 0 15.0938 0 14.4062V9.59375C0 4.28125 1 1.41667 3 1C7.625 0.333333 11.9583 0 16 0C17.7917 0 19.7708 0.0833333 21.9375 0.25C24.1042 0.416667 25.8229 0.583333 27.0938 0.75L29 1C29.6042 1.08333 30.1198 1.46354 30.5469 2.14062C30.974 2.81771 31.2812 3.64583 31.4688 4.625C31.6562 5.60417 31.7917 6.5 31.875 7.3125C31.9583 8.125 32 8.88542 32 9.59375V14.4062C32 15.1562 31.9688 15.9167 31.9062 16.6875C31.8438 17.4583 31.7188 18.3438 31.5312 19.3438C31.3438 20.3438 31.0312 21.1771 30.5938 21.8438C30.1562 22.5104 29.625 22.8958 29 23ZM21.6562 11.2188L13.4688 6.21875C13.2396 6.01042 12.9375 5.95312 12.5625 6.04688C12.1875 6.14062 12 6.29167 12 6.5V17.5C12 17.7292 12.1875 17.8854 12.5625 17.9688C12.9375 18.0521 13.2396 17.9896 13.4688 17.7812L21.6562 12.7812C21.8854 12.5729 22 12.3125 22 12C22 11.6875 21.8854 11.4271 21.6562 11.2188Z" fill="white"/>
</svg>
